<mxfile host="app.diagrams.net" agent="Mozilla/5.0 (Windows NT 10.0; Win64; x64) AppleWebKit/537.36 (KHTML, like Gecko) Chrome/132.0.0.0 Safari/537.36" version="26.0.11">
  <diagram name="第 1 页" id="uFTr0-t_GFGNkV8t07dw">
    <mxGraphModel dx="1877" dy="1691" grid="1" gridSize="10" guides="1" tooltips="1" connect="1" arrows="1" fold="1" page="1" pageScale="1" pageWidth="827" pageHeight="1169" math="0" shadow="0">
      <root>
        <mxCell id="0" />
        <mxCell id="1" parent="0" />
        <mxCell id="FcAqTXAFGtNp5iq5CDFF-1" value="" style="rounded=0;whiteSpace=wrap;html=1;" vertex="1" parent="1">
          <mxGeometry x="-20" y="-20" width="920" height="790" as="geometry" />
        </mxCell>
        <mxCell id="FcAqTXAFGtNp5iq5CDFF-2" value="" style="shape=image;verticalLabelPosition=bottom;labelBackgroundColor=default;verticalAlign=top;aspect=fixed;imageAspect=0;image=data:image/png,iVBORw0KGgoAAAANSUhEUgAABMUAAABACAIAAACV/ldOAAAQAUlEQVR4Ae3df3AU5R3H8QSRKtSpFqcd2yljnY5tRztqx6md1tHp2Ol0HGfUP9rqP+0fHadNAgQFxCrUbQjxhGs8aAxRrzRXc0iwkUQu2CCh5ayRHEIhSJBUkuKJMUQ85IhnSC7fzmVzt7uXvebudu9yxHfmJtnde57v7vPa/POZZ38UCT8IIIAAAggggAACCCCAAAIIZC5QlHkXeiCAAAIIIIAAAggggAACCCAg5En+CRBAAAEEEEAAAQQQQAABBLIRKBrO9iebvdEHAQQQQAABBBBAAAEEEEBgpgiQJ2fKmWQcCCCAAAIIIIAAAggggEB+BciT+fVmbwgggAACCCCAAAIIIIDATBEgT86UM8k4EEAAAQQQQAABBBBAAIH8CpAn8+vN3hBAAAEEEEAAAQQQQACBmSJAnpwpZ5JxIIAAAggggAACCCCAAAL5FchlnhwdkaGP5PR/pXevvL5Jtj0if75Pqm+X1dfLowtk2XxZcpmUz5PyubHPknmx1WXz5dGvScV18sfbxP0LaVou/3pOejvkwz45d1pGz+cXh70hgAACCCCAAAIIIIAAAgikFMhNnjwfkaO7xPe41N4lK6+WhbOlpCj7T9lseWyB1NwpL6+UI3+X4aGUo+ELBBBAAAEEEEAAAQQQQACBfAnYnSejI3KkTZy3ysNflrKLss+Qpvmz7CJ5+Evy5Pelaztzlfn6D2E/CCCAAAIIIIAAAggggIC5gK158uwp2bpEFl9ic4ycnC0XzZHNv5Uz/SJj5sNiKwIIIIAAAggggAACCCCAQI4FbMqTY1E53iFP/SjnSVKfLdf9UHr+KWPRHBNRHgEEEEAAAQQQQAABBBBAwETApjx5/HVZc0New6QaLCuuk2P/YJbS5MSyCQEEEEAAAQQQQAABBBDIsYAdefLsgFTfNg1hUo2UT94ioZM5VqI8AggggAACCCCAAAIIIIBAsoDlPDl6XjaXTFuYVCNl/S9l5NPkkbGOAAIIIIAAAggggAACCCCQSwHLefJgsyyaM815smy2BLy5VKI2AggggAACCCCAAAIIIIBAsoC1PPlpWBzfm+YwqU5RrrlRhkLJg2MdAQQQQAABBBBAAAEEEEAgZwLW8uRhnyy/siDy5NIr5N9NOVOiMAIIIIAAAggggAACCCCAQLKAhTw5OizbVkjprILIk6Wz5MUl3EWZfHpZRwABBBBAAAEEEEAAAQRyJmAhT4YHZf2PCyJMqpe8Om+VswM5g6IwAggggAACCCCAAAIIIICAQcBCnjz1jqy4qoDy5LIvygdvGwZny0o0MnjM31Rf41xbqcR/Kte66l5q6wpGtD1EA+76gLoa9LniDTP/62oNakVZQgABBBBAAAEEEEAAAQQKV8BCnnx7d6Fc7KrOT5YWS9d2O6Wjod49XmdFPBOudbe80dMfHhnfxUi4v8ff4HI43S37g5GoDO6sUSblSWeDP9FBJOCJV1L/evbFDzYS6n0jvqM85MmhgKeW1BrH5y8CCCCAAAIIIIAAAghkK2AhT+5en3JyctEc2f64vLpuik+bQ3yKvFAq6++QVdfIoktMCpbOkj/fr9VpeEDKLjJppkbKHZXZOkzqNxDwOrX852ruDk9qEtsw4Hc74s2MedLlS5poTJ0n1conWl0VipL7PNm1pTIPezHVYiMCCCCAAAIIIIAAAgjMJAELefKFspS5bunlMqrO42ViNTIsu9dL1U2Gac+Fc+Toq1qVdw/Ios+l3G/9r7SWVpbUaBfPiZOSobF0OOCpGm+qz5MmsXCqPCnS2+zMedI73Bi7bNfk8IyDYg0BBBBAAAEEEEAAAQQQmErAQp58+q6UuS67PKkea/9RWf0drXJGebL69qnGm8b3wfF5wniYVGrbB6fspIY0XZ6s2TX5ZZhT50kJtrpymvQS0Tene5mSiwYIIIAAAggggAACCCAwIwQs5MknbtZSn3q5aeK3lTwpIv5ntMoZ5UnlWssnJdhqeJhOpfdQOiXD/mcV3f2T7pYTk3ulkScl2LIpZ3c2Dve2JIZGnpx8ftiCAAIIIIAAAggggAACGQpYyJMrr9ZSXyJJqgtJefL9IxLYLJ3e5E9gsxxqjl3OeuZ9w2GPRaX80oniGeXJ5Vca6mS+En6tLjExGVtY29STZpF9nkSeTNEjnTyZoqv1zeHupkSY5HpX655UQAABBBBAAAEEEEAAARELeXLZ/HTzpE8x3BKZFD5LiuTpO+Vkl+F0rPpGNnly8aWGIhmv9LbonsGjKErlFuNR/Z+CQ/66+PWuKVplmCdjT5dtrKmOv6SkyuXZ2R2KmtQOHWnzbHBUqs+hrXJ59/SGouHAphptojMU8CYeGmSIy7GVKe4ONdkhmxBAAAEEEEAAAQQQQACBmICFPFk+z7Y8WTpLfI/L2Jh2Tp79WTZ5cuHFWoUsltTbIHWJy+w2yCzqql0yyZOhA41qsnW19A6LhLob1dlFhzdgfM5scHddLHFWuf0nR0RGwn0d3mp1APFLWk+31yVeeaIbWmKRPJn1GaUjAggggAACCCCAAAKfcQELedL09R6m17vq5ydXXy9P3DzxWXOjPPSFidy4dbGMntdOhk/JJk+WFmsVMl8KvmycnVQU7RWRmVeb1CPtPJl4ao5S05Z4FtC++NsrXa3BxCzlYHvNeFZ0Nvdqu4uqt4DG8+TEF8a9J32pdWYJAQQQQAABBBBAAAEEEEhXwEKeXDgn4/nJ0lnyUTA2D6l+zp2WZ+6dKLLpfol8rB21f2M2ebKkSKuQ+VKgPjFpZ5ziy7yUWQ9joksZVsOBTfFrXGvbtafEnm6viR9dza6JlNm/I35PZJXbP6DbZyxnJkVG496TvtR1ZREBBBBAAAEEEEAAAQQQSFPASp68OJs8efaUdmSfnBH3zyeK1N0j505rX+315D1PJj3Z1fan1hgTXao8eVx3C6fhhkxd93jONATgCqe3MzGbKT0vubX7J2Osuu62j0w7bSwhgAACCCCAAAIIIIDAZ0igYPLkxrunO0/2G98UoiiKo+k/Nv4rGBNdijwZ9MWnHBXtBSTjB6Hv7gmMb5p8ga7j2dZubU5Tf/D67orC/KTehmUEEEAAAQQQQAABBBDISsBKnszqetdU85PTnyfFMN03fnFp3u+fjMTeYzn1j6u1f/xs6yczE72ME5Xx/wryZFyCvwgggAACCCCAAAIIIGCTgIU8ufgSO693tSdPWnoej3Y7Yjyb5f35rsZrbg3Xu5qfcMN8ZvywFUVxbukyPgiWPGkOyFYEEEAAAQQQQAABBBDIWsBCniyfW3B5smx21hCxjpOn+xoOWCpo6GxMdObXuxrzZHwa0lAmeSXc3ay7RFYXKV07grq2xr1zvauOhkUEEEAAAQQQQAABBBDITsBCnlx6RcHlycWXZqcQ7zXYlniIqhrM1jb1xL+z/NeY6MzzpPEezgpvmnE2dKTFNfklkxWeQOLNIjyPx/L5owACCCCAAAIIIIAAAggkCVjIk48tKLg8ufSKpOFlvHq4Mf6yDjVQOluOp11DC2+mXdLJk3KgQTfDqFR6D5mWMts43O/f5NB3Nj51x7h35ifNCNmGAAIIIIAAAggggAACGQlYyJNrbiy4PLnqmowGb9Y4HKg3JMrKzV1mzZK3BX1e4/s5khskv7HDfH5SIq+7DZnQ3RFJrhT2b2npGc+uQZ87Ke4OvuZ2aBOV+tRInkx2ZB0BBBBAAAEEEEAAAQQsCljIk3/6acHlyXU/sMgR6x4Ntm7QZzpXy4kpqgZ31VUqU97saEx0KfKkRLu8xjzr2Wd4sE54X2Nj58SW2MN4atu1l06OH6b2hB7D9a5dhonXeNLs+ltTWnF5CgC+RgABBBBAAAEEEEAAgc+igIU82fBAweVJ9332nMPooOHa0aq6tr4R88rD/R0NTqXC2XjIkPpMGhtvjVQUxeXTPy9H6xHe5zEkygqHe08wEhWJRoJ73K6GQGJPanR0vdSd2BKrss+jpmFnc69WVELttUkheSTU6XFuIU7qkFhEAAEEEEAAAQQQQACBTAQs5Mmda1PmycVz5egu6QuMfzpl0/1SWhxrXFosbzbGtwfkSJs8ectEkaqb5K0d2lebSya2l82WV9ZIX+fEV3tqZeHFKfe7/feZjH2KtqEjbZ5qLYM5G9q6+kKxXBebw4yE+ns6fB5nheKsb+sOTVFKIkG/2xASY3Wr3P7gpKtZxysFd5g/srWyrj2ou0tTm4qs9nb0hWORN9TdNN41qWWs6onW5Gf2VHm0bDrVCPgeAQQQQAABBBBAAAEEEEgSsJAn33plIiWWFKUMeHn+av+LScOzvhoZ6OnwNdZtcDj0ebDK4az1NO3sSpEHdbs1vgFEi6f6JbP3TI6cPNBa70rstHJDXdMb/UmTpEFfjbszLJHgAZ+3pnri+CqraxontVQPaKTP73GNN6uodNW3Gac1dcfMIgIIIIAAAggggAACCCCQhoCFPPnBMVk2v1CSZEmRLLlMTh5OY8g0QQABBBBAAAEEEEAAAQQQsEHAQp48OyDOWwsoTzpuljPv20BCCQQQQAABBBBAAAEEEEAAgTQELOTJ8xHZurhgLnktFu9vZHgojSHTBAEEEEAAAQQQQAABBBBAwAYBC3lSRPY3ykOXF8QU5YOXyd6/iozZQEIJBBBAAAEEEEAAAQQQQACBNASs5cnwKVl9fUHkSeVbEnovjfHSBAEEEEAAAQQQQAABBBBAwB4Ba3lSRF57TkpnTXOkLC2W9qfs8aAKAggggAACCCCAAAIIIIBAegKW8+TwkGy8e5rz5PqfSOTj9MZLKwQQQAABBBBAAAEEEEAAAXsELOdJEfmwV/7w7WmLlKu+LgPH7MGgCgIIIIAAAggggAACCCCAQNoCduTJsagcbJbHFkxDpHzkK7J/q4xF0x4vDRFAAAEEEEAAAQQQQAABBOwRsCNPisjoiBzcJsq1eY2UK6+WNxtldNgeCaoggAACCCCAAAIIIIAAAghkImBTnhSJTRIOviM1d+bljZTF4rpDPnibmclMzjVtEUAAAQQQQAABBBBAAAE7BezLk+pRfRqW3etjt1M+eJmUFNs/Xbnk86J8U3auk0/O2MlALQQQQAABBBBAAAEEEEAAgQwF7M6T6u5D78lej3gfkKqbpHyeDamyfK6suUGe/7V0/EVOv5vhGGmOAAIIIIAAAggggAACCCBgv0Bu8mTsOMdkeEjOnJT3Dklgs2xbIXX3StV35XdflSXzpGx2ypBZNlvK58qKq2KNN94jTcul83kJHpTQSRk+J2Nj9htQEQEEEEAAAQQQQAABBBBAIHOB3OXJzI+FHggggAACCCCAAAIIIIAAAheOAHnywjlXHCkCCCCAAAIIIIAAAgggUEgC5MlCOhscCwIIIIAAAggggAACCCBw4QiQJy+cc8WRIoAAAggggAACCCCAAAKFJECeLKSzwbEggAACCCCAAAIIIIAAAheOwP8AzScRbTMK12kAAAAASUVORK5CYII=;" vertex="1" parent="1">
          <mxGeometry x="-19" y="-18" width="910" height="47.7" as="geometry" />
        </mxCell>
        <mxCell id="FcAqTXAFGtNp5iq5CDFF-5" value="Case Name" style="text;html=1;align=center;verticalAlign=middle;whiteSpace=wrap;rounded=0;strokeWidth=1;fontStyle=1" vertex="1" parent="1">
          <mxGeometry x="-2" y="61" width="90" height="30" as="geometry" />
        </mxCell>
        <mxCell id="FcAqTXAFGtNp5iq5CDFF-7" style="edgeStyle=orthogonalEdgeStyle;rounded=0;orthogonalLoop=1;jettySize=auto;html=1;exitX=0.5;exitY=1;exitDx=0;exitDy=0;" edge="1" parent="1">
          <mxGeometry relative="1" as="geometry">
            <mxPoint x="210" y="100" as="sourcePoint" />
            <mxPoint x="210" y="100" as="targetPoint" />
          </mxGeometry>
        </mxCell>
        <mxCell id="FcAqTXAFGtNp5iq5CDFF-10" value="test_Wide_TouchFocus_Capture_500_Times_0" style="text;html=1;align=center;verticalAlign=middle;whiteSpace=wrap;rounded=0;fontSize=12;" vertex="1" parent="1">
          <mxGeometry x="178" y="61" width="60" height="30" as="geometry" />
        </mxCell>
        <mxCell id="FcAqTXAFGtNp5iq5CDFF-11" value="Loop" style="text;html=1;align=center;verticalAlign=middle;whiteSpace=wrap;rounded=0;strokeWidth=1;fontStyle=1" vertex="1" parent="1">
          <mxGeometry x="10" y="90" width="90" height="30" as="geometry" />
        </mxCell>
        <mxCell id="FcAqTXAFGtNp5iq5CDFF-12" value="500" style="text;html=1;align=center;verticalAlign=middle;whiteSpace=wrap;rounded=0;fontSize=12;" vertex="1" parent="1">
          <mxGeometry x="60" y="91" width="60" height="30" as="geometry" />
        </mxCell>
        <mxCell id="FcAqTXAFGtNp5iq5CDFF-13" value="Comment" style="text;html=1;align=center;verticalAlign=middle;whiteSpace=wrap;rounded=0;strokeWidth=1;fontStyle=1" vertex="1" parent="1">
          <mxGeometry x="-2" y="121" width="90" height="30" as="geometry" />
        </mxCell>
        <mxCell id="FcAqTXAFGtNp5iq5CDFF-14" value="&lt;div&gt;Small Picture 1 provider/hal/app crash&lt;/div&gt;&lt;div&gt;&lt;br&gt;&lt;/div&gt;" style="text;html=1;align=left;verticalAlign=middle;whiteSpace=wrap;rounded=0;fontSize=12;" vertex="1" parent="1">
          <mxGeometry x="78" y="113" width="230" height="59" as="geometry" />
        </mxCell>
        <mxCell id="FcAqTXAFGtNp5iq5CDFF-15" value="Serial" style="text;html=1;align=center;verticalAlign=middle;whiteSpace=wrap;rounded=0;strokeWidth=1;fontStyle=1" vertex="1" parent="1">
          <mxGeometry x="10" y="160" width="90" height="30" as="geometry" />
        </mxCell>
        <mxCell id="FcAqTXAFGtNp5iq5CDFF-16" value="3d234dx" style="text;html=1;align=left;verticalAlign=middle;whiteSpace=wrap;rounded=0;fontSize=12;" vertex="1" parent="1">
          <mxGeometry x="80" y="145.5" width="230" height="59" as="geometry" />
        </mxCell>
        <UserObject label="java.lang.AssertionError: fail to switch : [Ljava.lang.String;@6c12f07&#xa;&amp;nbsp;&amp;nbsp;&amp;nbsp;&amp;nbsp;at org.junit.Assert.fail(Assert.java:89)&#xa;&amp;nbsp;&amp;nbsp;&amp;nbsp;&amp;nbsp;at org.junit.Assert.assertTrue(Assert.java:42)&#xa;&amp;nbsp;&amp;nbsp;&amp;nbsp;&amp;nbsp;at com.phonetest.application.testSuites.CameraAutoTest.test_AINRNight_SwitchModes_Capture_100_Times_0(Unknown Source:204)&#xa;&amp;nbsp;&amp;nbsp;&amp;nbsp;&amp;nbsp;at java.lang.reflect.Method.invoke(Native Method)&#xa;&amp;nbsp;&amp;nbsp;&amp;nbsp;&amp;nbsp;at org.junit.runners.model.FrameworkMethod$1.runReflectiveCall(FrameworkMethod.java:59)&#xa;&amp;nbsp;&amp;nbsp;&amp;nbsp;&amp;nbsp;at org.junit.internal.runners.model.ReflectiveCallable.run(ReflectiveCallable.java:12)&#xa;&amp;nbsp;&amp;nbsp;&amp;nbsp;&amp;nbsp;at org.junit.runners.model.FrameworkMethod.invokeExplosively(FrameworkMethod.java:56)&#xa;&amp;nbsp;&amp;nbsp;&amp;nbsp;&amp;nbsp;at org.junit.internal.runners.statements.InvokeMethod.evaluate(InvokeMethod.java:17)&#xa;&amp;nbsp;&amp;nbsp;&amp;nbsp;&amp;nbsp;at androidx.test.internal.runner.junit4.statement.RunBefores.evaluate(RunBefores.java:80)" link="java.lang.AssertionError: fail to switch : [Ljava.lang.String;@6c12f07&#xa;    at org.junit.Assert.fail(Assert.java:89)&#xa;    at org.junit.Assert.assertTrue(Assert.java:42)&#xa;    at com.phonetest.application.testSuites.CameraAutoTest.test_AINRNight_SwitchModes_Capture_100_Times_0(Unknown Source:204)&#xa;    at java.lang.reflect.Method.invoke(Native Method)&#xa;    at org.junit.runners.model.FrameworkMethod$1.runReflectiveCall(FrameworkMethod.java:59)&#xa;    at org.junit.internal.runners.model.ReflectiveCallable.run(ReflectiveCallable.java:12)&#xa;    at org.junit.runners.model.FrameworkMethod.invokeExplosively(FrameworkMethod.java:56)&#xa;    at org.junit.internal.runners.statements.InvokeMethod.evaluate(InvokeMethod.java:17)&#xa;    at androidx.test.internal.runner.junit4.statement.RunBefores.evaluate(RunBefores.java:80)" id="FcAqTXAFGtNp5iq5CDFF-17">
          <mxCell style="text;html=1;align=left;verticalAlign=middle;whiteSpace=wrap;rounded=0;" vertex="1" parent="1">
            <mxGeometry x="81" y="206" width="852" height="130" as="geometry" />
          </mxCell>
        </UserObject>
        <mxCell id="FcAqTXAFGtNp5iq5CDFF-18" value="Trace" style="text;html=1;align=center;verticalAlign=middle;whiteSpace=wrap;rounded=0;strokeWidth=1;fontStyle=1" vertex="1" parent="1">
          <mxGeometry x="10" y="250" width="90" height="30" as="geometry" />
        </mxCell>
        <mxCell id="FcAqTXAFGtNp5iq5CDFF-19" value="Run Time" style="text;html=1;align=center;verticalAlign=middle;whiteSpace=wrap;rounded=0;strokeWidth=1;fontStyle=1" vertex="1" parent="1">
          <mxGeometry x="6" y="360" width="90" height="30" as="geometry" />
        </mxCell>
        <mxCell id="FcAqTXAFGtNp5iq5CDFF-20" value="5 min" style="text;html=1;align=left;verticalAlign=middle;whiteSpace=wrap;rounded=0;fontSize=12;" vertex="1" parent="1">
          <mxGeometry x="84" y="346.5" width="230" height="59" as="geometry" />
        </mxCell>
        <mxCell id="FcAqTXAFGtNp5iq5CDFF-21" value="Mi Case" style="text;strokeColor=none;fillColor=none;html=1;fontSize=24;fontStyle=1;verticalAlign=middle;align=center;" vertex="1" parent="1">
          <mxGeometry x="20" y="400" width="100" height="40" as="geometry" />
        </mxCell>
        <mxCell id="FcAqTXAFGtNp5iq5CDFF-22" value="" style="shape=image;verticalLabelPosition=bottom;labelBackgroundColor=default;verticalAlign=top;aspect=fixed;imageAspect=0;image=data:image/png,iVBORw0KGgoAAAANSUhEUgAABEwAAAI0CAIAAACIwit7AAAgAElEQVR4Aey9/Y9lx3nf2X8CY2f/hSap34IeDpa7v0xkYBbN8Wi9CCFAAwgwIWBNJDCBqNUxohEBeURAoWGDCKCBVhr1xswktmYVaGlk6SFNttSUxoFDwrFpgMYopocjNsc0rQYYDPq+3+6zqPqe85yq83L73tt93z8Xg+lzz6lTL586dev5Vj1VZy3hAwEIQAACEIAABCAAAQhAYIkIrC1RWSgKBCAAAQhAAAIQgAAEIACBBJHDQwABCEAAAhCAAAQgAAEILBUBRM5SVSeFgQAEIAABCEAAAhCAAAQQOTwDEIAABCAAAQhAAAIQgMBSEUDkLFV1UhgIQAACEIAABCAAAQhAAJHDMwABCEAAAhCAAAQgAAEILBWBWpFzfHx8dHS0VGWlMBBYRgJH/rOMJaNMEFgeAnSpy1OXlGSpCdClLlP1Vouc4+Pjnv/0+33V9/Hx8TIVm7JAYDkIHB0dhU2Vdroc1UoplowAXeqSVSjFWVYCdKlLVrORyDn2nyRJjo+PO51Oq9Vqt9s66Pf72E9LVvcUZ3EJqDHKcmq3261WS+202+3SThe3Wsn5khGgS12yCqU4y0qALnVZazYSOTYk3O12m81mo9Fot9vdblf/Yzwt60NAuRaIgJxeut1u33/a7Xaj0Wg2m51OR0MS/X5/gYpDViGwxAToUpe4cinachCgS12OeqwrxZpVsM3bdP1HY8OypbrdbqfTYYlOHUTOQ2DSBDQk3Ov1JGaseZq2kTnV7XZ7vd6kM0P8EIBAHQG61DoynIfA/BCgS52fuphoTtZkFXU6HQ0Gy2ay2RsJHn3FY22iNUHkECgTOD4+7vf7aoa9Xq/b7dpghOZX1TYlfjQYgcdaGSNnIDBRAhI24UADXepEgRM5BMYjQJc6HrfFvWtNNlOv12u1WrKi2u22vnaCj67isba4NU3OF5HA0dGRfEdb/iO1o2lVtVMblVBjlcca7XQR65o8Ly4BrY5TI6VLXdx6JOdLT4AudemruFBAN5NjqkYip9Pp9Ho98++3n2/cYArs+AqBSRDQNLqESr/fl3o5OjoKhyH6/b5mcnRVszcK3G63ETmTqBfihECBgDXVsJekSy1Q4isEZkvA2mmSJHSps62L6ae+Jj2j3+VWq9X0H8ke6Rzbu+no6Ajjafo1RIorRUCT6SZskiSxFXFqj/JYa7VajUbDVua0/afZbKrl6jd9pbhRWAhMk4CamOkZuatpGIIudZoVQVoQGEyALnUwn6W/uiZ3F9tFTQf6sdaxlgTY+mbt3fTIN/7ukW/83dLToYAQmA4B7c2vAQVJF1sCF663UZOUzpGBpTV17Xa73+/btgQKxpDEdOqOVFaHgBlM7Xa72Wy2Wi3tzWPvXTCvUbVBjT6owZr4qexSV4chJYXAFAjQpU4B8kIksaZfYamaTqdjNpPGj23wWBaVGU+InIWoXTI5zwRssbINNFhz6/V6JlE0vS5HfxlVspl0Xqt0dKPar8XGdojzXPvkbYEI2IZp9vo4dYW9Xs9amXmsjdelLhANsgqB+SRAlzqf9TLbXKUbD5h/WrhndKhzer2exp/k8T9bkWMelmYIzhYiqUNgeAL6IdbEi+SKXnRjnmaFqGyhpM2mmpOMbacWjkEoZg1bFKKa/ldznKOpTh8+KZ6SgOZtrONrNpuHh4caaDBtEyahhXMajxi1Sw3jmf4xXer0mZPiWRGgSz0rkksZj3NXk5eL5tk1GGzT66GNImOr0+n0+/1Hrj2YlbuaOh7tkWAuPUtZNxRqKQloBkYv29USOK2lGSAD+v2+RIupGttvQMPGoY1ydHSk8N1ut9IUmw5VZUmKSwPeAwo4nSyRCgSGJGBDwnJL0zCEWms4y1qI7fj4WA1zjC51hq2DLrVQj3xdLAJ0qYtVX1POrRM5mr2xkSczvDR7o99r2WFmWs1K5KgXkYHYaDQODw/b7fYMLbkp1xbJLS4BmU3hhgGS6NonrdVqDVDsR0dHZjxJ5/T7fWunWpCjMNo7xOZ8tIJu+tDMdafhP4eHh81mc4B1OP0ckiIE6ggcHx9r33bt7SGJLhd/vU1uQI+j7nKMLnVWIocute4x4PycE6BLpUsd5hF1W0hrd/9GoyFDSt7GOrb/TfDIMWYmIsfMOM0+aR2nVmkP6HWGoUAYCEyBgI2Y9vt926tQFpUeYzN0bCDZgunVVdIwmtXRLdZCbUGdIjeXtimUq5yE5TZ817CEXDkwZyAwbwQ0HWozkGqYR0dHGuwLxw7Mpc3CjNelWtufJgq61GnSJq0zJ0CXGv4WnTne5YgwFTm2T7RsJr25WauZJW/kfGL7w0xa5Jiviw60d02hj9HzbS9JnEknsRwPAaWYJoHyg2pyXaaVrYXTFI09/Obrr1UBtvRZekaDx2ZpaTJnCr+A0mPhNJSNDXc6nTA/MhAZj5jmw0Za4xGwfie8XQ+2rckpbJKmR93GLEbtUss/C2HSpz+mSz09Q2KYTwLltkOXOp81NZNcuffk2MSIjQrLm19jw/bjqOdGhtcURI6SS+fjDu78v//Pm2/81/c/+vh/6HXvGayDt/7TH/7ov330sIHTWoaEv4tG4OjoqN1uayrVdpHWEIPN5BQ81sJ92DRtopByqjHZMwVFYZu8maAykRMqH3nlyWlt0eqH/ELAEZATpnaO1jZrGmIrbBkyXpdaNtTOFroyH2ZVo4RlBzy56uEHfrb8iW2aBOhSp0l7ztNas+EomSYSNhIStlyn1+tp5aUJjFF3Vzt4b3f3jaH/vXegldONRiP9qX3r6sbGxrlz5z77zbctD47sJ7d+fWPjiSeeOH/l9/f7/Un3E3Nel2RvsQho+ECmhkSO1q7oCS88zBohtvEIm8zRRKsc2CQk1FSn462rHw1LUfylx5rNZihylH8JuSlIr8V6EsjtnBOwpioBcOg/anSFdqpXqmsydqQuddIEil2q12z9fr/cJBVy8CrBSeeW+CEwBgFrp9YV0qWOgXHJblmzAR5tnmZ7/NtwjiwVjRPbD/qoIufO8xsjfJ6/0+v1tF+nTKW/fPGCv/3CN/9rU9u7qRoOfvDMOf955g8/YuRpyR7NpS+OTW5odb5JBWtlBQKaM5Gq0UyOHNg6nY5mSGwyR7/1hdsn8fX4+FjyTKaSkrCZnG63a2WRV5tGwXu93iQyQ5wQmAQB9YzaMsQ2RZQrpj3eYbrjdalhDJM4LnSp+onQ/iVhl6qkrfdnPGISdUGcEyJAlzohsAsdbS5yZEJp/l1jVLYaRzP1YTlPL3LOnTtXK3ue/6l+ZJvNj/7y1dt/8tofXr2swM/87h+/9vrt1994/Y27nyRJcvf6r7k4zp27/NX/+Pprf/zam3/y5pt/8ubuG3cPwrxWH7+a3FhL/vOr1Rc5C4FJErAtL23Zm1xc6saGlReJB629sXYqA0XzNpUm1ynLoYmmupiPj4+1F0K4C7YmbeQGE95YKX5OmT1uh8DkCJhc0SYf6hDlC6r3xVUmbXeN1KVWRjXSSY0jVN5iTVIizUYfbJlrYdxBvuLNZtPcZSuj5SQE5oQAXWrY1c5JpcxJNpy7mnz6bcmNNkQqTN0UsjuuyNm+feA+n3zyyd/7j/9m/93e9rrnnBc5vl/Z++r580888YQU0blz557wn3Pnzl3dO07eSed3NuSxdv58Jpyu3ilkt+LrveQP1pLX/0vFFU5BYMIEbOVMuH2TRlXLL7cJd1qTKNJ6ALmuaaJ1Qj9wMtcq3edsOwSJGb1OxIwn210tHAlWbGXxM2HYRA+BMQnoibUOUbHYjmShN6YuaURgvC51zCxmt8ntvNvtZieivxI5kmrh/h+aiW02m9ZydZuZjOUyRvHyBQLzQYAudUI2wHxU76ly4XZXs639u/4zDKxxRY6THxrQ1VB0aAMlyR238mZjY+P5n2Z7Q/1EIueJJ57QFdM5V/f+4ZXf0Dn3/7lz584PKXL+8kryg63k/l8nP1xL9naTP99KXv5s8umpIHIzBE5PQK9LL+yoJlcZezeODuzrME117IzJYpOXTsEGsjjlvm/TUK1WS1mydZ/hCLFFGC2rs7g4gMAiEAgFQ7gGQDLD9jzUitbhu9TTFL2+S01jlTDTb4u2NlHDtBmegrN35bK60+SQeyEwfQJ0qdNnPocput3VjvxnJINpXJHz5D+9fPlzn/vc/+4/n/Ofy/nnwpNetpx7/icasT4+/unVJ544f/78E1de/uj4OEmS/d+/4r4+8cTVF//NRWmcL93821/84u///u8/+uijV39LXm0DZ3LeeSp5+ZHkO2vpvxuPJP/hs8nftuawbsjSShEw40mTOTaYqjcSag3A1LxHJEhsO4SCDaR6MQtJQ9eazLGZJe1WUrhRogiRs1IP9vIV1vzQ+v4jBzatrJPH6Rhd6tiU7HdjwKI+rVXQb4he42PDFhqPULYtD2HTHskwsBg4gMDMCVjToEudeV3MMANuTc4YyY8ncs75j1SKHM9siiaflNnYOPe1tzSx7kSOXNS+8Pv7R0de5HzB7aV2/vz/+tnPeue0Cy++46aGtIbnJ88PIXJU2veuOJFz458kH49Rem6BwNkTsImOw8NDM5js7TfjtdOxcymrSM1Qk65lTxgzjyRsut1uo9FQd2Jl0cYhlg0NrSFyDAgHi0hA86vhfiHamnmwj/ckSqq+T9uQapSh1WrF/hEuWQkbGyjRhiUKZt534Soj61JxV5tErRHndAhYN0SXOh3g85nK2njZGlfk/C8X/LzN5z73uct+SkcH2VxOOpPzxNf2MqedOxI556/8u79tNtvt9s//3RV5rH31zebDn73+b77+vf96/3/YaqKfpnu4DZzJSZLk4991uw689i23LOfm1cSpJz4QmBkBmzYJ927q9/vTHA8uFF6TM5rm1e5tspAsmPJs3vy23kaKSOuFNPQQjm2bq8yUNZtlmwMIjE1Aq+PkSq2mKuc0zefM5JEOV83ZbgEFZaKFN1mX6sYEJYe0OEf+6jqjMFreoH1Wy3ppbHrcCIGpEaBLnRrq+U9oqiJnY+PqT4+PNdylAaRGoxG80CNdk3Pei5ye+/xE7mrnP3vlK9e+/vVrX9/+4j/VdNC/frP16X//wb9+6okn/ucrv/+++0Hu9/vDiZyPk1tryY2nkkaS/M2/cPM5f/rX819P5HDJCNh2AlpgI5PCNlubmltaHVVbbGCDYYURYvME8O20J48dDZjZK+FtPFgjx1I45Z0V6vLAeQjMA4GwqaqdaobTJi1nmEm10/ou1WVNs7Kaa+r1XFNttVpqquo3pZS0+s6aql2aYelIGgLDEwjbqUYi1Fo14kaXOjzJJQs5DZFzfHz80+fd3gAbG/kciw396sfUY3Uix03UXP2RfmpbrR//a+/WJg+3bPM059p29cef7n3tf0t93r74+3/Tdm/eyN7Gk6dSXVtHnyYf3POXPk3u66A6IGchMCEC9lqqcOpj5j/ElRnQ0K+ki9HQsgS9Hkfqpek/h4eHoYyRzlEAmYaMDRtDDhaCgK3AUa+kTdtnMm9juGTP2VcdVHWpuS931qW21E71v8352Mi3fo6kiArx8xUC80yALnWea2eGeZuUyFEfoN/iTqfz1vPpNtDh2puNjY3z/hOqF7fk5ms/0mLrdnvvqn+djsRMGOzqW0nSv3v9/0hftnP5W3eT5MHNLyr6k0TODHmTNASyd41rnCmYyZwBGmun5vdiK5LD3NjLAc22sxeoq6lK2NhrN8pKRkPOYZwcQ2AhCGiWcuYLyaypyglCq/UKAO1liParYi+nyrpU5/Jgm6dVNnZr44XI+QqBuSVgKl36fIbPsLVTutQ5eVomInLMlUUvOG82mz/+mr3EJpc5cjzT1s8mYNxMzvM/0QiT23jAB3/iyr+/12q12+2PXr6S6pi3PMD3rl9O47t8/WcPbn7Bf/nCzQdzQpdsQKCGgP0K20FNwAmeVsegJTetVkuDuwW3NCUvSRNeOjo60rodTf6Ye5utuplgvokaAlMkYFbLFNMsJlXuUjWzWvj1UDDt/2HZVjvNutS0pepNVuFmA8Uk+Q6BhSJgbcEOpp99utTpMz8xxbMXOdpzyRY1ygP4R1fdvs8bG8+89MbubvbvzT95843X33jtj197/fbrb/7Jm7tvvPSMd1c79/xPs8c0e3POF/79vh9/+uj3Y5GTJO/+zsWNzauvfNhxMzmInBMrnAAQ8AQ0ziRto3d62HLkfr9fgGTjwTb0a6omDKmfePOBCS9xDAEIjEegskuVp2hhylQNMHzdp1Isz6NqkKLSPXW8THIXBFacAF3qfD4AZyxyVM36kdWMubZq+fHXnMg5d+6rd2IM5u7vA6fzNhvPW6hc5Og9OQ8KMzluWWWnk5pkiJwYLt8gUE/APFts/bTO2DbQ4a32833i0G/ZnArj4RgCEBiJQF2XqsUz4ct2FW3cpda+H4J2OlItEBgCJxKgSz0R0UwCjCtyrj34R9c+0taZNg+eJImNOZlPcOJXIOx9zS2rOXfuK3/8i18cBJ9fZO/x/Pjjj3/xi9vb8j0ri5wLV7ZfuHbthWvbX7ygIG5NTvFzN/Vdw12tSIbvq0tA6+LUVMOBW/mrtFqtbNbUrVEuu6UZOGvaTNQYEw4gcFYEwnY6TJeqedfCxu7qbbWCrnzprLJKPBBYZQJhU6VLnf8nYWSRoxGgX/rGR7/82/ebzaZ2ojQnFhlJegOgGU9JkvzkeSdytPxGKsX+d4tw/MfOVMzk5NfSI4mcB2/s3HxV/m+3XvqNi+m1r9zuzD94cgiBSRJQO7UZmEP/abVa5oqmpTjtdjvMhZRMvLF7er3s7h/eyDEEIDAeATVVG0QYsksdsKhGr9wNG/t4GeMuCEDACNClGorFOhhN5NgrAv/xb3/wj6/d12bkevGz5s1tz6VwJseLnHPljdSkSbT9gG084E6WZ3LOX7jo3xh6MZ3I2Uhnct7SxgSputGfy9++u1h1QG4hcLYEpG1s61u9fkevL7SpG9swLUzalEx5LynN8/D2jBAXxxA4JQHrUm1/6na7PUyXKt8YKZlwPFGTOVplV1ixc8qscjsEVpYAXeriVv1oIkejR81m85d/+4NfuravxYvdbleLIG1vynB3F6H5yfNuuub8+a/8fx9//A//8A+Bw5o7/EX6+eNad7XMA624JufglWcjgbPx5Jdu3iuuml7c2iHnEBiHgEaF5bUvuWKuaM1mUwMQZXc183XRbrNld3/5o46TIe6BAASqCFiX2mq1er3e8F2qjSeWxyPUkDXwXJUm5yAAgdEI0KWOxmueQteKHI0waUDIzB39Ih8eHv7ytQ//0TfSjZptctyMJ208YI4xx8fH7/2n3/76ta9//dp/+qtWK/RijFHcfcUvvLn2Q5uKObirrdj+7F7qgdZ4KIH0MP2eBXhjd/edewef4qcWE+XbshPQxh7dblfvdTZv/k6nU9AqmqVR27RpmcJGtLZ0stlsmg/qsiOkfBCYBoHBXWrY3IbpUkN1VN+lTqNcpAGBZSJAl7pMtZkkSYXICQ0ge3WGBIxeInZ4ePhLgcix7WW10tEkr97KpBXPcmzTRDwLl5fsGaI4syIg3aJX06iphlulyQHGxhrcToT9vtYryyqyyZxerycLTBu+25pm3F1mVbOku0wEhulSQ5FDl7pMtU9ZFogAXeoCVdaQWS2KnIJbS7/fl++++f72er1Go/HL137+j659pDR0i+3NH8agZQCNRkOCR45theU6Q2aUYBCAQEjALKF2uy0vFxMn8lQpv5dTgxS2r4B91RqARqOhCRx5wijaMEWOIQCBUQmEHaJGEyq71NDrjC51VMiEh8DpCdClnp7hHMawVlizKLvHHPdlLdmqG9lSrVbrH/s1OVYe25u/2+3KIVhTfm3/karRyi0zsOxeDiAAgRMJFDzszXKSFNFVm6jRZKmmZcKdZNUGm81my3uNWlPVRGu329WN8pZB5JxYKQSAQJnAeF1qYTM0utQyWM5A4AwJ0KWeIcx5jmpNq5Ntrtw2sjzyn16v1+l0Wq3W4eFhp9PR1gLdbvd/+u17v3TtQ/s1lwKWe0x4UpGo/EdHRzaTM89EyBsE5oeAxIzaYKvVUhu0oQed0bb93W5X7qC2nKbX62kyJ/Q6swZuE6q6XQ5sirnX69nE7PygICcQmGcC1gmO16UWduux2MLX71pTFQe61Hl+HsjbfBKgS53Peplcrtbk4mKGkQ0G2yoaGVJmXcmzX9upFYynbrdrllOYYzPC9OvPKskQDscQKBPQD7GtVNaMaKvVsi09bGLdmqfCqA2qYdrquLBVajLHJm3CpE3hmJ+bDViEwTiGAASMgLwbtF272iBdqsHhAAJzQoAudU4qYvrZWDP/NLmoSeTIO1/2k1lIsoGkWOTxYruuVe5ZqZA9/9FQtFbmYDlNv5pJcbEIqFXaQIP2ltXMjM2xaL5FW6i1223bckCNUf/by3DCRmcN2ZjIUOv1epoOajab4QoBC8YBBCAQEtCQgdqpNiqU84LetEuXGrLiGAIzJECXOkP4s03abTxge8tqfFdOZXrrn2XOJsplIWms15zcLFh4IL2kV63bi3TCABxDAAIiIBGixqXX0chHtOCprzalk9oewOZgjaSaqiJUGFuBY2HCA5sU0qvW9b6OUBSFgTmGwIoTsEaqrtP0TGHxm8YX6FJX/Gmh+LMiQJc6K/Lzlm4qcvr9vkaItf2LtqO1zWc1XmWjxfpxD33VKkulzkDLeMKOoTIwJyGwggTULmyXDlMjGnYqO4VqPMJebiMDK/Tal5u+7YUovXRiU9Xws62gQ+Gs4KNIkQcT0NiBuaXZAJ+6zmazGb4aQb4xdKmDkXIVAmdOgC71zJEueoTpFtK2l4uc0+QJo40E9L88WMLf8SFLjsE0JCiCrRQBmUGaEdViG9vBWU1Ge7WXtzjTy20kbGwXAWuqOjALbHikDEMMz4qQK0VAAweFphqOR2gRjvl1Cw5d6ko9JBR25gToUmdeBfOZgQqRYw5s9rPebre18cB8loFcQWCxCGhUWPtwdPxHi2EODw9tS+jwredh6UKRo591WxKgdqoFPOEtHEMAAmMTsAWlnU6n2+3aVodSNebsHbqrqQ9VB6qVq+FLBjUSQZc6do1wIwQKBOhSC0D4agRSd7WjoyObW7dr8qLp+w8TMoaFAwiMREC/v+GmgrJ4Qm8082/Rkhi5mcmcCo0nWz9TOKl92MaYaB2pIASGwBITMIe0cFbT3hllu+yYqjE3Udur3RqgoqJLXeKnhaLNkABd6gzhL1zS7mWgEjPsDbBwlUeG55yAGpdmabS1oDJsbmZmFYWLmDudjr7atgE2ZmybDRR8Y+acA9mDwJwTCCdFbY7F9EzB/1Ozqc1mUyMX8mfTFiBq0XSpc17dZG9BCdClLmjFzTDba81ms+E/2k6NGZsZVgZJLw0BDQZrUXKj0dAeg9pSVuaU1uEURI6MJ9tRTW79tumZmqpWx9FOl+ZRoSCzJSCzqdPpqB9UU9UW6jZxWhA5ti+IzmtjHt2uPXvoUmdbp6S+fAToUpevTqdTojU5GVe+HHA6OSAVCCwZAduCSYtk9IJO7YSm9cqayWk0GqHI0Wt2ZSSZH79sLw0Sd/2ncMuSoaM4EJgaAU3UaIWM9g6V26c2EpBHqMYdCq+NkvhpNBq2L4j8vXWGLnVqNUhCK0KALnVFKnoSxVyzLZ4nETtxQmDpCYQe/CqsvVHX5mQkYNrtdqPR0MYAUi/hCLEty5HjqO2xpuXLtjSOOZylf6Io4IQIqKlaC7IZGA0iaKd1nZTy0UtytbTGXqhg6+W0HaL5p6lFy9UtXIA3obIQLQSWlQBd6rLW7EzK5UTOTBImUQgsNAGbPe/3+5qrsaZkXi62z6zW2GhXaI0K2y7ttt7GXnHTaDTsRjnGlN/4udDoyDwEpklADmmapVFTlQixYYVC+9Ighb36xiZ2wrt0UmMWUk32rjn7HZhmGUkLAotOgC510WtwPvO/ZpvGzGf+yBUE5pOArTa2JTfhKzgLS5MlcsKdmsytX9upSSlpvY2W65j40avT2+32fHIgVxCYZwJSOGpTWm9zeHjY7XY1b2NbgHS7XSuFBilarZa2ALG2bMMTbf/pdrsFjzVtCk+XaiQ5gMDwBOhSh2dFyOEJrIV70Q5/GyEhsMoEbNsl2T02CRP66Ms5rbCEJtwV2lbm2JJlLY2TqrGGaRvU4gOzyo8cZR+JgPmkabVMq9WSsNFAg03dmMeatVylEja6gu2liVY5ncqrzaZuwtY9Um4JDIEVJ0CXuuIPwOSK7zYe0JjW5NIgZggsAQE5t8gY0haxajsyp+R+JhcXzdtooDdsX7KozMVfY8y97CM5ZL/1tlzHFFRBLy0BUooAgUkQUCMyVSMXNTnD2NSN7SVQ+dZdm2i1CVU1eTVWDTeYf5ot5pGfW9jkJ1E64oTAchCgS12OepzzUrg1OTboNed5JXsQmCYBiZBw/kRKJrR79DOtN+Foi2dTPrKBbHWNcm4eazb6K0VkbVB2Uuj5ZlrIwkwTAmlBYP4JqBlaA5GS0XiEmo8UTq/X02SLzcao9WnnQxtW0Ek19sJJS8IGLEJJo2zQpc7/A0MOZ0KALnUm2Fc80bUVLz/Fh0AdAU2haMTXjCR7140sIdMkcsdvNpumamzMOPTRN1Fk06eKWb/+2ihTiwHMnKrLHuchAAETJJ1OR6MPOmPbowmR5mG0UaH2DAjfN6VVN+12O2x0av6hYrG5IO1hoCYfBqA6IACBAQToUgfA4dKECCByJgSWaBePQGjiJEki06fRaNjkTGEmp9/va0Gzhnv11TZcMnd/c4ypJCLzq9PphLZXOM9TeRcnIbCyBNROrbXqnbnh5EySJNobQO1I3muh7LHNPBSJDVUMUCw2PKG5IHuflWVjZauDgkOgjkChddCl1oHi/OQIIHImx0htWqsAACAASURBVJaYF4mAZlFCQSJJE74NQx5okjS2eMbGj20jgdBPJhxgrsRhm0RraNlmeCoDcxICK07AFIu1O4kcqQ5t16Ez7XZbk6hlH1HbMM1UTa/X07YfA/DaXYpZEzsDwnMJAqtMgC51lWt/fsqOyJmfuiAnsyRgL7exbc00visXF73jT3M15sCmrQVsiY4kkEaUbQjZ3q1RVzZzVDvyn8LQV91di3B+b2t9ffPG/iJklTwuDAG1F9vWTEpDE6GavVH71RltDK0N1mz/NBtWCP1CFe3g1mdLbsJ1egsDjoxCYLoE6FKny5vUqglMWOTsbo1s5dzf2by0M9gy2r+xuR6H2b+xubVbUcK97fX17b2KC6c8tevst537USzlXKWX7+9slgLbnWPl0JmPFeUaAp2lWziozXwhXP51f+dSpQm7t1Vf2PzuEY/i7NUUP4hzb7syb0GIqkOvat7c+sxnvvwnXRk0Hf/RfrKdTkcbDJjI0VSPTCUzs2z/pTSF6tp3Rah8YqvytZDn3IO9vjWBtreQNMj0GRKwSdR2u62pGJM03W5Xu0Xbq2ySJNEUq3SRtVN7ge9gYXOG2SYqCKwaAXMENY/uM+hSVw0i5T0dgcmKHGebmsnrhMGgT2rz3d/bulRlwQfljE1edyFKKAh5goQ4KUuW3YI9Ws5AmodYeqUZub+/5zhUm92VOfTFscSLxqI3H4snXVrOnl7P5J9XAmEcFce5DVpZIgNZdbVO5LjzWR4sgvSgVK6KPFVZxlFaWfGDe4vY9/dvOBFhFnZ9upFS9atofvTlxx/fet0ZT703vvz4448/9thjjz766OPBR2e2dp3xpH2ZtN9A6OqWl3wckVMpgUav0IDQiYd+MGKYJMKYtvYSX93hObX3ypZVrKYcEkcQGImA6ZbCvI0ZVZI0clfT6jhb86bX7+IXOhJwAkNgDAK2CaHGI7S9oeZUNWJoe4GoPQ7VpY6RD25ZYQKTFTlJklQa8SHw1GYN51u8sT5gCqjK5vYJBXatkjhhRN+ZYrkp7G6pMEnLFmdqc9ebzrnRl6sjX6j8a4bgRD7FwmbxVN/or1ZM8lQXLcuEVGK1DSrDd2vv/n48vRYJjzyiJEkc1Ug8RFcHfynXSJzz/Rub0YPhyxudSeN32TPaRYYK4+61fKa1fHy8t/XYY1++3dC8jcZ9j4+Pf7z96OO/euN9v3ma9ndOklQSPOo/jz32WPFZqkjFCl9+qLJ8Z3p4/37M2ydnJbKI8oNKdPllfzTg8SiEjL56JRO20Oiq+xIRLqdSW02liDgBgeEImM7RchpbgWMrZ7TIzSI7Ojrq+w9TN8aEAwhMmkC4AU+327Uu1fSM7VKonJhTKGveJl01KxL/xEWOphcC48yZd6lVKmOoIDM8+MxmSu3IXDSUj3LTPLNrnbU38GPmWtkudFkyw1fPQMkerQjjQmZ5PuHJccEGfsTKBfP5jKMN6Hmrt8K+LxdKOarJti7GqaTn3JxMrVdVKHJOqiYDfgIbCaRYdoZgd7fiOaKTje/60hUErdXy3paft/nMZz7z+K/euOc3PTs+/nDn0vpT3/15q9UKltykt6S/xaNht+QCInpu8+c5uOQOT4Ls68omrwo3u69qbrXxV9yRnTqZczCa4PMZ1fjJt2cJ8RcCwxKQ8SQLSTue2bxNp9PRfiGdTieMDrMppMExBKZDQItzQn9RDTTYfqTZuGGaHdrpdOplRVKZvMhxkzmbW7vZsLSbEDBzrSAnhmVeZZFX3hsa4grgks6FgczKgZJDFwORVitmhs5VlNXqCRlZ9t5SDAKUjcW4OFHEpS8jiJy0gsJSB9FZ9aXgtnbdmZrA8VTeUMALIieLXDb6wMra2tWEXhjIxRZUTRZbPEEkCeGL4AO8eRQ6txzd+96mK+Bxv98PtmAKokrnr7b2BhcwN/2je132cj/DgHR0GN0SXdEXl3QBXRAqz9jmzn0XVd4KglA1h+UHrxAwz5sry/aO5HFYDflxDqEQCV8hMBoBW5wjqaNtBrQIR0tu8EkbDSihITABAtrVI+pSj47sRXNBlzqBtIly5QlMQ+RkkJ0lNOBTY3XtbZXGngObNYu7+u8wIie2CyuUQG7A+UR8KTJDzSmQ2o9iLuchymugYYrnBSQL4A3NEop0gD/LTxSFWd46W1G0PHiG1KcywFYO7gg2HsgReSAR0iz/+Z2DjsqWujuzuXN/f+fS5k680iaOOc9DFr8viyeTlS6dD0n1WATEbvcHbx7L6eVvvv3U448//uijj1ol69hXjd3iEyznXPmIUsmyZr5nXnvUPPkWWAdxcoWLhbqOr/pK8evc8sy42GpEUc4ti6Z8Jrvi/wZ4dd6FzwoVHseKN4qDLxAYh4Dt26639FoUDAYbCg4gMHMCNu/aaDTCt+4Os6vhzDNPBhaawARFjjN99ElN89hKi4xCs4Rke3n7S7ul+X0IMoMpRV0wqlIbrsJoi1N0d7szeWxRHnzkuRVo1RpH4q1SW/QS29l2S+B2dX9vz5nmdQZlndlnQNKD2oR8mu7qb/yrDHcwqRIWsKJoeYYLSPMLtUeWwyCESyLAG1wZ9jDMsLvHpZKv8Amv+rSC6aO4mmKjPyhdECwCYufTAw0S/+3/9dTjv1rYBdkKbrf4woV5C0sbpWIX4nvt9KADd8tJn0heusg8pRxgITMuz+VNPjzzSDaXz4QZVR1lWXM3GqK0Bq3FDX6Mw0g5hsAwBGyQWCubh7mFMBCAwPQJqEttt9s24zr9PJDiChKYoMgRzWr7MrZBY6soHm4vhnSxBnEGVVa2Mt2ZgkdcbFzKyMvMswF/M2M6s+cyE9AZbbWf0OL0Fmp2V5DpQSLHJxrai77g5eSiaMsFzLJRMHDDTNQhjcPE36KM6ZKrl5pZIH+pnPWBZ7b3/B4GBZEz6JasmvQI5VUfPDABHwOSKoFyzFvf+262WXn+dFnBfZ1GN3nUhYVDlkqEL8hGdH7Al5NuyXOY1kbqMxY+HhWZ0SOds0qFZXiXpGZ0JsinGpEfyHCcXTDFGaHJv9TFE0TJIQQgAAEILBkB5leXrEIXojjTFjm5rVM6suHeYIGEGHqbKbCNAps1gFw08rx+KPp3xZZidIsss2xX3Dy5/BbZcOFodHgcZCWYyYnO1qiUIop01UR0Os9PHGPxW55bdyUsYMmU39odMj9hRswadrg2t7c2109aiOLuzoRWMbc1ejUN5l+5sxtsBZEVx1VEUb5GUXvxubmZbbAWPDABnwqLP4okktNZ0oEgD6IKUO/f34lmC6NU3C2jfYat9zjnquvyvVFm8ls8T6ujYnOrEy2+wWYlKomcrDn75ySbDKttL3leOIIABCAAAQhAAAJnQGDaIicfa8+txqJPS0nkFDbCqrGMowhLnmliVWPkZV49Zud5060okNwOCjv3o7mXWqOtmBl3V2b25dXmbXFLND8fH6VGp1miduCDuawGMbuv1ZDryu5jCWRAWh3mkhdnRt98luK18q4sMbE4zupofVlMOPnIDd39nc3tPV81YQAlLWUVoAtK57aZvuRVkHcUTLWc8uaCZXyCW/IyxifzIliucl+setQucJbnOMIsofK9WfgsRP7XxTbaJ3ge8miGPkqftyB8+Ux20U9buddAIXIyJPyFAAQgAAEIQGAeCCyIyPHv2zHbPTc9Q4S5GerOVuuHKovThywa6NnodYXp6cJnY+TpvdUmaGCCa0O57K401954tUKFRYmPnYnpzFaXeW+gh6UI7Wlf7rMQOZoCqii7SyFNPcuV8mp5y7MeB8jOi5iV2oucnKe+bt7Y27+f3RAUNrvqdupTPLLmdX5rd9/dJW8xexhiKzxTsyWMJl2C5MabyVG+c00bR5iVKhY5g/3BsnuKf62MxQv23YuT6oczOBtL0/TJj55VH090xpJwB44/IidCwhcIQAACEIAABGZMYNoiJ7CtiofB8HPBBCwyMqMquhDYfKE1HIVxFmeuPRTMeVNtl7ff9Xlw54M1IT6uosipNP6CzLibCl/dKRe/iSUXoBiPD+DCuA15PRyzNXP94DITGakZuvs7O7txutXWdoqnjLQUcxoy+5PnIZMcsShyRY7PZHf6sqe1oHR3tte3dn3pyrek2fZX05Jmxy6J9GOqSbNtVcBd8nmNa1sLy5LBCQ8u7dgcRRChFTxDrUgqqthfsAgtLXcQ35vtEGCliMLal0JUdSlaeFNu+ZniUbnez0rkZDVT+lt8zotZ4jsEIAABCEAAAhA4PYFpi5zcjItMNDMcVaKSCRgXtNr+ziJ0V0P9ENwb3OiSyNeKZPeGYfMpEWdc5lLHRZIZauFxcG+sLirG6b2ZHsotv5Ajija/msMxkzRLtwzKn7nhM5wu3M9EXcFEjrKbD8YHpz2irKTBeR3mucouCan0mDsOVGsWJPirsmQqoggkD1jItqupNGYplsgbzW6rqFDzl9vKazYLb2DDear1QOTkAXLl4FGbWKpO0Sa+spTSv/G9/qQvTp0sdCGCp9ff4FH4Zz36L29ieVbTVMt/gnLZRV8XUb2Xz1hgd2CRuAN3o19Mlc7FRc9J9txGt/MFAhCAAAQgAAEInDmBBRI5qQ3tDboKW9DbiFt7XpBE5nVkC2YWfwyyaD66qxVmqG4KDTV3XPvJ0vJZCkxPuVqViuDzGeU8zWRgJrow7sa0sO5rlooC+7ScepPxHQYoqIU08iyNzOMoOq3YInvXrge5snP+IGUSzS+FIbzFnK3nMfu4agLB32XZ9nxs2kpVtpMKTldZEbqw4Ja4O5lu6pBXh/Nn+1f/pxHzyW1eSufHsuz5PAfzSD6t8IHUQxDXhdK1/Fs23EH10+XRlR6MPJ5cabtzlWWMUqmtIwuVFdBOmBTcC0754lc/Bi6UfxqzZlCQ1rHQcgWsjydIkUMIQAACEIAABCBwKgITFjkyTMs+SJbnNEAwqSLDOjOCLeDgg9SwLli6g++xqz7F3OpNz1eboemAemao1RptgQHqTUAzf1PLOEguM/ozKzG4pKwMlZM010G67kz4tdraTu+Ljd1wJF4Ztvyn4aVJIl3hrljpdBDb61ldhwWM003N5SjaNNv7Ozcys9vXl8Lk/P3J3IAOC55m2WXJxInlwWXgs8/800Ar+mcpKq+vQVVPWCIXocUToTZIaRWEd+ladK+LP3uilFZEwN2RyozsOffZqyhjmHB6VymqKIxLrihHy5KmfGZQJHmlZDm3PMSXokj4AgEIQAACEIAABM6QwCRFjjdqbZ/i3BwckH2Zqs7qkulftg4rbpbl5+LX7YHBWhE6PlVjU9aOteciJzPZM21S89fPEpgJm94ehw3IVFmTrlBVHOrO+wJm1nCcUvFbHq2MXec85j75edFKY8sMcaUQmfgp+Xg6RSe9De05R8ohjzmK1p1WpaTQomJ67ZQb5aZbfGSuRrKcFwWAvzFNKBIYsdldiD/PjOpIGQvqS4Uo/Z/REG8z8YNwyoNPruxamd6elUVtIS+1mkaxLqPvaUmHCJmPJgwXOEqmsB7Ml89nPkDkot28sZ89kFaoAAaHEIAABCAAAQhA4KwJTFDk5BtMuUxn9lzBSCp83d7b2w5M4aGEhNtNOLQjUxO5EHPhq7MCZdUFyUVwZYZGp/QlNosrApzJqagU6U7KhTJEX0MCY2TAkgvM02I0slO3dq0qbT6hytjN7nYx5wa6zloMFYIquy/7m4kcn7pPMZQQJYGU3haKHD1FQUgrrCeYmt0qXYxR+Yztcp96HCzL6gh/MwJFMkEUKualnR+M7+KVCowg0uJhVe0Uw4z03UUYoB7pXgJDAAIQgAAEIACBsyIwQZFzVlkknskT8HpvmWzTTOTk0mgARMmJQvG9NKoRM06iDFCDA5JKL7nIY+108j2EgAAEIAABCEAAAhAYlgAiZ1hShIMABCAAAQhAAAIQgAAEFoIAImchqolMQgACEIAABCAAAQhAAALDEkDkDEuKcBCAAAQgAAEIQAACEIDAQhBA5CxENZFJCEAAAhCAAAQgAAEIQGBYAoicYUkRDgIQgAAEIAABCEAAAhBYCAKInIWoJjIJAQhAAAIQgAAEIAABCAxLAJEzLCnCQQACEIAABCAAAQhAAAILQQCRsxDVRCYhAAEIQAACEIAABCAAgWEJIHKGJUU4CEAAAhCAAAQgAAEIQGAhCCByFqKayCQEIAABCEAAAhCAAAQgMCwBRM6wpAgHAQhAAAIQgAAEIAABCCwEAUTOQlQTmYQABCAAAQhAAAIQgAAEhiWAyBmWFOEgAAEIQAACEIAABCAAgYUggMhZiGoikxCAAAQgAAEIQAACEIDAsAQQOcOSIhwEIAABCEAAAhCAAAQgsBAEEDkLUU1kEgIQgAAEIAABCEAAAhAYlgAiZ1hShIMABCAAAQhAAAIQgAAEFoIAImchqolMQgACEIAABCAAAQhAAALDEkDkDEuKcBCAAAQgAAEIQAACEIDAQhBA5CxENZFJCEAAAhCAAAQgAAEIQGBYAoicYUkRDgIQgAAEIAABCEAAAhBYCAKInIWoJjIJAQhAAAIQgAAEIAABCAxLAJEzLCnCQQACEIAABCAAAQhAAAILQWBMkfPIN/7ukW/83UKUkExCAAIQgAAEIAABCEAAAitFAJGzUtVNYSEAAQhAAAIQgAAEILD8BBA5y1/HlBACEIAABCAAAQhAAAIrRQCRs1LVTWEhAAEIQAACEIAABCCw/AQQOctfx5QQAhCAAAQgAAEIQAACK0UAkbNS1U1hIQABCEAAAhCAAAQgsPwEEDnLX8eUEAIQgAAEIAABCEAAAitFYOoi5+HbN1+4du2Fa9e+tXswPOnG3d1X3773sFO+4+4PfWwv7NwZIbpyNJyBAAQgAAEIQAACEIAABJaEwHRFTv/ezS9u+M/FF/9iBIKdN7Z129P/970k6Tz85GGnn95+53lduXLzwxEiJCgEIAABCEAAAhCAAAQgsKwEpihy+vde+c2LUiSD/7/y8oMYd2f3t3TH5es/S5LkzrXzGxsbT1746u2HSYLIiVnxDQIQgAAEIAABCEAAAqtOYFoi59M7L/6zwdImv1oUOY3dbadqNjZ+7frdJEk+2Hnaf7vwO+86xTPmTM6ryY215D+/uur1T/khAAEIQAACEIAABCCwdASmIHI6D/7o6kWplFTIXHzu++8ehJ+fvbJtczwXt29/EmE2X7VnfuCW3Rz88FlF88zv3d59Y/elL+nb5avf3919Q//evteIYqj6ci/5g7Xk9f9SdYlzEIAABCAAAQhAAAIQgMACE5i4yOn82Yupfjl/8blvXzcxc/Ff3nz30yT59O4r37xyIZNAT37p+rsPCzQPbqUyRqtuOre/kkql+j8D1+f85ZXkB1vJ/b9OfriW7O0mf76VvPzZ5NNConyFAAQgAAEIQAACEIAABBaVwMRFTpIk916+8uTmc7fe93ujPXz3+peerNAnTz794hsPKnZP+9n1y2loL136d65miqgikjBkXY2881Ty8iPJd9bSfzceSf7DZ5O/bdUF5zwEIAABCEAAAhCAAAQgsFgEpiFykv7Dg08OHrx3Z/cH16999dmnf6VC5Dz5K5ef+cq1ay9cv+Vdzu689+Chdzl7+5sXMjHjRc5bV/X1yo278ne7ne5J8PT1vzAHuHzvtdrKeO+KEzk3/knycW0QLkAAAhCAAAQgAAEIQAACi0hg8iLnnRdNpmRyxf89f+Hpf351+9cvVCged91vpPbwdrrlgDtz5eaHts1a7pA2zsYDH/+u23XgtW+5ZTk3ryZHi1hx5BkCEIAABCAAAQhAAAIQqCYweZGT3L3+a6Zunrzw+WevfvvWnfcOOp/c1T4Bb//s4N47t2/+3tVnP3/RFudsfOnWQZLc/XbmqpaKnIO3v719+ckNXVWBRhc5Hye31pIbTyWNJPmbf+Hmc/70r6vZcBYCEIAABCAAAQhAAAIQWEACUxA5ycP37+y+c+/g03jFjTmeFd6K03h4cHDv7gcu8N1veZGTLsJxMzkPDw4OPrn77l89MNe0Kne1g2JahYo5+jT54J4/92lyXweFEHyFAAQgAAEIQAACEIAABBaVwDRETjbZYvM5Qxx84aZ7IeiPrjovtZe1DufKzQ/vpCtyToxAty9qpZBvCEAAAhCAAAQgAAEIQGB8AvMtcj68uf2tu0k654PIGb+auRMCEIAABCAAAQhAAAKrQ2AaIufgvew1na9ef/aL117RKzv/7TOaj7n81Vtucc5r169+ded2+jbP3d0/u5c6t/WTQOQc3LUA2UHVy0CD21enJikpBCAAAQhAAAIQgAAEIOAJTEPkCHXn/VvPbTpdc/GFO+6Fn+GanP69m/7lOU9+/sXdD+OlO3nIfEe1sO4yX7jqq2FIjiEAAQhAAAIQgAAEIACBVSAwFZHTf/jut5+xraKf/NLO3UYsch6+/dLn8+vPfPvdh/0Afu6uFpzMDhE5GQn+QgACEIAABCAAAQhAAAKOwMRFTue9m5rAcZM45y8+9/Lbfme0B3e+mW4PfUW7q/UfvvvycxdtR4HNq7c/yWoIkZOR4C8EIAABCEAAAhCAAAQgcCKBiYuc5OHuVf82UOeK9kmSvHc9fPfNxsbG9mu5f5q5tG1cvOp92nz+ETknViMBIAABCEAAAhCAAAQgAIGMwORFTpI8fOPF7ZffdetwkiTp70bbQH/x5r3QMy1Jks6D3W9evflBlkHW5AQkOIQABCAAAQhAAAIQgAAETiQwDZETZ6Jz78/Szdbefv9hp6Bw4qDpt5+9cu2Fa9de2LlzUHH57g+vDbhacQOnIAABCEAAAhCAAAQgAIGlJjB9kbPUOCkcBCAAAQhAAAIQgAAEIDBrAoicWdcA6UMAAhCAAAQgAAEIQAACZ0oAkXOmOIkMAhCAAAQgAAEIQAACEJg1AUTOrGuA9CEAAQhAAAIQgAAEIACBMyWAyDlTnEQGAQhAAAIQgAAEIAABCMyawJgiZ9bZJn0IQAACEIAABCAAAQhAAALVBBA51Vw4CwEIQAACEIAABCAAAQgsKAFEzoJWHNmGAAQgAAEIQAACEIAABKoJIHKquXAWAhCAAAQgAAEIQAACEFhQAoicBa04sg0BCEAAAhCAAAQgAAEIVBNA5FRz4SwEIAABCEAAAhCAAAQgsKAEEDkLWnFkGwIQgAAEIAABCEAAAhCoJoDIqebCWQhAAAIQgAAEIAABCEBgQQkgcha04sg2BCAAAQhAAAIQgAAEIFBNAJFTzYWzEIAABCAAAQhAAAIQgMCCEkDkLGjFkW0IQAACEIAABCAAAQhAoJoAIqeaC2chAAEIQAACEIAABCAAgQUlgMhZ0Ioj2xCAAAQgAAEIQAACEIBANQFETjUXzkIAAhCAAAQgAAEIQAACC0oAkbOgFUe2IQABCEAAAhCAAAQgAIFqAoicai6chQAEIAABCEAAAhCAAAQWlAAiZ0ErjmxDAAIQgAAEIAABCEAAAtUEakXO8fHx0dFR9U2chQAE5obAkf/MTXbICAQgUEGALrUCCqcgMH8E6FLnr07Gz1G1yDk+Pu75T7/fV30fHx+Pnwh3QgACkyFwdHQUNlXa6WQwEysETkWALvVU+LgZAtMiQJc6LdJTSicSOcf+kyTJ8fFxp9NptVrtdlsH/X4f+2lKdUIyEDiJgBqjLKd2u91qtdROu90u7fQkeFyHwJQI0KVOCTTJQOB0BOhST8dvfu+ORI4NCXe73Waz2Wg02u12t9vV/9Mynva21te3dnNk+zc21y/t7PsT4XEegiMIrAwBOb10u92+/7Tb7Uaj0Ww2O52OhiT6/f7KwKCgEJhrAvPRpc41IjIHgdkSoEudLf9Jp75mFWzzNl3/0diwbKlut9vpdEZeorO7tT7qZ3svub+/f39n0924tedLHwqb8DhAs79zaZiU0giDGzmEwGIQ0JBwr9eTmLHmadpG5lS32+31eotRJHIJgWUkMMEudRlxUSYIzIQAXepMsE8/0TVZRZ1OR4PBspls9kaCR1/PzmPNzdXY5Exdmfe219e3ncwJhY07jj+bNzTHk0XjlFVZzHgVlE0HZUH5C4F5J3B8fNzv99UMe71et9u1wQjNr6ptSvxoMAKPtXmvVPK3dAQkbMKBhul2qUsHlAJBYDIE6FInw3V+Y12TzdTr9Vqtlqyodrutr53go6tn4rHmhUpZh9QyKoqcwVqlUuT4qaHQBa42MS5AYJ4IHB0dyXe05T9SO5pWVTu1UQk1VnmsnUk7nScM5AUCc01Aq+PUSKffpc41GjIHgXkiQJc6T7Uxjby4mRxTNRI5nU6n1+uZf7/9fJ+NG4zTG5s79+vK5qZcCpMzo4ucYvxuUqhieqcuD5yHwCwJaBpdQqXf70u9HB0dhcMQ/X5fMzm6qtkbBW6324icWdYfaa8MAWuqYS857S51ZWhTUAiMR8DaaZIkdKnjMVzcu9akZ/S73Gq1mv4j2SOdY3s3HR0dndp48o5q66kfWhW1/f3daEFOhbvawJkc+bNFMslP40RnqhLmHATmgYAm003YJEliK+LUHuWx1mq1Go2Grcxp+0+z2VTL1W/6PBSHPEBgKQmoiZmekbuahiGm26UuJV0KBYEzI0CXemYoFzOiNbm72C5qOtCPtY61JMDWN59m76a97fXNG3tukwC/2KaemF9Cs73nZ2DiJTgV3yLPN4mcaMFPvP8BaqceO1dmRkB782tAQdLFlsCF623UJKVzZGBpTV273e73+7YtgYKdekhiZjRIGALzScAMpna73Ww2W62W9uax9y6Y16jaoEYf1GBN/JxhlzqflMgVBGZOgC515lUwJxlY06+wVE2n0zGbSePHNngsi+o0xpOTH07bpAImGWudTOi6VknQb1ewVdiEOg05VoqVqXASAqcnYIuVbaDBmluv1zOJoul1OfrLqJLNpPNapaMb1X4ttpG3Qzx94nWFVAAAIABJREFUkYgBAstIwDZMs9fHqSvs9XrWysxjbWpd6jKSpkwQGJ8AXer47Jb3znTjAfNPC/eMDnVOr9fT+NN4Hv+BOMlETpJI50SzLjWg97bTN+cong/NxfL4OL4jXdITJJdfZ2VOzoKj2RHQD7EmXiRX9KIb8zQrZM0WStpsqjnJ2HZq4RiEYtawRSGq6X81xznTbNPPAylCYDwCmrexjq/ZbB4eHmqgwbRNGLMWzmk8YtJdapju6Y+DHrXQpZ4+bmKAwGQJ0KVOlu+Cx+7c1eTlonl2DQbb9Hpoo8jY6nQ65kgzZNmd5MjX/Qcix9/vrw7abMBroc2tXbdVtFcv37vvPXO679946tGtvUjn2ItE7SDLIytzMhL8nS0BzcDoZbtaAqe1NANkQL/fl2gxVWP7DWjYOLRRjo6OFL7b7VaaYtMpvrIkxaUB7wEFnE6WSAUCQxKwIWG5pWkYQq01nGUtxHZ8fKyGOekutZDuKb9Ky2nboVE791Mmze0QOD0ButTTM1ziGJzI0eyNjTyZ4aXZG/1eyw4z02p4eyVWOE6nVK3J0YYEtromCuM90PRe0OTDG5uP/+qN95vNRuNvvvOrn3l86/V2u51bcm75Tba1WryXNNM4S/wQL0TRZDaFGwbIntA+aa1Wa4B5cXR0ZMaTdE6/37d2qgU5CqO9Q2zO5zQr6E5D1Vx3Gv5zeHjYbDYHWIenSYt7IXC2BI6Pj7Vvu/b2kESXi7/eJpf3OKWE1V1OtEstpXmqExJmGnNpNBqHh4dRl3qquLkZAhMkQJdKlzrM4+W2kNbu/o1GQ4aUvI11bP+b4JFjzHAix2uVfA5H+YkETJjFQIcE8zBuBibVLUdHR/e+89Tjv/rde53O/e9sPvrol99st7VKW72OiyHYey1XR37vAd6TE9LmePoEbMS03+/bXoWyqPQYW7OygWQLpldXScNoVke3WAu1BXWK3Fzapl/MJEkst+G7hiXkZpIfEoXASAQ0HWozkGqYR0dHGuwLxw7Mpc3CTLJLHakQJwe2kRE5dGhrhLBLPTkKQkBgdgToUsPfotnVw1ynnIoc2ydaNpPe3KzVzJI3cj6x/WHMGhtQuILkyELWipwsQJJoQuaD437/5zuXHt387ofau8b6mJ9/96n19c3vuQDOjUdO0sfHPy7tN+DTurS5OWjT6jxZjiAwBQLltmO2hUwrWwunKRp7+M3XXw+8LX2WntHgsVlamsyZwi+g9Fg4DWVjw51OJ8yPDMQBo+BTgE8SEBiGgPlph4H1YNuanMImaXrUbcxiEl1qmJlRj8191IqmlhvKNpmMQZfK+pxRMRN+BgToUmcAfXGSdO/JsVEcGxWWN7/Ghu3HUaaYDK/yUzV0kU8WOXvb649e2rnf67X/+43NR7+sVTf6/W023//upccefdQc29xbRPQz/ePtR8NpHJ8fecFF0ztD55OAEJgSgaOjo3a7ralU20VaQww2k1PwWAv3YdO0iULKqcZkzxQUhW3yZoLKRE6ofOSVJ6e1KWElGQicKQE5YWrnaG2zJj1Q2DJk6l3qUIVU5sOsZl1qs9PphD8U1qWGJ4dKg0AQmA8CdKnzUQ9zkYs1G46SaSJho189W67T6/W08rLwazhWCU4UOU6ZPPXdn2v1gvkHHx8f//y7T33mM5957Ctvhj++6WTO61uPPfbY1pv5yJP2M9CGBzrGXW2s+uKmSRHQ8IFMDYkcrV1RKyuMI2iE2MYjbDJHE61yYJOQUFOdjreufjQsRZGSHms2m6HIUf4l5ML2Oym4xAuBsyNgTVUC4NB/1OgK7VSvVNdk7LS61KHKqY6y0WiEXWq/3y83SfOPCNvvUGkQCAIzJWDt1LpCutSZVshcJL5mAzzaPM32+LfhHP3SaZy4/IM+eiFOEjl+/cyX3+hpv05nKt37nvM3W19fv/S995tu2MnGjJV6t7v75ccfz8WPj2F9Pd11OsuhT7d4MrvIXwhMnYBNbmh1vkmFulamOROpGs3kyIGt0+lohsQmc/RbP4UCHR8fS57JVFKKNpPT7XatLOYbI9NwCnkjCQicCQH1jBp0s00R5Yppj3eY0NS71DDx2uNeL+hS+339RGj/kqouNfWPYDyiFigX5o8AXer81cnsc5SLHJlQmn+XIWKrcbQq4Iwym4ocGT3lOLUb2653Qmv+7DtPfeYzbopm103R2JqcXq8X3nj/O+mWa0dHP//epfV8g7UwUHbstzdY968lzU7xFwLTJWBbXtqyN7m41I0NK3cSD1p7Y+1UBormbSpNrlOWTBNNdTEfHx9rLwS5jCqYJm20D1V4Y6X4OWX2uB0CkyNgckVr8dUhyhd0wPvi7K5pdakpgLouVd23Ri0l0mz0oa5LlWt6s9k0d9nJQSZmCJyeAF1q2NWenucyxeDc1eTTb0tutCHS2U3dVOCSj1y32624liS2dlND1OH0ut5aYL/Rut2eb6bXK3lyct4I2MqZcPsmjaqWX24j20UhJYq0HkCua3rmJ/QDJ3Ot0n3OtkOQmCk0TNtdLRwJVmxl8TNvtUN+ICACemKtQ9RJ25Gs3N1oRIAulecHAlMmQJc6IRtgyvU4ieTc7mq2tX/XfyYNSwO6GooObSArnnoR7XCgddiaurERYpM9uqVyDYDFxgEEFoKAXpde2FFNrjL2bhwd2NeJNlVZbPLSKQwrGE+579s0VKvVUpZs3Wc46WoRnsXSPssCBxCYKoFwDC5cA6CRO9vzUCta6VKnWjckBoGAAF1qAGN1D93uakf+M1GDyQBbDzFgBYIcK+X0rHcOmI0l46ng1m/ipzy0ZulyAIE5J2BNQ5M5Nj+pNxKqOUzNe0SCxLZDKAwriGTY7sy/xWaWtFtJ4UaJIkTOnD+KZG8wAfND6/uPHNi0sk59E13qYIBchcAUCNClTgHy/Cfh1uRMLZd65rTBi/xbWq1WeTJHwsasOq2uVjBzFQhdokNja5rFmRo3EloFAjbRcXh4aAaTvf1myg+2Bhq0FEGTrmXnUhtxkLDpdruNRkMKzcqiPdas+jS0hsgxIBwsIgHNr4b7hWhr5on6eFeCokutxMJJCMihWsNqdKmr/DysTbPwoYt/YejXsqH9mkKnHckhrWyWc53OKIx8MbUpXFkvWbQcQGBuCdi0Sbh3U7/fn+Z4cAGO1hVomldL4zToYMGU52azqVlWW28jRaT1QlrrHI5tm/fplDWbZZsDCIxNQKvj9JpdNVU5p2k+ZyaPNF3q2LXJjUtMgC51iSt31KJNW+Son7DeotFoFF7ooSFkDYz1ej3N6kiIS9XoZ11LBewd8HZp1PITHgIzIWDbCWiBjVS6bbY2Nbe0urLbYgObkylMuponQM9/5LGjdmqvhLcpVmundqkuXc5DYN4IhE3VXrGgJTdz0k6VDbk50KXO2/NDfqZDIGynGolQa9WI25w0Vdu6vbwonS51Qs/JNESOHr5CAWzo1yZtwp0uZRXZ7rRN/7ElNybT9aBIERXi5ysE5pmAvZYqnPqY+Q9xZQY0uSp9Yki1LEGvx9H8jBrp4eFhuEGcfrgVQM5vTLcaQw4WgoCtwFGvpE3bZzJvY7joUg0FBxAQAbpUnoRKApMSOeoD9FusQa/CGzz1Zmg5ntlkjr1JQ4utzSFNDjO2/UBYktl2NmFOOIbAkARMpUufz/AZtnZqfi+VrcxeDWxZla9zuHZIznVyKy0rGY1gDcmHYBCYHwKapZz5QjJrqpqx0Wq9AiV7GSJdaoEMX5ebAF3qctfvaUo3EZFj827NZlOzMRoGNgtJOVYwLVa2X3AtBrA9mmQb6bUb4WYDpykz90Jg5gSsLdjB9LOkjkEjCDZrWnBLU64kacJLR0dHaqqa/DH3Nlt1M/3ikCIEJkHA+qZJRD5knHSpQ4Ii2MoSsJ7UDqaPgi51+sxPTPHsRY72XLJ9ArSoRm4thfFdPRDlod/yoK8sqkpfmhNLSAAIQKBMwNa26e2cGq42v9BCeJtitXkeUzVhSLVocysNL3EMAQiMR4AudTxu3AWBaRKgS50m7eHTOmORE6600Yy5dj/TwoPwzYDKorn72/R6ZdbLsqcyGCchAIEhCZhnS7jps16MEy6qUWz2833ibCpNdUj+BIPAMAToUoehRBgIzJwAXerMq6AyA2OKHC220daZ5lqWJImNOYWiRUpGA8aFmUTNwldeqswuJyEAgZEIhE01nAuVC2ir1bImqXmY8q4vSs6aNhM1I/EnMASGIRC2U7rUYYgRBgIzIRA2VbrUmVTBSImOLHI0UmsWjzaNNScW+e7rDYBmPCVJMmBRjd4P2Gq1yjsTjFQSAkMAAkbA3MnU9A79J2xlWorTbrftFhukKO9Cazsfhivowhs5hgAExiNAlzoeN+6CwDQJ0KVOk/YZpjWayLFXBNpmmvJvkVWkDdP0BptwJsc2UpONFYofGU/2zoEzLBhRQWBlCcjFxba+1et39PpCm7qxDdNCSrYXSHkvKc3z8EKqEBfHEDglAbrUUwLkdghMgQBd6hQgTyiJ0USORoW1Z5reht7v97vdrvYV0DvaO51OebjXNpwtG0/SOVLJEyok0UJgpQhootXewKMpdZtl1QBE2V0tnK5ptVrlFXSa6lkpkhQWAhMlQJc6UbxEDoEzIUCXeiYYZxJJrcjRCJPmWMzcMdcX80+T3WP7CoSrJM39TCdtL+nQi3EmZSZRCCwNAW3s0e129V5n8+bXWEOoVWz9mzYP0CrJwt7utnSy2WyGbXxpcFEQCMyKAF3qrMiTLgSGJ0CXOjyrhQhZIXLMLyV8dYZGf/UaMr3U3LzObHvZTqejJVl6V4ZedKjNCTqdTtt/Go0GC5cX4skgk/NPQLpFzU27P4dbpcmn1MYazGu02WxqoMEmc3q9niwwbfiuV/RWTrrOPxNyCIF5I0CXOm81Qn4gUEmALrUSy0KfLIoc22Gp2WzK9JHvvi2n6fV6hZfe6BZ73U0Yg5YBNBoNCR45thWW6yw0PjIPgVkRsMGFdrutF0mZOJHzZ/m9nBqksH0F7Gsj+2gCR45tinZWpSNdCCwHgbBDpEtdjjqlFEtJgC51Kat1zSZkVDzZPVI4tpuErbqRLSXntHCE2F530+125dmvKT/N3kjVyGnNDKylpEmhIDAhAoVFa2Y5SYroqjmbabJU0zKaX1WuzJu01WrpzbyaetVEa7fb1Y3a8BCRM6GqJNrlJkCXutz1S+mWgwBd6nLU44mlWJNiMf972xv6yH96vV6n02m1WoeHh51OR1sLSPPYLbZDmtxj7Cde9pNsKS3dsZmcE7NFAAhAQC3LNklrtVpqg/p1DjXM0dFRt9vVVoe2nKbX62kyx9qgbRJtoxg2JCEHNsXc6/VsYpZagAAEhiGgYWD1p+FSN7rUYegRBgLTIaDxQZm1dKnTYT7bVNbk4mKGkQ0G2yoaPQdmXcmzv+CxZhqm0hVNakc2mYaQTQjNtvCkDoH5JKAfYluprBlRrZGzTZz1ohtrngrT7Xa17aHpGe09YC1Okzk2aRMW3xSO+bnZXWEwjiEAASMg7waNRKgN0qUaHA4gMCcE6FLnpCKmn40180+zRTg2Hiz7yXSLbCApFttF2nJsV8Mzclqz6SCtzMFyMkQcQKCSgFqlDTRIt2hmxuZYNN/SaDQ0g2pbDmhyRv/by3DCRlduqjLUer2epoOazSa7DlTWCychEBLQkIHaqWZv5AGhAQi61JAVxxCYIQG61BnCn23SbuMB21tW47tyKtOAsWXOfM9kIWmsN/RYs5B2oEkhvWrdXqRjVzmAAASMgESIGpcmYeQjqg0/LJjalE7ae28KzVBNVREqjK3AsXjCA1tteXh4KMlk4xphMI4hAAF1lzZkYG1H4wLheY0v0KXyzEBgJgToUmeCfQ4TTUVOv9/XCLG2f9F2tLa1gMar2u22Rov1Qx86+lcWTBablvGY9VYZkpMQWE0Cahe2S4epEQ07lZ1CNR5hHv8aMNZ7bwRQi3NsL0TppRObqoaf9b9a92pWB6WGQB0BjR2YW5qNLKjrbDab4asR5BtDl1oHk/MQmBAButQJgV3caNMtpG17NA3iyhNGbjD6XyNV9jv+yDf+7pFv/N0wxbbBrWECEwYCK0JAZpBmRLXYptFo2NK4JEm0V3t5izO93EbCxtY0W1M117VR2x3DECvy4FHMUQnYrh7aVEDvRQjHI7QIpzD/OWqXOnyuRm3aw8dMSAgsLgG61MWtu4nmvELkmAObWWDtdlsbD1hWhhc5dgsHEICACGhUWDZTx3+0GObw8NC2hNY+zto2IOQWihz9rNuSALVT23ggvItjCEBgPALaiEmNq9vt2r5MUjXm7B3u1a4+1DbwGKZLHS9v3AUBCKh9WY9Jl8ojERJI3dWOjo5sbt0uy4um7z+F0SNEjlHiAAKDCYTr2RRShlHojWb+LaZq5LGmzT+s9dkagNCi0r1yNLWQg7PEVQhAoEDAHNLCWU17Z1Sv11N4UzXmJmp7tZung6IaqUstZIavEIBAHQG61DoynC8TcC8DlZgZaW8ARE4ZJWcgUCCgxqVZGm0tqADmZmZWkcaitMam0+noq20bYGPGttlAwTemkC5fIQCBkQiEk6LmtmB6xlbgKE7NpjabTb1dSv5s8jVVix6jSx0ptwSGwGoSoEtdzXo/TanX5GHcaDTs/RvDRIfIGYYSYVaWgAaDtSi50Whoj0F7BadplYLIkfFkO6rJrd82PVNTLezjtLKEKTgEzoSAzKZOp9PwHzVVbaFuE6cFkWP7gui8NubR7dqzR8cjdalnUhYigcCyEqBLXdaanXS51uRkXPlywAFpI3IGwOHSihOwLZjMj1+vitLbpbSJmd5GFYocvWZXRpJ8Y2Rj2YYEXf8p3LLiqCk+BMYmoIka7dWhvUP1+l1tJCCPUI07FF4bZQ3T9gWRv7fGCsfrUscuBTdCYOkJ0KUufRVProBrtsXzSGkgckbCReAlJhB68KuYepuN3jlj+7DbSW0MoJHjcITYluXIcVSra0J3f8kbVt0s8bNE0SZKQE3VWpDNwMjTTDut66SUj16Sq6U11pC1Lbvar+0cbXM7cnWTG9tEy0LkEFhWAnSpy1qzMymXEzljJHwWIufgzo1r1164du2FV+6OkQNugcBMCdjseb/f73a7WvevHJmXi+0zqzU22hVao8K2S7utt7FX3EgdyeSS8RRuLT3TQpM4BBaPgBzSNEujpioRYsMKhfal8QgTMDaxE96lk41Gw1bH2bvmxutSFw8rOYbAmRKgSz1TnESWElizTWNGQjKGyOk8PPCfh25Vtfs8uPmFDf+5eic9U/rzZy9dLnx+76XSqcuXL7/0dulWTkBgogRstbEtuQlfwVlYmhzucakdCGzoV9upSSlpvY1em2PiR69Ob7fbEy0OkUNgKQlI4ahNab3N4eGhvdXatgDpdrtWfA1SaGNDvbFKt9vwRNt/ut2u/NNsPEKbwo/XpVrqHEBgNQnQpa5mvU+61GvhXrTDJzaGyLnzfEHSmMi5/Kybzwn/ZXM7b13VPfb/lZdvvfQrT7qvFy5evnz5gj988sIFC6CDKy8/GL4shITAqARs2yXZPTYJE/roV6660Us21OhkYGmNsi28CdVOwWMNH5hRq4nwK0vAfNK0WqbVaknYaEtom7oxjzVruSJmbqJaQaeBBg1naKJVTqfyarOpm7B1ryx5Cg6BMQjQpY4BjVuGIeA2HtBA1DChLcyZipyCQtnY2Mjmdj65u/vGrv7d/K2LGxsbTr145XP5q7d239h96Uvu3qv/8dZzmxed6Ll8+aLXO1f+44ki59Xkxlryn1+1EnEAgcEE5NwiY0hbxKrtmBTRngGyePST3Wg0wvYli8pc/DXG3Ms+tuRGFpUt1zEFxZYDgyuIqxAQAbU+UzVyUZMzjE3d2F4C9g7BcAbGJlptQlVNXo1Vww3mn2aLeeTnFjZ5agQCEKgjQJdaR4bzZ0jArcmxQa/h4z1TkfPkhYJPWu5+dvfmr1++fPm5Ww8STQQ9+8MDiZxQGF39o3evf+nCMy/f66QucFdufnhiUe4lf7CWvP5fTgxHgJUlIBESzp9oIU1o9+hnWm/C0RbPpnxkA4XLcrRkuTD6K082a4Oyk0LPN9NCFmZla4SCQ6CSgJqhNRApGY1HqPlI4WiTw1arZbMxan16P5UNK9gKOpvwUaKKxI71axBKGmVjvC61slychMAyEaBLXabaXJSyrI2X0TMVOdm8TUVW7nh/te3bjVTkXH0rkch5+lvvHhwc3P4tP5Pz/dvbbppn4+nPP+3+/MYrBxVRZaf+8kryg63k/l8nP1xL9naTP99KXv5s8ml2lb8QyAhoCkUjvmYk2btuZAmZJpE7vm0SLT2j1cnhCLGJIps+Vcz69ddGmVoMYBZblh3+QgACFQQ0QdrpdGwPgOPjY9seTTdoHqbdbuu8Jl3NVVsr6Nrtdtjo1PxDxaKmqi3XwldahXdV5I9TEICAJ0CXyoMwfQKTFzmNdMMBCZKNje3bfv+Bg4N3r39e8zF2Jr2Q/nnYSRq3t72KuZM8uPlFf5SJHN2p/53y+eSV7XRhzuXr7w3E+M5TycuPJN9ZS//deCT5D59N/rY18B4urgSBgrEiO8ZczszZzGZy7J2eGgPWV9twydz9zTGmEqLMr06nI0WkvQfMy7/yFk5CYJUJqJ1aa9U7c8PJmSRJtDdA6Dsayh7bzEOR2FBFKGkKhG14Qgtv7H1Wlo1CeL5CAAKF1kGXyiMxfQITFzkPXr4SCpIRjp+/k3x40918+frd1A/t6Z0PKmZytl+9t/vNp/0eBC76i8/feXgiyPeuOJFz458kH58YlAArQUCzKKEgkTuKtgSQ9SMPNEkaWyhp48e2kUDoJxMOMFdytE2iJW9shqcyMCchsOIE1O60J6FMKImccHJGZ7SNYaWPqIwt2yRaW6jpjdgD8Npdijn0XhtwF5cgsJoE6FJXs97nrdTzLXI+2HH+Z1+4+SC5e/2y23fg5od3d/6ZtlQzUbOxcT6VThd/87kr/vjitwa+eufj33W7Drz2Lbcs5+bV5GjeKoX8zICAvdzGnFg0visXF73jT3M15sCmPWTDiR0ty9GKGvmz2bs16opkjmrax6kw9FV3F+chsJoE1F5sYZuUhiZCNXuj9qsz2hhaG6zZ/mk2rBD6hSrawa3PltyE6/RWsxYoNQROJECXeiIiAkyBwMRFTpK5q8W+aAcHB3d3v3/r1vdv3fqjtx+UrrkTDzvpHgOXn732wrNO42xcuPJb28/8mttH7ZmvXLv2wkvb/k072689vPfys89++92HSfLwnRef/Zev3Bv0gtOPk1tryY2nkkaS/M2/cPM5f/rXUwBNEvNPwLxWzP2s4z/aT7bT6WiDARM59kJPBZON1fMfJmTmv7rJ4YISsEnUdrutKVaTNN1uV7tFqzGayLHVOCaH7AW+g4XNgiIi2xCYBwJ0qfNQCyueh8mLnADww7+6fmVz+/YnOqVNBTRREwQK9cmPiu/J2di4cv2tt7N9pW/vPP/cc7/53Pbz17bdJmz+tTnP175ZNE/j6NPkg3v+66fJfR3kFzlaWQK26kbGk/Zi0gCw5I2ZStIwNiSs/QZCV7eVZUjBITAFAnINtakYEzlmVGmqR3t+qF3bmje5ujEMMYVqIokVJ0CXuuIPwDwUf3oi5+C1qxflV/bk9m23m1mFyOm8f+u5zSvX/ypdU9P5wPTM7u73r/rJnCs3f/hi8d2f4UKf89eGUDnzQJ48zCOBcLeAbrcr40muLNpnVruo2cYA5sGCg/48Vid5Wl4CpnN6vZ7GICRpbOWMFrkZAO2KNmBrAQvJAQQgcFYE6FLPiiTxjEdgKiKnf7D7gt/ceWNj4/zFaz+ShimInM6DP8pU0Pkr19/r+PJ03NZs77+9+8bb997zmxBsXL3Tv7PjfNWuPvPFZ6//4KVn/F4D197y/m39pPPh7kvfHmLjgfFocdcKEJAnsUaCTeQkSWKbp9mSG8FA3qzAQ0ER546AjCcNOmjHM5u36XQ62i+k01E/kmaepjp3tUiGVoAAXeoKVPL8FnHyIufB7e3NbKrlyWduvm+9Ti5y7n24++Ln840ELv5muqhm96vZjRtXbr6ViZwkefizV3z4i9f+9Hbq0Hbx6p2DB9keaxeupjpqfrmTs7kloHmb0LlFni22h6xN48xtEcgYBFaBgC3OkdTRChxtp6YlN/ikrcJjQBnnnABd6pxX0HJnb/IiJ3l453n3qs4nv3T93eidm5nIyfZG84Lm4nMvu/0D9Hn3dzLHtPPP3HrL77S28fQzvy459OTT39x90MkiMTV0/sIVdz6Lgr8QGJ2ADRI3Go3wFYHDbME0emrcAQEIjEnA9m3XW3otFiZtDAUHEJg5AbrUmVfBymZgCiInSfp3b//g3Yf5jgKdh++/fevb2jDN1MnGk59/cffDSJ10Pnj77fcPHjZ87bylOZurt9+6dvmLL+5+ePDut5679tYr/uzlK190Ompj4+K1P4tiWNl6peCnJKBB4na7bcPDp4yQ2yEAgTMnYIPE2izkzOMnQghA4EwI0KWeCUYiGZXAFESOX1fz4O6dN27f/L2rz37+4oVo6sZJkyd/bfvmOwfV6iTbgfruDf9SUffOnCT59M5Lcm9Lo7py84N7N7/oZc55PxeUC6pRgRAeAikBBoN5FCAAAQhAAAJnQoAu9UwwEslIBCYvcv7iRU2yeAkS/3f+wpXnb975oFrdpMUo7CL9z6+/8s0rqUw6f/G5H+74mZwrNz9MkofvXv9SurDnme87KcQHAhCAAAQgAAEIQAACEFhBApMXOcnBK78RaZsnf+XpZ1+4efude51h5ls+0FKcdJbmxbfeTWds/tk179umNTle5LgNsB7e+b2nL/zGKwcrWJMUGQIQgAAEIAABCEAAAhDwBKYgcpLkvVvXXngEfpxcAAAgAElEQVTp5qu7boHNwGmbikrpH7z7xq57++c799KbP7lz64/uZit87r7ywrVrL+zcQdZUsOMUBCAAAQhAAAIQgAAEVpHAVETOKoKlzBCAAAQgAAEIQAACEIDAbAggcmbDnVQhAAEIQAACEIAABCAAgQkRQORMCCzRQgACEIAABCAAAQhAAAKzIYDImQ13UoUABCAAAQhAAAIQgAAEJkQAkTMhsEQLAQhAAAIQgAAEIAABCMyGwJgiZzaZJVUIQAACEIAABCAAAQhAAAInEUDknESI6xCAAAQgAAEIQAACEIDAQhFA5CxUdZFZCEAAAhCAAAQgAAEIQOAkAoickwhxHQIQgAAEIAABCEAAAhBYKAKInIWqLjILAQhAAAIQgAAEIAABCJxEAJFzEiGuQwACEIAABCAAAQhAAAILRQCRs1DVRWYhAAEIQAACEIAABCAAgZMIIHJOIsR1CEAAAhCAAAQgAAEIQGChCCByFqq6yCwEIAABCEAAAhCAAAQgcBIBRM5JhLgOAQhAAAIQgAAEIAABCCwUAUTOQlUXmYUABCAAAQhAAAIQgAAETiKAyDmJENchAAEIQAACEIAABCAAgYUigMhZqOoisxCAAAQgAAEIQAACEIDASQQQOScR4joEIAABCEAAAhCAAAQgsFAEEDkLVV1kFgIQgAAEIAABCEAAAhA4iQAi5yRCXIcABCAAAQhAAAIQgAAEFooAImehqovMQgACEIAABCAAAQhAAAInEUDknESI6xCAAAQgAAEIQAACEIDAQhFA5CxUdZFZCEAAAhCAAAQgAAEIQOAkAoickwhxHQIQgAAEIAABCEAAAhBYKALzJHJ2t9bXt/Ymj2//xub6pZ390RLac5nbHe2eAaFr8rC3VZOxmvBKYX/n0vrmjVKBHM/NnfsDcjHqpXJC0ZmBmYzTur+zmfLc2zrjTMYJ8Q0CEIAABCAAAQhAYPUIzKvI8Ubweu1nc+dPnZU8wicQD7Et7tRL3SdQNbHIqcpeEDhxSVR9LIzysHdjc307kHX397YurUdnsicyznN2Nv0bKQ27tre9Xqfl3KXos7WXuEiqPzm6ckLRmYGZtHz5AxM59/f3nRirEmnxHXyDAAQgAAEIQAACEIDAkASmJ3L2tk+aCRk4k+NlQ828hLOYS5fqY4tt8Vi95NgK5+OvxRTjq4kXOVIvLqSmp5weKIic/cTdGKkab/2Xp2XiPOe59EeR0siuFbOUnXd/ncgxcRWDii6FBXH35Qn56qjWROnZXBqFKWfHvphGI8kpZQH4CwEIQAACEIAABCAAgXEJTEfkeFO+zt3L27tFe9lM8KxgZyByqhLa2q0TA+n50qSHlwcuqlBWFSPxmmRz89LOvsz33a31S1tbFSLHKY6Cv1ZlSX2EdS52ufZIBUyRpn1PvQEjJROJnCiqohwKRI5VS+gpF2cyrXRLe5iDXPZkCfAXAhCAAAQgAAEIQAACoxKYtMhxRrN9TjBhI2u7WJBK0z8NVJQc/nR9bM7Ez+cZivokSzg+72LL52H8zMNJImd7x03d3HAzOVtuFsuhMAKxHsjSTP/u71wKI3dnq8OXZdv2XiRgwogDIFGY4HzijsOkM81TlZCPOwugLyMsdnJ4yxNWYX45hgAEIAABCEAAAhCAwHgEJi1yTCrYQX0+Q2u7FOrsRI7LSUHkmAwrHESaZGSR4xfbaCbHFceLHKd5qj6lmasCgGqRkwaKlEYkYMJYArxRGDvvDiTDXITZJ9gKwksdUyYukrpPriHDHITHiJyQBscQgAAEIAABCEAAAmdJYNIix/I6NyLHm/LOeWxb3l91GQvPp0b/5qXN1MR35n444xEGdkX2kqxCAUSqKVICga6IzqcAvaII9IZx9amFPmORgAmDmZjRmpwod1t7ucIJ74mOVahI5FRps4F6zCL05a263UJwAAEIQAACEIAABCAAgfEIzKXIyWc/8kJ5CzvUFfmlkvOYvxTY9EFQt+Z+81I2m+KM7KI+yQIH5+/vOHmznt7ohMowIkcWfF4WZ9abyKkTLTUKQRKopvjxUplhRY4JDAPlslr1SUMGMsxvpeCLUBXeJsrqIvT6sDafWQXwFwIQgAAEIAABCEAAAuMRmDeR443mqqmMWOQ4BTLqx09B7G2tb+2kS0ckYwIxEyHMzztddGMnfU+OJMFJIiePKRc5+Tm5rsWrX9KrNSInLa/NooRxpZuebW85GXZjv1Y8mJip212tWCiXSB5btneCy4M73tkJt2gLMlRZhDyeLKQ7U1XR2XX+QgACEIAABCAAAQhAYEwC8yFy8iH/Oo8sOYDVTGVUConApjc2+zecv1luhe9urW9v1bzlMxM5aeTZV8VV1APx1Qp/sFSRZTM5bke1zao3eOZ5s0wnmjjyHmU2/ZJfTfWPCQYnHmo/A3dXKxbKpWHixCu9vaJfXF1CJfVi8VjGXUmn8u5XS5EDCEAAAhCAAAQgAIEVITAHIsfUiB1Usfc2cY3IqbyxfDIz4mMhkYmEKnt9a9e7t93YL3q1pcrHMloUOXah+g0w/nY3oVQSLXHe0mgyhVDcbNpvhpa+x9MmebLAeRbSowBIFMbOZ3zCO9OQaXmdx1plQmGEA4sQxO3SranQIBSHEIAABCAAAQhAAAIQGJXAHIgcy7JZ23YmOBggciqt6kwABFHc39lycqWwHXOdPtH5/Z1Lmv2Ig3l/LRdX+smvusyE0iWWQ/v3swxs71Xqn7Ase9vFpP10SpBsmnqt9siy5/8GeJ0miT4+IZfVqs/2XrK75bVNlFAQuTufTVIFp4PDUAWlp31yg+8KIuAQAhCAAAQgAAEIQAACwxJYBpFTYUAnSYXIyZiEQqI4RZOFKZ3PZUzoxJUFz6/6zPzbuiVDXipY4ArNkOXNhdFEh4vQvL9iyZSlHsVTTSMGEoUx8eMiL06tRCHzHQ5ciid9Utc4ZTKOR+d8JLkgjEqRFY2/EIAABCAAAQhAAAIQGJnA7ESOs63j4X+ztqtK4az/kgnuAtZNCNTHlgkJJWOSo5Bq4Xz4NTwuRlIz2eKnj7xBH6VeyqQvppcPEjYuQCQ86tRCpRdZVKQoLVcE3RJFGMPcc+8wDeOo1iGqms3SC0zDO9NUfPy+eE4C6cad+0WG4Y0cQwACEIAABCAAAQhAYFQCiyVyoskBV1QZzflsQFD8yKYPzo/mrmY35sLGm+aFnJj1nwXz/mx73nXNhfeKxWkG/zLQQDlUzGa4GRzvVqfSmXrJspLrk+yMpe5ORKIlC+H+BkCiIsQ6yt1uE0fxpXQbN+XNYs7DlJYM+TA+rWzWx2JOb3dlSZNzVRnJOUuBAwhAAAIQgAAEIAABCIxEYGoiZ0CuvKEvM7ggV5wBnX+K5r6uFm6xdNzVghRJr5nq8N+9nZ0nEh0FaiRTL/Fch6UWmPLBTgCp4W4ipCBp/N0+wqxoLkCaqD8fLe+xxKJb3CKj4n4AUSHCLwJSkElxrnLR4tKLNE+cUKowI8hhVP7YBJtlvnCQVrHba66uvgp38BUCEIAABCAAAQhAAAKDCcyDyBmcw+qrXlQMHPgfReQEYsaSy1RNeiL9WjtPYvfFcybh6VhcBVcqslrQIUFgHaY65weZCsxR1OYwS8Wji+RffCaSTH5tkkWeXZIyKU7LZJnU1Uj8ZJcq/6bhs/mryjCchAAEIAABCEAAAhCAwNAEFlXkDF1AAkIAAhCAAAQgAAEIQAACq0UAkbNa9U1pIQABCEAAAhCAAAQgsPQEEDlLX8UUEAIQgAAEIAABCEAAAqtFAJGzWvVNaSEAAQhAAAIQgAAEILD0BBA5S1/FFBACEIAABCAAAQhAAAKrRQCRs1r1TWkhAAEIQAACEIAABCCw9AQQOUtfxRQQAhCAAAQgAAEIQAACq0UAkbNa9U1pIQABCEAAAhCAAAQgsPQEEDlLX8UrWsDal6KuKA+KDQEIQAACEIAABFaIwDyJnPs7m+ubO/dHoL9/Y3P90s5+6Y697fXNG+XTCre3tb6+tVu8py6qNNzu1vr2XvGe037f37lUkc8zsM4dyYoynja/C3X/GWAcWN4ofoAPZMVFCEAAAhCAAAQgMGUCiyNyqiRQnTJx52v10jgiZ//+ztb6+vr6lhM6u/7QfS1/RhJp44icyLaue1hOtLkHFaFQqJFKVJeh05x3lKo/0re+sNUBas5u7bpnoPjZ3nNs6z9bu0kIPzz2z5t/Nk5TUO6FAAQgAAEIQAACEDgjAhMXOd7+yyzHwZMhVTJGxZT1ubW7vx/P89SJnCRxVmzNZM44Isdno1qT5BUR5L9sLpfnjpKkOsLQes4jT5JE1vylnf37+3WzVGl4H7IqxSi+wheXbtW0WCGY+zqRea1EQLJnxf91+ammVF/1ia/9zc1L6+uXNjelSyvKEJzyki/GVZ1oWDXBcZVk8tmP4wxS5BACEIAABCAAAQhAYJIEJityIktUNvoAnROIBCtyqpFq7grjd0bnoI8baPeG6VY6ir+9l8qG6rtGn8EI8h9YwLK5K53HTrakMw4yo4fO0iRFTsq5pkayDJ/B36xyA0oB4exqKSGnWKyuXZ1Xeid6QeXnXjyrkh6uviusVjt2B0OKw1JmOQEBCEAAAhCAAAQgMAkCExY5u3vhnINXLPVePYEJ65SBREuNMZ1eNX0iX6OawN7BbGsvnRNwjmep61Fgm7q82e1xTmrt6UKFBHeZBeyDyGKWULEcFw5yLNG93gSvd73Lc1C+K51GyIz+PGjNkYshAFIO5asvy7axKoc7ozNZfoYXOZ5wlrEQSBZVlDNfrZub6+t5vdv1GmjFOLf3/KPlxae7ZWgVaglxAAEIQAACEIAABCAwAQKTFTnFDA82BDORIGN6GFefUH7kBqhLJZ45SW1WmcupyHFj/IFN76LK7GM/w5MbrGEqxRKF37P8pwrNYhs0mVDhU5cVxJvsQQ7DpIrHXgvlxIKv+7tbbn1S7TYMeUyVSiC/nM6DuUVJWQ7Di2d0HDjCZakMI3JcmHTFVJaR7Pbsu2dSUHHFIitMpuPCvwIYxqlj2+Jib1eCx900DO0sW/yFAAQgAAEIQAACEDh7AvMocoYvZZX88PZutTbIZ1RyPZAlFtqv8yFyspwN8ddxCBefBCInmxPLNVtdfEWLvy5ctciJ5qnKeOsjK1xRHaXrc7xaOEHkuGy7KZQoA6E+qTiu05+OWxlUnoHwIQmPi2VwWcqn5gpX+QoBCEAAAhCAAAQgMGkCUxU5J5jR1SbmIAIVIie276Ob0/jNjI4uRjZrnJOKVKJbsy/BXS62+OPt/r2tyIbOrecsCvc3ykl4ofbYlSiaPShA8F+zeSovAuO8nfgtirwih3EGdrdOIXKSVLDlRQgoBYRLlVJdrTmzdDbPnxCQQrHdjg65yAniDzKQR8cRBCAAAQhAAAIQgMD8EpieyPHGa3mYPNs0rGBxDvxqNre3RLe2Lq1XbwocR7L1u1qSXm0NR9IiMHbdnELN23iKtRrcFcVm7mr393eidS+R9VzWRXH2y9+yuYLQfFeevBEfKg0feRX8oAwuTPUMWBDIH8alUw2eEHkxikHfTYapgAGlgHCpUqqrNU+nTCndDdylksZWHX+QgRM2EM/qaDiMed44ggAEIAABCEAAAhA4UwLTETmp2Rqa3RWlCEzMVFoM9Plxhqn7BOa1M2SDr+m2y/GZXHK4N2ae8PHWasmersi7OxXkP5YBof3tjjORFlvPWazle7PwWYjor2eb+1/5ay4n8aokfyabzInuty/jixyP9CwdtFw92n4AAaVAqJQqxYE96ZPJQitzFmHKPKhBF39KNchAoIssjsJBKWOF63yFAAQgAAEIQAACEJg4gSmIHFmfJfuyXLTAxPQXQz1QCJ3anbFBWWHuxwEUiYu2JLdSE7l03t1SFUkhP/5rkP+yUMlj3t3KJkxi6zmLMr43c9/Krhb/lnVd9kadPEV/j4u2oADjuFyA4aYgCjn00Xj4XmQU0o0TGfKbr46SxnAVkeneUqVUVmuQXKZnglN6r+vWXqR7U0kclDGupmI8Lt1QhZYyFiXIFwhAAAIQgAAEIACBKRCYsMjRBMJwpnM4E5KWvNKCD6hEBqULHJmbNa8ErbKGvfBwvmSFKRGfVpRKkHrxcEiRk98WW8/Z+cC81imvH6oyVlPA1AOwKDZUF9XxuIROJ3LS3DtWxVrICjb0X0WSSTKj5Dk4HRU4mOVxVlVrftX0THiqdDKvQUs03ALB34vIiRHyDQIQgAAEIAABCMwhgcmKnOHtZocmNzFzUC6GbPA+P5sdleWHD5/OSNSkXraGs8F4LwOK2uDMZ3KyzPv3URZUmbvmsl2QIj5j4XRBGoc7XzVFVl0Qb7hf2nGbQFd9anBVBK3IYRBq8NUgYN2hFzPbO25X6JCDROylfDInvt9V4kmfEquCYnHc/EyOHbg0QsFT0kU+V+4Z3U2zU34m43zyDQIQgAAEIAABCEBg4gQmKnLKciIoj7cOzTR0FyLL0kJ6k7fSlB8gP1LTs7AaR3EWcxUa934OoWgKD2u2Bvl3ccafqKRp4WLrOStxtUjwJarQOdld0V+Xk9zsji7Vfwk51IdyV4o5vL+zlb+HJ1OMFkW5ou1S5YEL7yvODnyaTsNc2tl3J7MKcsXMjs3lrDLOurU0YWzBjVZ9FcCjW7yy2t4KHSDtaSlSCuLnEAIQgAAEIAABCEBgogQmLnJiU99/0/C8MxZjQzwQCbKkzcSU0VnWCWZQhoxSC3V7TwcWSRYmEjk+jBnKLkj5TGUqWWzB3yD/LpJ8FiJKMbihpAf8teje0I53x8MtmymzDVKtO3TpDudYGOUwWwJkFV0A7ujlUqQucTsfMnEi0Fe6Oxkon6y+QjgWwUgHkWLRnYGoFvC6zOfVUVm/1Qp2pNwRGAIQgAAEIAABCEBgPAITFTkjZslZjZs7u+mmZwVbOfGGe8Fcjq1tmacFS10nwykdM0nLl9IMu2gDATasyKmwmMsEskxKE1SJChVKeSiUV65T1YteUos80xq5xCrnIT/jFUh2S1DkPMSpj1xBqopZGXFFYNW7xRBC9sc/SDfZy0tx4pE9WgUBltKwtHwWVRGhwM6qxh4qV6cWZ1Yue8yyE/yFAAQgAAEIQAACEJgWgXkTOd5AHWCgy+TNZmkyKRKM9FeCk3y6r2uyPr3YiM3Z6NYsoZN2V1PSqV1dsnSjKIf8UrKhy/fVyrNy0FmfcXyGxeKqKZul8fmW6ggFhvZaMBkzbMxFCnmtZTHoTJR6fpN7GDZ/98V0y/E4Pz6UnhbLlg4GPMZ51BxBAAIQgAAEIAABCJw9gTkSOYVh9bMv62LEOIoqmP8SRfJy/rNLDiEAAQhAAAIQgAAEloHAHImcZcBJGSAAAQhAAAIQgAAEIACBWRNA5My6BkgfAhCAAAQgAAEIQAACEDhTAoicM8VJZBCAAAQgAAEIQAACEIDArAkgcmZdA6QPAQhAAAIQgAAEIAABCJwpAUTOmeIkMghAAAIQgAAEIAABCEBg1gQQObOuAdKHAAQgAAEIQAACEIAABM6UACLnTHESGQQgAAEIQAACEIAABCAwawKInFnXAOkvOAH38lbe+7nglUj2IQABCEAAAhBYMgLzJHJGf3Gke3/opZ39Up3sba9nb7IvXUvc2zbLL62viyq9f3dreoZszMHZ0Otbe+VyTPvM/s6lSqrVPIPcnRggCDv40JHJP1EV77pazSidXYqD8+OvnkrkuGwHn6qHeYgslILEj1Dxcnx1YGMp3hp/nyrnOGm+QQACEIAABCAAgUEEFkfkxJaZylSnTNz59c2d+5Ulr7bM6qJKE7q/461Rb0YXDNPARo0SjS3yKFTw5QS5VZFWXbkqC3uGJ6tFzhAarADcxVP+pBwGQxugAYYSOUratNCIcAbnrVykVEu74td+6qeA/DNce192IS6Lz6Ej6Q7qn5Po6v7+jVAfJvXpliMMarbiQc3yWDWmMCJ6gkMAAhCAAAQgAIHRCNSKnOPj46Ojo9EiK4eO7cJo6L06cNmQcuG8Jb2+tbu/H+uWemXizK+a5ALLLMhDfVQWqNrKt8snWJZ5ODuqzEmQyv2dzcis9zZ6+UxuTNpRNUZLeKyDIGN2v1nV7szeVj6Xoq+Wn/ygLOr8jRVza5aIBzswQJIkA0ROaH/Xi4o8uRGO9rbWNzcvra9f2tyMyj44iiqSg++ovJoV+ch/kkT6xMueSMakN+dPePGqy4/VSx4sTDS6xZ5bOwiD+tYaPaXRVb5AYDUJnE2XuprsKDUEpkjAutQppklSkyJQLXKOj497/tPv91Xf/z97b/si6ZHdifaf4L8iX+rbpWFA33S9IMisbjB4GDMCwx0MtvDFA66sHMM286V3YBkzRhgspK6s/DDo7rJiYJC5GEldld050HMxMpe5Mniv1Oquru5CuxgEA6Ir31+WE7+IEyfiiSczqzozK7P6PDRd8cQTLyd+EZFxfhEnIiaTySVEOGvU/HKK0TVziIdJO1CkbG6kchVy9zxIhQxEyGvTsYuUP2NZVLMz6/U2tOc4oH2/OE9IyT8TtJSO6BMhBdqjJ1XY2Ykuf4sIyRk8VoU1pItpw2m7tpusqVQxgyLMC0CYeC08iMovTuM3HqHAocJt2oCza+Pol3C4HF2CeaUwKAXw5b+Eos4RygjwcDx2XfVBrUhPKnVq/L6z+DaWyMEHkx+DKFxSgbOXfEkUTuaubkVgyxFY1pC65TCo+IrApiMw9kMqab+XU303vZCvk3wByZmYZzqdTiaTfr/f7XZ7vR4co9Ho1Sub1EGvDGVgDhQpu3qTtxOGkpJPve10zUyyfpof6hcZntVa8Xwz6XZeXw+sfdJqXzafUH4sUEgZk26eQUd6rhQLaMYsrZSEFN+AGsmPr+aOldcELIRAdgGNdeK8/OcFMMlGQHFaJEb41FozEoxLwelcxGGUe4e/qzJKgNwzWrgJQozRxZ2VKVXl3KfWGg57vV632z25Vy2X91qDAfXTuClSPr6+3FeSNnhCLiR3r7koRmCGlx2iHDMrS4RTpyJw/RFY9ZB6/RHUEioCa0EA+i0mIzCkQvUdYEhdiwyaySoQCEiOmxIeDQaDTqdzfn7e6/UGgwH+f3WS49WsZFGcIgW1NU+plVFlgl7XNNphEN3MebenAckhEiL0UUqKVU8nCfKSucjcY3cYK/6aeM/qiORTaZydNSqVhiVjNp4tgn3zhQ2TzfMPQ13uLaQHJE+CTZm6i/zjYpowgXJNRyu0IBXlsujD9eV5rE8kvWZ44TqKsIJ4xiTMfYkxpyzyqU4Obi6x+X9h9DIYDEZHe8Vi7bjXOz8/73SeHO9X9j6jKYnRaLQgyRGZmXIZPEVrFxUX4Mb+7KCUktVaSJBeka06FYFrjcCqh9RrDZ4WThFYBwJ+SB3R07NDaqff72OWn4ZUfbYWgRtcwbxuMzBPt9vt9/ukS42I8/T7/VffohOrgxFqgSIVfUu/CoWMAxh1TbAX/uD2fgSaGX8NZAslSeXC8YQjjCU+5DljSaAmOu1cfvU6KNIKpOXkSQBmCzagXA5wRIIjXMhBMljZSFOf+ew2P88ssNgI9XYGT1nSlEiJcmWChSTQbNFJS+jgzaQwz4MwJ15H0i761P/+AoFtohFFtGJhSng4HOKXl7rnZ3ul0t4xfoi/PqgUi6VSqVwul0qlhHi7zTYfRZhtqAI9UTuiXoIo7M8OElJEZChFm2E/dSgC1xqBdQ6p1xpILZwisEIEEkOq0XiZ22CGYjAYDIfDFcqhSa8YgRuown6/3+kQc0UF8+oNCA9eX9FizWjwwRR4XLRAkYo/Jt8TetUMhdimH2hmnGxAG0JJErlwNOngWEaGhKI5y6vWNtZBYuab5Jz1yHUMIwYVIWB3lILX6Vu1pZAcQiOTtYTBkMlAU48AjF7DuKk3g+cc4YWankpiiX7p9uMzyJckU0E+knQRPuIpCvZSMg+YjPy/VH+AKQn8P3l2mD1dzcPODdXmGuz+8sGS5mq5bbvWZBLlEVCSIytW3dcWARAbqRWtYUi9tmhqwRSBlSEwmUwwcQ/VdzAY8Pw+TJag7mI+EfP7arG2stpYR8I3UMHD4bDb7Q6HQ65grOSA9sA2cTgcXsJizcx/G5UtTzPOVZuEohc6WXE3ClmtRmdDzaMEhULtFzgqN62kLpPk5FVcrFwG4cx1JW2/WsIqpsGHixzECV4y5ZqZXRB1gReuxwUkcck5ZVfozfQpenWh8/8aBBYiORRyJpHOz2ThLxmco5iu1JE3Axi2ZfmWkHw8HsN2tNvtPvmgWrrVeOaWVXu9Hi/s4LeYp6Amz4JNZZDEwx42DCMYnREHhH0wboHTeWdSmwx8RI+AkpyoFejr9UQApvxd96BvrmhIvZ4IaqkUgbUgIIfUbreLeXxYKs0aUi918tZaCqSZzEGAVnKiX+R+vz80u5lh388/36+6Zkeqz8wt16HuRTrTTIXVBIAFkSskZRGsIaQ2Jzgl1ajOUsdMuM3CiNfeXD7pv3PlNzmGJMEJQ/uFam7XkL/dFGXM7KRP6Y5es2TpKPHZGHLQWQ4jdq0VZOrAT2Dmc3QiRQBGryZrSjyXxlgB8mU0AUgUu5BFqeU9If75aeZ+Aap5ycM/oissT+Qv8nBY4diPyeTFoTmqbjQaYaJhPB4TySlVG0+ow8J0eHDfWqyZqSaKguWdzBlr1Ck87ASX7Sa0+2vXXCpFt+VQFYTBXKWIKF7o0NNH9GUJ2oyPqC5F4FogAIsXtnvJshrMG65qSL0WGGohFIFVI8D9dDqdyiFVdlg7pJo5RGsQYdZ8MHV4ifn9VRdK018QgRvgM6A63W63Yx7QHmy64oMmlnCaHmk/IQmRYoY6E7bQ5KikVnnyehWlY1TJcL0oDIDMmFfIvK3mmtSzU4nIuM4dy4/LWwSvowCCdeB1t9k+ZVYjlJfAafAAACAASURBVEL3lb4Rbk6Dh3+9feZjpctuxDKYGMU7WTQn+iJ/hWwzVmO8gmvEZpYI5d8dq+DYCOdrKuW/Ah8XdKG/lZ/8hUFG5mtPmGBUOZegCOx7QUey/Yg0AkmwBmLaACpxVqGIAmExHcTm4X6hWCzu3bc74p4SySmV6y3MF3/9frVcLlfuHT8ztKfXe3rvVrn6wVNacZXmatRgckhOq0YVwQKb13DrDolLLcclYsrpYAw8BTviBHMrQsClTkVgCxGA2sRThDBXg8601iF1C6FTkRWBdSIgh1RsLOdN5lBxYbHW7XbPz895L3rPPJ1OB8ow+vs6xda8loXADfBUPkUNDvxYw80HDyzhoAmjoOdq26HORCUkbSmfFEWqtlEiQ1JE+mjoYy+pjGUw6l0z54aZy5McU0vtejgd3qgVsPk+IZtVHylHV3DntjSMtM6QyCETnIud1yxMIlko8oIn/Z1qaz7mYuIVXK/1RoGjV0ovW/VShNnNBiFFvqC7mXq3VDDlLzOb674IyZGSBxLGuYyPa6USHZUGAsOLqNNpe69IpwsMBoOTe9XSrYNGvVy7/+zgVplWdR7T4YdQqkaj54e3SpV7J/Tj/LhRLVWbz8zdVg5bD7vzaddN58oRjMKbJ+4sLrqvNXNrrWdHPsGgzcRl1ndFYNsQYIWp1+t1Oh2Yu+DwJdy7gOkJaEigQKsdUrcNQJVXEVgPArjuBnP0oC68q1zut0H3BM9BhxVD6ogNwhFM13PWU3fLzeUGfo7BarBIxxNRbOIPs0X+4b58TZP2k09aWHkSRTQbBnKNfLze5qLYnQ9mAYHc1n7Jfaa/WSXVcSESwBESESObi/gonCn57Wd8aok59VRGGe3cEBsUwchG9CaZi1crhTyhk9BIsKMw0Ky3QGHNxURIgrrAidhhRZhyQYPm/2fIZsoeq9qRqCJfu6bHKYeOpZCcMMnsW6rFkoTxY27vpFPRzMFoRHK4D3IvG41GJ/cq5VsHxx9Uy7cOng2eNW6VyuW9B8aSjftmv3/SuFWuHjyjbvu4sVvebZ6MCaRsg4l8AugYVqruQp1uzo2Q91Vv0zEhxeltPoCu5DCc6thmBPjANL4+DkrPcDjkQ0fZrnutQ+o2o6qyKwLLRYDP/+C5e16rkVvKYbGG7ei8Lafb7cJfDKk0ZYFlH3Rq7uzLFVtTWykC9uABtk+TZ0Zz7cKkGEs6vV6P1a95kgUX0RhlSywmGJ0v0J8i3cumblSocHMOW1i+OKiE2rOTyCqUSUIVkxzJhUg/C/O6wEb5lPwmQbdxSARIZiRIDmiAk5+KU2nSrgnSnqXAKHDWh/xPm7UGm2xRgoF+n8XfgZfz96Ikh8LXGsQbaddHgm3m5JP1JtxiVTsORcVhahGIKkJm/cnngrLF7Uekb5yBJOKj88cP8WhEs0SYQKKLbj6l3TWt+GwPI16hUNxtPOl06LrPW40T+tl91rhVLu630EPdj/LTg1ul6r1nlPLTRrVcbTw1B1+KVmeliXycYEJWXkQNC0sLnj/5c64Lk07FAei4jYT07JCOHX+BjUZB+vqiCGw8Ali34YGv0+m8fPkSWlFS3RmPx1iJhUrE04VsDfHKQ+qqIOMhdeHBfVWSaLqKwEURSA+pwtIsSpDPHpDz+NCBwyGV+jFUYj6aK0pq/a9sOKdddUHwyVwNS3JYZwdzhe4F7gso5VQWr/rNzQNz+Tx9HVAaUq1CzTXUvcxpY1ZHRzqIjoEHCuLzg2oxoz3bTOttOALNniQO9DYThpVj85muQwl8nPY2r7iB/JQLPXKBIgiAKfZIw7Za+Fmj2ba5CZXRK6PQfVlI8yozQlzKzj8RDjksa0YZrWwIkYsJC8mFNRUdQTojm8SnbFPJBuJ86VMgqgib9adqipAR4ZfqdBJiugiX7WILHBn+fkY3e7pKd7uwXAcZjUbdbvf0XqVkSQ7t0iHrtVKp+sFTzDtMJi+au8VK48V4PB49PSSSc79RKRbjRpi1AnWCidIyLEFnoUr/wx/976J3ZLuPaVdodZXmMzqsE+fqLmFHn5BPnYrAShHgKWGYpZn7dm1nlVPCkQxssba6ITXKcSmvckhdfHBfStaaiCLw6gikh9SZ0/EYUvlcEHAbaL+YoZC0n4ZUMwQPBoPk7MarF2GRFCCSDqmLYCXDEMkBVeXFHFa8hsMhAMWR/1j4Q/iVkEioxWTTRU+sehpNl654N1f6nJvns1q5tH/smp3R9XmDvi0lPN2SCHmy3pb9ZOOAHTEly1XoJZBWdzR6qmEXHN2HSmiTjupYxTHQwo0YXnJ69YyO1VCf/IVcYWqzozpghamh0GWh0cr/CYQItJnhXVzJ00KGFnDFpLABtiywS1n8DdpVXk2lslioCCKjqA1PjmvFYrFcLu+Yp1wuw1atUCjgEs9isfbQnFNpMhKEZzodj8f9fv9436/ejEYj9NMn7xPVKew/QBicHdL/+qBaqja+7gdXNZseZAWUUAfQ2Q7iAOfOQohQm/ER6ZNokBQAENVadHzC6b3Kzs7O3ifUUV++fNnpdGZohym81U8RuBoEJpMJzm3HRmTYpMHEH7fJuREnIR6b++OwJizmXNmQmhAw9gIxw5wLumqv15tRwDi+visCV4QAZiLkgQGg6Oh6MD/L01QxXGKKHwyHh1QcNjAajYIhFZdu98MhdY0FZ2tYqL46pC6OPR0hjRX28/Nz3jTJvJaXd5jwYG9WXtNZPONESNZrvSIVhKI2d3+vXC6X949b+6Qilsvl2mfdfp/0x4V3+0BvM3qw5wxBRvQCjdBIQqpbbkij6jnVNlCgXZKGq9gQyQAuoFiCMLkbmiT19UDxFbEu4SSx5wkzK9lcTFhjftW7R2flLr9BsSZ8fbMh0FKli/1N3CWiKuXKuA0yD8zKBn5AeY2U+qAxVwPJgXEXlKrx+GGtUAAdKperB4/p/EPsoItussLsA/opluMxbZGRI+PBVRY2e4Tz8BLElnKjSYcIoyPYAFjc7z4+qBSLlXunmCXBqJPJXj0UgY1DAHO3oDdsHzIej1kBYonZpA3dGV1vU4ZUljLHwWoctD1QMvywKM/JwUy9NwgBXoRMDKndbr/fZ02V12bZpsAOUuZI4SUPqStAiKXFuQg6pC6OsSU5fE40WA0sTLB0A7UJP/RsZMxNZ/Gc5oaUGicvzPEAgzYqxxi0bwwneiXtXHiDAMQn/RpR8Ol1egmXJtZU8mzfYd0CqhWmGLBozgc3wdwfntgVwFuf+UwYNjWB7oLrdOaXypEcQ13mUT7MRHg+SYs242Na1Kkc0N4bMDS+7n0yIZJWO6aVKHReVZ7m14iGuGoEeNyRgmDRg/fk8E4bDJTo11gF4j3NcpYQ3Zw3uK5hSI2Ex4jJRdMhVeKj7u1FYOOG1FeDEh2TR/PMkEqHpmKI1yF1EaTpnhyexeFfZJgesmUa02VWvLKtapHMFg+DtTlMRfPggfVE3E3LScGuQFfYGRB1bB0C4/G41+thKZWPvITmxNNO+FHj5XV8xaQO5ngQEus/THvWwCj4RBo2jWMDGPkzDRMCGK1tXQWpwIoAVI3hcIilVByzxscMSFNMHVK1tSgCV4uADqlXi/9G5X6Dp6N40yQmkqFU8ckS2HkZEYzVlQTbvM7Pz5m9gGhBEZSqG0LOtr9cnZyasiJwaQQwpYqGDZIDQ1v0smgeATPEPB/BizlYaMVqO4gEuqrUui4t4dyI+NHgHBGeJ5kkyYH82f47NwsNoAhcOQLcVTGn9tI86HRRP8WV6hhDdUi98opTAV4rBLif8lCoQ+pr1QCShb3BayZsx4+5ZF4hgaaCeeLsD3oy0Vf3xIQZGigEgC6IfZ88Z4yMWFRJfl5dBk1BEVgpAry4ga2ETBXyehnWTMBqsJIDqxhYgvH+gXV21clkAnoG9gK4eCVHGpGybQxUw5UCq4krAktEgLfZoIfif5j7J7uqDqlLBF+TUgQWR0CH1MWxen1CepIDFQrr71BEeDcOVuqXCwqUnmSafLgNjnxhVYn3fQ6H5gIQFxm2zp1Oh2173Bf9qwhsIgJ85CW4CrbAwQBmxgoMyAMWV7mf9s15L4iVVLlesfyYXMhLeTKZ4Dw3GAcjGPdfue9TGhZzj35F2TS6IrBSBJiuYC8+BkTYgs64L45j6ZC60trRxBUBRkCH1LwxmiF6bR1krgabflAF3s280vlg2MgNBoMk7lCSMK7InVWYNu50OpGSxO1bmsckU1ZPRWATEOCdM7z8wguV2ZP4MR2AkCBFoEPRDuZVlAvqWtJ8DqQF8w64Uk12TD4KRi6uIjUsxuov8irqS9NcLgJosdj5xi0Z1phJA2n0Yh1Sl1sLmpoiMBcBHVJ1SM1rJHS6Gh/tj6vTVw0WJqQxFc0jh5QPowjOhoLtHJZueIaYN+ogVnIPgExQ3YrA5iPA56fJE9VgKgMTf94+x68r7arQ2HALQTStwGDylWq8Dxsi8b5PuejKCa5tax/LqQ5FYFkIyDk4uQcA3ZNnCXFsjw6py4Jd01EELoqADqkXRexahqfT1cbmWanCxNjxCDFjBwIMK2Hrgmt8WMeC8hSZ9TP50ZUcxlkdW4cAdw0s5vD6JG4kRHdYm0EmCAkfhxBNKwBb2e/YZJR30A2HQ3lwCKKAFCnJ2brGqQJLBNgObWQeGLBhZx3GJh1SJVzqVgSuBAEdUq8E9k3LlPbkrE0mtDmoPr1eD2dxZhdzQGxYq8PuagRjUwFpEi2VrXUWZ224aUbbisBF7iPihY6XL1+ywoQdOJgwXicImGiAySgWXbPGpTzjAGIzGAzOz8/B0LgsnU5HHhOCqTUlOeusSs1r6QhgfVWeF4LbDlZq450shQ6pSVjUUxGAQTWm1XRIfZ3bw411Fl6a+EdTvySG0QgPn9F5TXyPIe/DweYcGNeBIPV6vdODSnH38HQ4RBTmS+168sJ7lJWuZq+14nLTVaS7zbPY2723agVxAaLzXc3fUDNe6IrG1QhygVTdhZJRlDmoTqdzA0QJzng1QBXcIy+1PGvu+vawxBxnCGM/hVWZF56XTXDShjtC8HnzVrFYLLoSJRptXoKz/WdfgYqv2FcwfHpYKdaOzT2e2VMEcG8VVll5vw0YUb/fP71XKe42nnQ6cm6brU91MmJ2HenXDUQAu+N4Bxpm6zANcVVGBHOGVAMixtAFh1TcHM8bdHlI3cDqUJEUgTwEcobU0TqXWCPZ7JBqLKfEZdl+jQEy89bW7JA6HA5xkrAOqRG2s1/XTXIwTvBocX5+7o+TAsl5OgJjwZFTWNUhIv7lvWqpengyQt1jq8CTD6qlWwdPHSlizYkU2UKleZos+2VIztlpky51LxjVmRT6vEdkSsWZ/8yhW4m8RBbJ8l2JZ5LkGAQqjVzmOM2SnER5C0w+QxoTY5tF0iGxGMkxWc+W1iWY+DtbtljWQqGwe/h8PD69VymVSmX3lMxDzIa4zYyKpjY894nKQhIaGg8akyiD8cJXu9ngWbu2W6gePHc76B5yvsVisVQq7ezslEolcu+3er0eJsxwh89zmoBoPhsMOp0nB7fKKFq5TA7J3Lhy8+RRf0XgahHgkz/4XDWscPKi5RWKh36KFSSYOQRDqpEMq7JYa4Ke1O120VXBfOSQCrsJDMFXxdyuEE/NensRkP0UMxFoxjihZ22W3nkA8v49NnPodrtyEoGN61j1jYZUFIF5DkqH0VamkyfAa+u/DpKDxjdt7RcKfkKdeSrPMGElp/FkADM2TPp2zHO0v1Mul2tHz188I+LLNP3JB9WyITlyf7OpS9ICIyXP1fFlSI6JG+jKLjXxd7FpexEhKYnI5bRZCRaX6NMspXDmcpMhfktbDRClMM4UyWGtGmRGVgeEidX0oLA2h7kLLzKXWCqXRv5KjoHUyjGDVOQkPNPbSF6pFCoVsY7EMfhaKl76sCetHdNCY5vDXdIhWpFNwfeIFMmhr/ut6Xg8bteLwaJlq1bcbT7t9cyPqalmswqKbQm4Hud4v1zeP0JXffx+tXyr8Xw8RsW9mEygGtpifn1QKRbz6eglS6vRFIHVIcA7cPhaqivX/u2QGpY5MaSasVJqRXzgO3orF4SHVPRTMKIweX1TBDYagdwhdY07MrIAJckVFlfBTziKHFKl9vvy5Ut55iq4EAJgtkUZDmOYdKyK5GBRBb/F5pyZZ4e3yPBGarp8c5NdzDEkofF1H0Y7GFGeH1SLxWJ5/5hX8WQxzhrVwu4hVgpIdZv1kOJo1LuanY2utw2tyotzcZV3KSTHJ9KuhXP5hhjkqr+2+Lk2daTF0lJUxk5P4nkJt5EqwNBmQfqwx9AE86+cEVThGWs9cwNQwVPsiLOYTgONPxI4AMSDL2JfxulydAlGpWCVovfZnlu3CTBMvgSizpHKCeCCRaWW6VcbZ5NJu1Ys7h0N+/1+a79UqD908exfd9/ucc1RFNg6Y1vC0X65tN+CJcCTD3ZLtw4syXHZ1Fo0MUG/CSkyHOWlr4rARiEAln7lG8kyQ+pA7nYDYvGQakgObGNwfgmmFPk8Uj7RRwLOBhHSU92KwCYj4IfUXs8bB12FxNxPMemAUxazfcoNqT3+JIdUXp/hyyGzTMYOqVdRxu3KcyUkh9fdsCZD/39WK5VKEcnhTZP2p9ZohIcndG/PaDSiGeVCoVB/yIvp8rCBmNLU24bA5MyAW9UKmh8ZntVahvAI5Zi0QGYITjdFXUYaam4Fh7GmU8srnKaX/htprq4UJOqcx0kb6K/OMxKSw0TZRcEu/xorr1T2KC9TZTFJm4vt3ACUrKjHsAiZKthttmdsvopLESa22JuB2tE52STI7THhnzZ2WOM9wQzzM1ygeQQTCoQDzy+4NmZXRI0OdFTb2dn7lKZ3j/bLxfrDiP8Xi8XqB0+63SMmOc8PKqVbtB3OLf5QP51MJk/v7ZZvHZwOh8mKm1lZ+cXVL4rA1SGAHir76fplSQyp3W6WosRDqrN64Hu90UmTQ+r6C6U5KgJLRIB7KDuWmPiCSYFrYVqBV00jszQkBUojP43HY+zbweIPd1XeyLqgDBosQmD5JAdnLvE5AWZTzdN7t3b27tM0MGtabHXmr/t0GuEL2lHj1cHplKxosCEyar5SkWLVzcwWB9Hd/HFAcoiECOWYkmKG4CQBWDKXCL7gNYwVfEq/ZJmAVUbPGpVKw5IxGzXUv31h7fIUsTvpGWZoFoVagZIdBnjlt0A8o4IzmD5tQzlC/wy2JkxE77iaKJcFH0czKHfUu1suCkT1ws0EMAiW+2LEky0cFphybxjVUdi2RWp5uIkgizqjIjcrdX+oBtoJKzrmnIPjvVJp7zM68PBof6dYfxDk0zIdl5ZY7++VSrVjMhl9YbbcvDCWANzwJpMJLb3eOnwxmYQ1m6pWg0TOtESQv74oAq8zAqkhtQtL0Wh+FzqWH1IdalCY3Bv9zRtSZRh1KwKKwOIIhENqHyvAbBcapYPrIqWBErMaGRI9ms1K5Sd1L4jAkkkOqhk/slg0HI/HpwfVndsHT7pHeyHJAc9hnjp5dljJmcbO/kajeKEiZf3yN66QplVr4f8YH1bU6ENIV1K5xNGzsVIhIr9YEsrIz7jLr7H6G0jrUk16et2dCiW5n0nTUYZANXcJXuCvZw5Bsi754C+qIPCyL5XmqSw15T8XfCo1s6C0xKHGbzhPKnd3sEQ6kZm+BttCvY0azEk88q784ueLnEwRxgopYr5MQZEJotSDMw9KxFse0hLNEZ35cX9/p1wn2zOXuEnq4MVwOKSVnHK51iKSI+tFNrwXBxVYkMoAWNWMVvbc1IPLR/8qAopABoHkkGo6I22fyWxGpeVZP6Tm70bIG1Iz+auHIqAILIQAG4vykSTw4ZsVZCrMiKSBkgzAbu2qDMXlHJckOdhsg6vQwDKxxsJzTt4s0hCGg8c9TANXDl5IQbG8jjNzJ8+aeSRHRpHuUJEyX2JVXgQ3kmTVaISQitqrkhyovCm1Mt+v1nbmbY5vkLo/68nou0ERuNxMPwJkDBXhFE6btZlnoHFiuQ6bS7yPKBueqozzpc8Rq4leswnEPlTqi5GcOIUlvicaZJB6wD2CL0HtBF/Cl3mtItNiisVK84QWQnktFO2E9STTcw3sx5PRaHRU3ynvHzHJ4foyXft4b2endkQnHMqScsMjR+oRy5ICAW6ZYQn1TRF4DRG4wJBqjNBwj0J0sDvmDWHun/30GqKqRVYElo6A7KryXIFwSKVssQ6Dwzx4SGV5WFvWhRrGZBWOC5Mc0EquHpxEycbBMDTEDYBGebI6DU8DVxoByaF185Nm1Rwsm9KO0n6OBmA6uVbbtesz6dDOt/YLnFuVVqNZUSOULR2ygEt9blYdhLESIWcGMHf7tMU5YE5Oo/5ykRPJOq+gCNbTJWILxSs5wt9Fv/xfI6GBOd5yk58mK7uRJNFrfgLuC5V6MZIz8/Ykl9yr/Z3XVLjUYTYeQNdYM3/nNYAYN/RTni56aZ5ut2t2uxUK9Tbshnu9nhHFRh+Px8f7pZ39++IskEJll66QMuektfZ2dvbuD/JITlgq+cbiCQSU5EiE1P26InDBIdXCBI0qOQ2MK3fR2V9XULXcisCSEZgxpCKncEi1uUNVzh7szvMRWOeJNmIsWfTXO7mLkRy+z4gP0+z1ejhhCevmfEAElCRWQM2y3XFtZ6d68DyqTtgm0gLfSWCuRvrizLN0TQAy7/J7HkhtEq8ZumLq2ulbC2iW0J7naa6uBVGCPveE/CbHUFt1wpANVa0d7R6BUVDCxE5oii5zb5bmfSiYXzYxuTuTIfNJSOsjXdBlqzhQWKlQeY8rPheBEUDG0avxbNVm0BhuY3mCUwDz2LKTqHnP4iQtnZtrk3npk79DwKXg5In93fd4T9F0agy9fEszAQ3mbonMcJvTw1ul6r0T21U/2yuXy3ytTaFQYFu14k/o3EEcFDGZTFqG5JizpB7WzPnXhXrTmIAePh89oD05ZiVHwk5ulzVLHXpytXK9oxSvCjhnpw5FYBsRuOiQymWEJQyYTO6Q6o1OOZ46FAFF4MIIYLqQT5Pv9XqgNDi0EB2QD0yTqfNZINnjGbHOw3dVyVjqXiICFyM5mD3CmWm41mM0Gg0GA2yChD1Mv9+33FRQDkN+jvZ2dqr3TrLLdpYix3tySDHK0fysqhTSD6O4h8pWGAC4sb4lYSTPvB3hqURkXOcOSQ75Qn9lkQzN8MwNr7vN9qnbEy9JjvtK35AO1ivgX2+f+VhWgFCtNMtckiWaiI7kUBQKb54ckF25FvlLErLCmkQ4OgCAKssIY5E3glibPSkkb//4lZPWCr3In7/4idmGJBRrCyaLKsoWFEH4X8Q5r6mEktgqqDRPTdOdWaK4jmTzIAkBo2U+4/HDPbpjdO/g8RP8tk7o8IDaUbfb6XQe1OmQaPRlOv05RXK63SeN3WKtxQKTY79FJ03vm1PIbeMxbTJoeA7GwNORqICwuZAXAVjDKgLXCoGLDalijw3PJ2aVJ0wSY1S9VmBpYRSBK0IACzL2trd+H1ZqbLiEOX305W63KycdmOQkd9DhCJArKtPrkm0uycEMEw755t2NqEVcTsQVyYvjXNPm4IGnuBgHmhumjXd26E7PYrFyaO70jDEmvS2cnyY1KPQJ4wQ6JQWOSBFpfrF26PUtkZZZK2imJqRZyWYiIqKFzqz85nu77ozEEKBR4x3qGdmsTknlcgV3bkEGmDWF+WfVyhy1OVTxDW7Zmfgw7XlvgcJKokZExcRnjVluxYkCR68ULyxXLAl9XcxczcYMRBWp5fmLIHOdQYNMhJYIyEPMA/9MvNyvdArfwXNzi3mL1lgODiu7hy/oOtFCef8Yk0y285rStQZ00+7xfqlYb2MmmHbg1Ft0T46pstFoZMzVjjpfHVT3W5PJC2E/KeWi8PRkkOfKkg5x2ocoyzIAlzKpWxHYZAReeUjt8cU4bIaKCUe5MWCTEVDZFIHNR2A8HpshddDv9+XZ65i+l1yFt5TDapQXV3n7xnQ6hSfOWJP+m4/DtZEwQXJ4EU2e8w0Cg0vEIpLDZ+FhpyNTXtyajB3P/X6/1zuulcvV97/O3WWVIgmkKvklghj2rE5pwlvdi9wZJYwtc0RapLER3yABEtp5NhcRVzhT8tvP+ESHOBNnM7wlkVEwz00xjSqJIhjZiIrk58JqpZBJOE0KKe4RnJQlIlzEGSisVmPOxBcKLopDNRsHBjghPZtFdHNqWWYu8uVlsTAD9xbSP5nGYu6U8C5t9zfDbO0al/ue/puKRfsaB4NWrVze+/Roj/7vDO7XisVi5eAFJpmwFE6ymwp6MML5aXQTDvSko/3yTv0IP+X4ZT+qlUrm7l0zQ/w8TXIotUqtTnt1QvLva9O2RoRs8XnoPgBE0iOkF2tZGmqLEVjZkNqDuXjukLrFmKnoisAVIADegvMJmZnIdRs/pBrpmMMgDC/myCEVFuM4Xitrx3QFhXzNsoxJDh8H0el0UE8wNGTb3+FwGJ3Qjyh8Nr9ModPpYMeOITxk0F99/2vwJZhgBTp3Wn0nDTWP5+TSD1Ktwu06vl6FmmU8pZZslNRY083NxadpXCn5ndZr1HQRIJmRIDkkJC/mGKwqzYY1CZMCSxGsWim9pNvwCgd4u+aXgwzC/tXp3LH+KtPKuI0O7RTWGGEXWpANXjrbrSSJpYsy/28eGiKmyNep+05UESoogvE3rcghJkLmO+c1lVASn06eP0Kkv05o0oCevc9647E5A9pcdNO/v0ct55k/SZZSMaV7OB73+/37+zul+gMcEYNjBtBJz8/PO51Oi9Z5HuB3eTxOkhySx65G+kZCnn9e87TH1AtXrmsSEtIs4B4QdSkC1wQBOSAue0gdwlbcDqnXBDAthiJwNQjwfH2v18NFUvIMQ3k4O8uHeX8+V4Bf5ZA6GAx4zlFJDkO3NscNtjpDlqgkMBw+6wbr/AAAIABJREFUTYJ33aDiYZjIS+ewAAb3HQwGeMWSH0009Xr4CSaTmIuQHHkWFilMC6+xIHCh3oYjMwXu9C1TYBMmYDVZn3maq6sswWHcHolwQ3YQAGe4RWtNVp09azSdFm4USqiSXik0npkFLpI84CpOMPyNSI5hgfa/OBZBlMEtTC1687JJU7QokC2dsEBDQS6YV5CqwCfwly8+X/INRBXBMv45RFREWZozlDBO1nw9eOG6qilyoVC8dfik28XP8WTykBiwuejGnG34oFYolMu0CceeJGtK93AyGQ6HR/s7pdrRw3qxUCjggGmz0Nozv8Wnh7uFYv3hDJLDsIT9gtrMn/yJqErT3sJWRGFymlxcZn1XBLYUAddPrfirHFKpO7OCtaVwqdiKwJUgEG1a48kIN6TSd16owWKpudreDalGaBhEsNUoa79iSKUbF7CnAylfSWFf50xvgLGwsSCfDT02z3A47Pf73W735cuX/X4fRwuA83AU1CuCyRMtUbXMXMfjMU87pREHByCbLnpC9chtvg81+1Ctt8pfaEIDT2nvxCQn+8nKZXiONycLlbm07OTLWnJAJ0R4DiD8YCPnlqpIJC64EcNLTq9+4vziPERmOtudJ38yFhXKPJ4pCV3WfvN/TOm4CpDirPAupsfBciT3wa93JcUjzwBVU00+cujK0F0PeG7q5sMiRQizCloymmIUwL4Wi8VyuVz94EmXGMtxzVijYVXd+PSpo500q6Vq4zEddciXKA+HZMlWLlcPT/hmT7rp/Hi/vLNPJmrQxkw/fX64WywWifZQz3s6dAuz8UqOYTi2LoJ+gc57alEywXwP8hBZPA1ci2I7G3n9qghsBAKYBsZ42u12eXy8yiF1I4BRIRSBDUIA1AX6KgZQEJh4SDX6KsxBxZA6xGw+q7U4OQALPuGQSgo0rxMMhzyk+rF4g0C51qLcQPVwLTJzBRNFjfbNw4a/o9EoslhDTQ8GA65mCRrYDkhwt9vN3SVpdGvSsry6LJMxbqjUbpXGLe9AxQz04CBmoIFRYBwbJThDEJxeXEbzDh4ItFvmJzI5UCZorMkAIrBTx03uxlBKqr+BCi5iLdlpNNRXyQsIZ6VypZueNevRXo5s4KX4cO2ItkHYpkoX+1PcefW1FCEzNMxdIuZ2Kp80bpWrHzzFHjk+cbLf7z95vwqLNfp//7jXo9UYHHvIP77YKMmzy5h5wgI6e6IY+EUeDu3vuOnL8uABNEWBJPaMoWVzt7W9OEAYnCfq16ZfBMGWhaamowisDQFYN+BsWVgubNCQujYUNCNFYLMRALdxQ2ofXTU7pGJNBhovwix7SJ1sNk7XULobvJjOm3CYvILmMm9hVjoej/kUaYaEv0ofGK3xchCbrnEY6Xhl3Vompu7LI0Da5wyeefmEtypmQIzXLTl6JU80gLeAfrg1FjoBBnveYFpGN02ZqSOsrOJ/Prlf8plsV4WihoMH2ArZTFY5Xmqoy1zKZ3iLZEFuf1eSVeIaKF3PWXfj0vyWhgCmDNBPsXoDCwjcoXHlQ+rSyqkJKQJbjsDGDKlbjuMWik8HD2CdDos5fO9NdIgE255BQ+IdOFJ5ioqPRSFctc4X6URh9FURUAQkLUGHggnvy5cvo2vL0afgyYf0s2EMkERXRToIg+XTPJx5t+XLly/51OkZ/TovHfVXBF4HBDACoqTcd3B0EvcaHVJfh5agZdxkBNAZubfqkLrJlbVS2SzJGY1GmCHG8S84O4+PFsB8FYxhYIwIRWq2ZGhe2MbDTW12FP2qCLxWCKBf8CkdzEYw7ZQ1CmW7YRAbTBjLjXDY+cZnIcJoTRoQJ+HF9DP+Z8aVDKmeisDriQCGPDZL45kFDJ3mtA/aYQxwYBujQ+rr2VS01FeIgA6pVwj+ZmZtj5CWp+PJ8yKwYsMWLLwtZ/HC8O/+4lE0pCJw7RHgk1uwUxmGZ7w1bjqd4tyk7HksOIkfxIb3NMNiDUlhMuKi/U6nIa59k9MCXg4BTBxgKIQRPxY8MXfAfZDtupGLDqmXQ1tjKQKXQ0CH1Mvhdu1jJUgOG7Dxz3qv18PRatceDi2gIrAGBDArDE6CPY6DwaDX6718+ZLPr8TyurxfGYJJkoOfdd4SgH7KBw+soSCahSJw7RHgg0P7/f5gQPego+eC1bBlmj2r3cEhSY4OqQ4V/asIrAQBHVJXAuu1SNSaq+EsARwMwOWCFc3IPBedGOZE1KEIvOYI4PeXTwVgjUdao7F9C7MaWKzxIdHAkPcASI0KcWFoqv30NW9sWvxLI8AGaXJVky+4GA6H3Aej8zz4QEK2dEBSbK7GIumQylCoQxG4NAI6pF4autcwIl0Gil9ePRvgNax+LfJKEUDnwiqNnEFgExfWisB8sMem3+/jlY8N4DljPmwgso1ZaSk0cUXg2iMgF0XZbIFXaXgHDnDAamqn08HMBezZ+OQeHVKvfWvRAl4VAjqkXhXy25vvDWwGOD8/5/s3trcwKrkisCEIYDIYm5LPz89xxiCOlIU6BeP+iORAeeIT1WDxwoee8b4duYyzIeVVMRSBLUUAalO/3z83D7pqv98HgcG8Q0Ry+FwQ+GMXK6LjzB64dUjd0iahYm8gAjqkbmClbIVIN2BknLwccCsKoEIqApuGAB/BhE0yuE0M2hLOT8NKzvn5uSQ50+mUT2qCbQyM087PzzFJPDBPFGXTyq7yKALbggCfVci3/uGuQD5oB+wFJqPyiELumHwuCOy9MVeoQ+q2NACVc1sQ0CF1W2pqA+W8wUc8b6BwKpIisBIElnrRp7Tgh7S4zQZHMPE57OyJgwEwcyxniHlbDgxHsbtGmvuD3qR33Sy1RCvBXBNVBK4aAXRV7kG8AoNJBL4dgc/2wCW52FrDHRnHsqP/8snRvLYDUze5Ae+qC635KwJbhsBGDKlbhpmKm4sAkZzcj2v+cHFF7axRKaRuTG/XC/m3s7drhUKtFZctLykbrlUr1NtxnFd9d9fJh+nQtfEXziudVJgwv501d6Nr6fmTc1y8LlzMbfi7jNLx6jnuz8W+fxR+8qxZKVUOvupg3YYqdLf5YjLBqdCwhBkOh50OBcDumof1QuXg+WAw6Ha7wQG1x7Xy/rE8WjqN7yuViBqPfLK9I53pPN/ZLTn4SvLXLtfB5vTceULq92uPAAzSsEqDZVWQEJ5WiPoX5iOYwPDCjowFz/Pzc94dx3fNbdCQeu2rVgt4jRCYNaROJtIUAoXmSYrkkMq7d+IhdTxO2qBeIyC1KAECN/jQmMD7Sl5mK2qpr3n6DfkX8vT4y5Ccs9NmjdRAo4e1jFNqhd6dl2kS0DQzCZS/TLycr2FSuRJCjzxr1yu2LJn0rUcK7bywV+mfW1LLYwmuCz27zc+p8URPpdlqRr7FYrFUKu2Yp3zr3uP//161XD08MRcCnjYrxcrB467ZmvywViDKjd9cXGgjF3MMzzl9fnRYLZXK+/dxQK3dvfPssFIoVG817nc6vV4POF+iRGfTqekRUaH4dUajpc4y94kmFEhCM/WQ01Ztewm+nrZru3JiIj/fDP8XPwIxWwskT82GXGXT1bzXggD3u06ng/02L1++HAwG0S03g8GAxYE1GqzUcGMVdtCxLsXmbbBP46T4aGlOSh2KgCKwIAJ8gAfvYpW3WkenfeBsHnn4Ia+mYuoQk4+dTicYUg2R4tMRFxRMg201AjdWvIk5q6zkz9fmK9ZQ7Gqts7PTAG2h3wT+0ynlG+leLgR9ys5V5yfl4k1DIsHe7BDyQ2CpY2VznOYkGCh/nPh0OqX0jfp4enYm/cmdlC30pOgMvlEHZ6h9oixxVtPpNLuuBdlkgWcknkhxAa8MnyFIyZMLxYmkqxifTUVXKoVKJdCqOW7kSAHV2i8Wa63BAD+gY/MMnjR2d3Ybj3uk8Zw2q8XqwePe+fn584Mqo1IsFsvl8s7OTqlUKu42n4/HvR6FwdP5dK9UKu0djfAT3O8fow2zxVqeDcwFS+QKmIbOfV30b9jGKJbveqmW7Ksm/tqqiVVZH0wKIqNwh2WHDInOkup0QSh9ua4IsE0adst0u10QG2hFvHTDk8G8uwaAyE4X6V5YaMU8BeYseOkG6tSKh9TrWmNartcaAT7JEFMJ6HToXzyJgOEy2pUqOx1vdrVDaqeD3eZuSO1HRuB5Q+prXRPXrvB08ADa0GqKllZW0nmlFGvSYAq55ltSvyEFaNZDqrBRkmp2crretrQhHWvG9HZafJOajSW1Mah9KX0rqyBSymFc5EUwJtemkqV2eYXgR0qtQzuZQghJAIUNH02ou9RyoFm6tyuaKJTAzX2Ns3WAO2ll+wnCtmpgyKawlkTBuKXX6z1vVIu7h6fDIfqO/d18elgtVw++6pDGY1ZyGk8G51/eq5bLteMxEodGxSb+k8nDWpEe4jziKZunVCqhFhCgXC4XCnsPJ5NATia3C5QorNNZb679hFml3xyk7qvtsKnkDaS+akR9ucj+rw/m/cKuwXUnc/SSi4YhU1D364AAFCZmNTBRgzEMn94OXQobbLIrMDwrzKe346KFoXmgG7F9GgZQ/n1Y8ZD6OlSglvG1QIC7DCYKh9GQaiy6YTUqL5eT/SszpNoLUdBPeRcrSA7vgGUGFfGl1wL016+QtCeHJ71WUPy0spLOyClq+JpWpl1M+5V1qXp7ls5kNR4oZGR4VmsZLiFWG0hVYsU9lITVKZd5zl8RKxQGIND/+Y9fjgjiUpppehMKEeua9FXIQ6/BTHkYO/sWxTUBpDbpsULcVPhsqkvzMbCQRit0WYFbotUZ4R1bk9JyUoFwlEJlt1IsVponY+4gZiPNk8NbpUrjBcxg8DNNN+E8PqiWq/e+PKef4JPDSqFyePL83q1yef9oPH5Om15M6+LldZ79xc83ER7TLLEfwC7T01pO7aG7yYrFgKQXLFFQvCBu8CV6oXY19xFLpga3hl1oFDXCyfqqsV8N/jKLiAuRqK6fygTZnx2ch50pcLGkv7qvJQLohtxBwGSwOMP9FPoQ5n15NQa9L2ujz8oTK0aun9pZBhmAZwkhxoqH1GtZgVqo1wIBdEa5foK9qXIqwQ+pvR5uTQCrgT82snKP40kKHNfOIGJGA6/BkGpmCSEG76bjWOq4lgjcWG2ppDY5NycX2GhgCYuybAJSv/EKECm+YfQUyaEFFqEGUVKrJTkJ8ZspiylXEFIHWb3LRg59EiTHpWMDRq8yervutH/2dXXBHnKJKZGUIBsyylLd4rwEFk/kK6TymjQJYNqDUMQz9A9LBFGbodWY4t79AWZ8J5PJw3qhWCxaY7NiEXq5WWb566Nut/vVQbVEKzl02MBJk0jO8WG1tHfU6QyfPmifMluoPRiRQRr/TOPneDJp14rF2tFILr5LChcgebkS+SSMMNzavf8lXGHDazUr9SbbUooa4ZR91SS+UrnQFH2wdB/HLiPTf2UArJpKyuTcfhKBRVHH9UCA2QtrLZPJRBq6QBNiCzScGQBbU/AiPk6NaRKiRDcr8FoQzjDA+o9SmuvRirQUa0AASyg8pPJMgey5zEnQvySr4WVYuZOcSVFmSKVVHZw9jf11snevobCaxYYgsIkkZ3FoQv0G8YwCJ9iLSA2ak9efxKfQSIx1aBMilYuM6twiVqjApXPM2UgTSuLSTv+lHBNPpXFGMht90TgQxjIZkg2PVXPNOQQRYqIs2azD0pnvgmxkwrN+T7kGZCMTdLaHrwjOjh2BLZMDHPjU2wIEV/acv8Viten2fZ3eq+zcPvj63CzOjMdEcvZbfKEnflu7n+6Vy3utwYBOVCtUDr6is9GGT2klp/ksOE7NFs2IJEGAGUy/f7xXKu19SncJ8oXrCZJz8RIVCpVf/DzZTHIggPeiFCggOb5p5aRda7mqCeoL2MikfDBf6WEU9meHScVH9G1JNBLvqa6tRQDKCqssuDNXLs5Mp1OcDYD1UnkfDjQh3nmMRFivmsFYWJfCNAQu/WTlbGuxVMEVgRUiwJ0UeWA24dwNqRHJsUNqlw7swQrqaDTC2WjoaAiPKxaY0mSld0NqX05nSNOJbBT1ucYIrJjkkHohntma00zFOlkHoX5jghgt0Jvmy2g2/ZQaFOpPkaFXIheZLLuF/Fltz4jUrgVnvkmtjlO5CMnxkcLVCSGJDCLdIVHJYDIzhTAupUoQiUco8YbhcL2fNmvOlkkKs7Cb5Kw0zkgAsDKhvwqp4uLMq0FTEQenffM8rPtVGpwTsLOzUzsetevFYv2B+f1t0apLa0Kq0qd7xeJe2yyC865HaSfT7/dna0Kw/u90jogtfUb3rHs0ROm8p3EtVKIk1FSz4TpnlLR9JQwv+MTrgaJGOA9fNdFXKhG3E3N6AXqxLClHIUfqqTSsMWowg5API4uljm1BgBkLdyuQHLAObPqHT6/Xw4xv1kaUT2piVoP9ALM1IY6FlKVJzLagp3IqAmtDAKsovPkNBxXCAo3PZ8fGNlAadG2eRsRqKg4buNSQamcMgyF1bYXXjDYGgRWTHFlOo10l7K/gn1JZ8vxYhzYKUK22W8AMcV54+Nd+gZO4vJolpWP9iTxDFV+qWTJK7BaxgtRYYzs9a7J2TpEDkpOnt+UXChY4rjgi9yzrsImI5ZpQQrAUYdITphaVNIobfYV5mFNYnXhxoMu+O9ps24DQX4VUcabzahAV8QKm+e5wpLPDW8XqB097veO9crl2v/+gXirWH5iF72MmOeef7JVKtbbRd0Yj2oSTtWcrOts22w7DO5pgHzwaPaA0j/3+HwJIlC7Ca7ESseGYi03VOufhzuXiRH9jbKPP8lXUCHv76MFXI1hll7ff+GCypEEUTjJwcETRufJhDKLqyzYggP7Cx5qBafT7fSzd9Ho99F/44GBoHLDG56e5aQWyLHWdfYpko4nnCA/MNOv12REs+qoIJBHAUezSLhRLpr1eD11vZB64sVFnMBjw3VPobiBF2KSKfXEIOaOruiF1hPMMZoRMiq2e1wyBNZIcdwhyepklSS0SpwN7/En7oUfMH5M2I14zaZrITg1aQOEDJZNqls8+6xLEINTGXI4UhdxOjxR6mEgtG9eFF4G80yUucrckR1CarE+YS8y4IprnczOuTNzoO7RzVASVMa6UTPCLeIQJev1Vgukwcem6pjJLv680zthqxUwsvSCSc++k/3WjWqo2HveO98ul/ZbRoo5rRWuN1jHmasdmCajXe3pwq7R7cIrjZV3m8q8UDAWZJVLim1vrWLBEMm9LPn3zCz6aF4mh8ch2KNOAHYNFCmEsipLzkPAeAdGKaIWzQmczNKm1ULsNg7mWLKJ44UNPjiik8o3Ex1LX9iLAM77YbQxdqtfrDcyD06L5KhueDwYvYjqEI9d4JWd70VDJFYGNRSAcUie8toMNcv1+n87sMRMToC58RzasKtCL+UjDjS2mCrbJCKyX5AQqfgaWUE0P+UAU2GowIf0gz1D9MgsUTkNySbAa5DzoL3nGxxW472Euzjf7V8ifo3iZOP6UM6GHidTCuJk1FhHSOJ0JHOXuHuxCCQselSLKhZKSt9+IssQZRqZ92c8ZNkt5mWcmW0smlPA0+r2jsl5/pRp06cdVHJU9k6itCDYRNsrT88YukZynH9CB0c8Gg+P9cnn/mFSlxweVIglAU8L3ycrsfgezwifNW8WqMBIzoor1MaG7xzIkAfeli4MvWCKOZqqg0vTnH7imkvnrMHRR0a58W0JPcfjbjlNrnrpVIyGzbGPO7avG+RD4tRb3BbyGwdwJHC6Kkc1lFHh6hDnBWQtirpD6d8sQgGkoL8Xwug0rVaA0MFdDv2YDfdwVqEYsW1blKu4WIhAOqaPhcIiuihMIwGHQVdEfeZUV5w1IU7ctLL2KvBEIbDLJkQsCabACVY+UHlZzEZ5UpVhp82qQSNMQD7IlczPl4luSKcnvzi301BzFy4W0f4UeJr6Ece0aS1IwisSZssMkFSCT8snkIiSQyYbeeJsTN0NybBqmgnILksoo5Qcl29WU03TDZQqvIiOFLBphyr4ixNbGk8atUvXeSa/Xw/L38X55Z5/OUet+ulco7LVNEhNjufbAnMM+mbyIjsujfIPVyFgwLwYXxHvN0s4XL1F4nrIvqczHuXO/njUqrh+ZIjSald3mWbJCRUFkO3Fuj4D1OW1WqNPlZU3h6fEsywrrEvR72Np1a7Zq1opFgkIkV1L9u/UIMM/BdhregcM7Z2Anw+XEUUu6dMOAqEMRWAMCYkildRuQHAypsA/nUwohDBuF6p63NdTO65DFekkOaRs8B5yBN1TT8ZlUmUBNDGJlVT0T3qpE5M7oRtJgxqVFihTpcCRAYk92NhcXMfwr5GcNzITwil0YQehh4kMY13wwgjktUwR15yNTMUXu1jgtM0kv0UjkIhOeWVNz4tpzCOQKhk16USSlJJEbgjWihkRIFozJUxIlynfewxFh/dLtPm3cKjPJmU6nD+rF8v7R+fn50X65sP/AymUUaHdHZ1ShkEo2wryWYDT1bFs1iYNNRTBcqEQirhMpHw3GQcSCE8K7IpBs2RmEgJjJdiLdNrlgTiGCzmVuqrtW5706zl9MVdiUEbLFBw84OWdubeLk1LF1CEB5goaEE8943abf75+fn0ckJ7roZuvKqwIrAluKgBtSu7BMw7zhdDrlw9N4yw0KqPRmSyt6M8VeLck5a9T4QF5QCD+Rb5SkYH9OqKY7vKCWJTTm7D4TFwWaVt5WEKH9mAikJDn90uiOcV6LquZCfkozfIKSWkHTil1WHaTgOTolyVavkb65W6Fji93xx1mZI59kLlLsfGXXz50z4O26AC0QtV3zi2OmKv2rW6Ry4HNq+Q5OgR0UlopG7DTAs133KnhU9kz6QURMMtEGm9s71fef0L035sQzzDANnjSqRXpS3DtIx0hVCRV01/ZEUyFh6DXBrk2lC2CF3BcqkYwXrTWJT7Y6EvVuKtQZc7oi2Dbpm5xNigJbmWUbk26EDH0C6JxU5FmIbS/J889rnvZQOtT4AaATz8hsO50QyaWsf68DArw5B1QHxwzwFTf5W+OuQ9m1DIrAtiDghlS63FPee2OH1MFg9qmG21JMlXMzEVg1yQlm0ANFX2ohwCbU/KSSSnpMSgtMqnoIXKi34cgobU4NMpmaMIEemfVJ5pKoTiE/JeK1+SBHEZH8M+KFFILSdOIZVZj5mEmHVUNKatYqmcgVpkGGgmU01CBY7ktYOgpmQGNWJ5OFYO6TxwSJpxHIy9jQBoeG29pkPIE2o2FFymKbl3LkbyaJTw9ulavvf83TTjQTTMZpxcrBCy5yXhYApNbKsXUM1G6jyieZXhAskvFyrwFEmSSir0aw2FSMqkx0ZNSvq5Rw2QTtxLUN2Socv/XtIcqaROPqDjsg5fgnfyI6jukXYUVAKtPqfBaZ4qrH9iPA57bj5FkukE4GMxTqUASuHAFedz0/Pw+G1Ald2akHoF15BV1jAVZLci4GHEhCy26gD7UWXpwR6lS8Az6pk8FTKlispWU/WXlZQ8V7qGPll2khldQJCbU/pdqGqmFQXuYnFhwg5lZveF+KoxTJv3/+E3fcGehBjHN++Zb/xainQmOemUMisAXTpUCvrjhw/8ru6Egikfa0gE8m7b1SqfrBUzc9bPVml5cR1YgU0E74FATFTbUK0aJQhKiWHQ6JuEJ9T8uf9ZWJW8SygdjHAUgZObeTJ3ezFqSSvYyioCWLyI7b2MxkeFl3FMM0ThtAwCU2oZl00YaDSsFZCLZnGcFSvSyUSt+2FQGeJMZJa9taDJVbEbjuCGDdFacgXveyavk2CIFNIzlG/Zkx+UpqH2mQbnrY26jMWscg1ZM1KtJ7YNoUqKdRpbiMrL6VqydBvXNamzhZK0pv8VdXNBY4GxWqaqV5Ko3BssFyfFo1oRQG8ttiZP6I8DlpXsrbaKhSBZ+VilzZM+ES+itUXif+oilHuYpEathsA5+Exk8xTV3U/96yqUQ7SfIKW7lU14koTqIEyXGfLvk35hJhMrlfBSaCv4WRX+1NZg3EZPsPWyl+HyyfDGrZyhn+gJgOFQR7NVE1tiKgCCgCisCFEdD11QtDphFeGYENIjlGQVFdhPS5HH36lWt7wxIg7TPURzdMQBVnbQg4kmOoy9z2b3iLZEGObbJtZyg4/bbMIJNhYH1TBBQBRUARUAQUgWuAwAaRnGuAphZBEVAEFAFFQBFQBBQBRUARUASuHAElOVdeBSqAIqAIKAKKgCKgCCgCioAioAgsEwElOctEU9NSBBQBRUARUAQUAUVAEVAEFIErR0BJzpVXgQqgCCgCioAioAgoAoqAIqAIKALLREBJzjLR1LQUAUVAEVAEFAFFQBFQBBQBReDKEVCSc+VVoAIoAoqAIqAIKAKKgCKgCCgCisAyEVCSs0w0NS1FQBFQBBQBRUARUAQUAUVAEbhyBJTkXHkVqACKgCKgCCgCioAioAgoAoqAIrBMBJTkLBNNTUsRUAQUAUVAEVAEFAFFQBFQBK4cASU5V14FKoAioAgoAoqAIqAIKAKKgCKgCCwTASU5y0RT01IEFAFFQBFQBBQBRUARUAQUgStHQEnOlVeBCqAIKAKKgCKgCCgCioAioAgoAstEQEnOMtHUtBQBRUARUAQUAUVAEVAEFAFF4MoRUJJz5VWgAigCioAioAgoAoqAIqAIKAKKwDIRUJKzTDQ1LUVAEVAEFAFFQBFQBBQBRUARuHIElORceRWoAIqAIqAIKAKKgCKgCCgCioAisEwElOQsE01NSxFQBBQBRUARUAQUAUVAEVAErhwBJTlXXgUqgCKgCCgCioAioAgoAoqAIqAILBMBJTnLRFPTUgQUAUVAEVAEFAFFQBFQBBSBK0dASc6VV4EKoAgoAoqAIqAIKAKKgCKgCCgCy0RASc4y0dS0FAFFQBFQBBQBRUARUAQUAUXgyhFQknPlVaAH5Kc7AAAgAElEQVQCKAKKgCKgCCgCioAioAgoAorAMhFQkrNMNDUtRUARUAQUAUVAEVAEFAFFQBG4cgQuSXL+4D/9jz/4T//jyqVXARQBRUARUAQUAUVAEVAEFAFFQBGIEFCSEwGir4qAIqAIKAKKgCKgCCgCioAisN0IKMnZ7vpT6RUBRUARUAQUAUVAEVAEFAFFIEJASU4EiL4qAoqAIqAIKAKKgCKgCCgCisB2I6AkZ7vrT6VXBBQBRUARUAQUAUVAEVAEFIEIASU5ESD6qggoAoqAIqAIKAKKgCKgCCgC242Akpztrj+VXhFQBBQBRUARUAQUAUVAEVAEIgQ2nuScn3x+1GodfX5yDsn7J//cah21Wv/2bVSSvNcv//Hue//45bf97PcvP/7Z3bs/u3u38WjRtLJpqI8ioAgoAoqAIqAIKAKKgCKgCGwYAisnOd/+tklEIvPv498+amY8ZbCPvzJQvfjw7Zs3b958+8MXQO6bD39I7zd/+mg6nX7+d7cTz9997kEeff7zN034t979wvvC9eiO+XLzhx9+E3+i929+aXJGmLn/G3lSyaifIqAIKAKKgCKgCCgCioAioAisFYGVk5w8qnDnl2Avuezhzm+m039+93YFHOXmmxXQmbfe/J6J8sabt//qow9/moou+Ma3v34HId75Na3W9L/7Vjyf1PHtB+99IXy//c4u+uRJnsrSkq61Vp1mpggoAoqAIqAIKAKKgCKgCCgCKQRWT3J+9WO52PKW5Sw37/63j/gDezomQzHe/efp9Dd2rSXNK374oSU5b75dN4tC7/yRCcgkZ/TFz98yPj9snoyo9I+SpChK3UV3JKf+CVOgf7K0qP5P7OWYkouVAln6/dO0cWP6f/+T9FK3IqAIKAKKgCKgCCgCioAioAgsEYGVkxyS9Vnr43/9jhzMOv70Q7AOlOSLvwX1udMyVMQX76uP7/7N2+bbm2//DWze6ni/+Ufv3G08+hikxdmbWQ7j+IZbxnnr57+bTr/7/KNfff7R30SEJvXqojuS86N3aVOQ+ff3P0KEH/298zl613q5WF74tOtk+l9vTD/7f9If1VcRUAQUAUVAEVAEFAFFQBFQBF4ZgdWTnO8e3aHllLfqn548+plZWPkeNth8+6hh9+rYFRi3IGN25nz8Jcpm9+R8/73fYfHki/d+YIiGIRWW1SRJznef1I1h21s/e9Sf9m3Wb/zoo2eM2Xr35Px/b09/VZue/vfpr29M263p/1ub/vIPp79nYdShCCgCioAioAgoAoqAIqAIKALLQWD1JKd/8tFfw2jMLptge8x06o4QSK2m3Lx5hw4WmE6nluRkAkmS49iRMFf77pO/RpQ33t6/e/c//ggSvPXTR2ZFCUkvSHLeeJPt7f7DGzbR/8Beb1qvuSs5/1Kd/vIPpvdu2H+NP5j+X384fdqFKPq/IqAIKAKKgCKgCCgCioAioAgsC4FVkxyc+PzJh/uO5/zx3Y+N6dfnz76056QJEnH79m23P+ciJCdiQIZvfPn+7cj75lt3Hn33+btMT247fvK9N9/ynu/y0WzOXM1JMvV7hOhQBPs4pjSX5CD8v71NJKfxv03/p0tA/yoCioAioAgoAoqAIqAIKAKKwFIRWDXJyV2uefu/PPKHQY/ssWff9fngZkctZh4hbc3VEis50+lXH/7o9o/qP7v7jiU7b939bX86dZwkJkD87vJdxRHS//MXdOrAp/9A23I+vDMdL7UmNTFFQBFQBBQBRUARUAQUAUVAETAIXBnJufMbx39++oht0u78Jo/kZI6QluZqyT05qOBnTVx289bf4pocdwFo7hU9bi/Q8knO/5x+dGPaqE7Pp9Ov/09az/ntf9dGqAgoAoqAIqAIKAKKgCKgCCgCS0dg1STHCWwPg6YjB4wZ2O33/u1iJIeXWqxjEZJjzzy4edMdIe2kWezveXCrDp17kDhC2p0l7W7XmZX0+PfTZycmwO+np3DMCq7fFAFFQBFQBBQBRUARUAQUAUXgEghcAcl59LObN2++/eELQXKeNb9vuMvd3+at5Ny+899wavNHd2B+JkmO21RjN9lge8zo5MM/tYTo9l/crf8ft2/f/vFH33zz0V/5/TcJ11999M10Ov33L+2Z0Xx4dO4R0nyWNDm+/PdLVIFGUQQUAUVAEVAEFAFFQBFQBBSBZSJwFSSHLre50xoJkvMAl37yOg8FeDSd0k6d371n+E/mCOm/+eTb3/dbycs9DcnpH9mLO8USkGBWwjdwwvJt9iWkQYTgRRxIsMxK0rQUAUVAEVAEFAFFQBFQBBQBRWBxBNZPcsBt7jziI6R/+ujLf8DqDF0GKs80s+cKBDxCvPzwzp0fmtc/esdcrXNXHCE9nZ5/4lgOHd/2/b+8c/dnH35x7piVi4KId3/m7hhVkrN429GQioAioAgoAoqAIqAIKAKKwEYisH6SM+3//ttvf9+fTp3l2E/v3nnTcJU332n+63ff/OrHxoqMjnKeR3LeecdEfNMeKuDCw1xt2j/56uTbaKvM6MQf6RbUhyM/7gyD4GP/m9bPYE8nKNbNm2/84OcffyXu3Qni6IsioAgoAoqAIqAIKAKKgCKgCFwNAldAcoKC9k+abueMIRBv/Oj9L74b2SD2YOnf3H3rj++2vjJb/L959N6fvv3uPxu3tWS76W4XDUgOxX3yeevokw//7u6dv/z+bXMrztu/FOdWB3KkSU7/2y8//rt33vqeEe173//5f/4xWM6dX7fuVizheeMHdz48+vLb8yA5fVEEFAFFQBFQBBQBRUARUAQUgatCYE0k57t/BD2gXTf8fPe7D3/s7gi9+ad37vyxow1/9t4Xv3ehft+6gzBv3n3Ud2cJfO/tD59N3XWft9/73Xe0YDP65sM/MymYlZwv/hbLQzZN/PEkJ/AWL2Ylp//s84/ev/POH4sU/vhu69/Dy0D7Jx/9NUtPKbxZ+VH9V1/2neD6VxFQBBQBRUARUAQUAUVAEVAErgSBlZMcY35mjz0zh6qZYva/eO8Hb3hu8afvffHddDr69pP/6GjDGz9671+/mzLDufnWnd8Yw7BnH76NdZW33rILLLff+/Lbj9/xad28aUjON/8FF+TYD29WaFtO87dfWHM1GV66Ya723Sd15HLz5s03vn/nV25xyR1IwAcMfPe7D+t/xAV58+f/ciWVqJkqAoqAIqAIKAKKgCKgCCgCioBHYOUkZ/rbu55EvPXzL5wp2skvQULe+P5/bn3rPKfT7774B+P/vbebT/rTf/+kTqznrR//2t8q891vaGnnrb+6e8fQpLd/+c10+uV7OLnA5GSt1776+L1ftVr/cmL2/3CBnVnan70bHhLtTqZ2e3JomejNt+/86vNv5dJMhuSYdPvf/tvH7/7l99/8wXtfcj7qUAQUAUVAEVAEFAFFQBFQBBSBK0Jg9STn20fNn929+7O77/6y9SUboU2n09HJhz/9eeuF5BAWg5Nfv/vhv7oN/d89+lAwHIT49qsT+jz67otffgzW9O3v7H01nz9LJCiw/fZRg4S5++uIjzj/xqNvEdrzLhH7q49xGtvHXwlPdSoCioAioAgoAoqAIqAIKAKKwCYhsHqSs0mlVVkUAUVAEVAEFAFFQBFQBBQBReDaI6Ak59pXsRZQEVAEFAFFQBFQBBQBRUAReL0QUJLzetW3llYRUAQUAUVAEVAEFAFFQBG49ggoybn2VawFVAQUAUVAEVAEFAFFQBFQBF4vBC5Jcl4vkLS0ioAioAgoAoqAIqAIKAKKgCKwPQgoydmeulJJFQFFQBFQBBQBRUARUAQUAUVgAQSU5CwAkgZRBBQBRUARUAQUAUVAEVAEFIHtQUBJzvbUlUqqCCgCioAioAgoAoqAIqAIKAILIKAkZwGQNIgioAgoAoqAIqAIKAKKgCKgCGwPAkpytqeuVFJFQBFQBBQBRUARUAQUAUVAEVgAASU5C4CkQRQBRUARUAQUAUVAEVAEFAFFYHsQUJKzPXWlkioCioAioAgoAoqAIqAIKAKKwAIIKMlZACQNoggoAoqAIqAIKAKKgCKgCCgC24OAkpztqSuVVBFQBBQBRUARUAQUAUVAEVAEFkBASc4CIGkQRUARUAQUAUVAEVAEFAFFQBHYHgSU5GxPXamkioAioAgoAoqAIqAIKAKKgCKwAAJKchYASYMoAoqAIqAIKAKKgCKgCCgCisD2IKAkZ3vqSiVVBBQBRUARUAQUAUVAEVAEFIEFEFCSswBIGkQRUAQUAUVAEVAEFAFFQBFQBLYHASU521NXKqkioAgoAoqAIqAIKAKKgCKgCCyAgJKcBUDSIIqAIqAIKAKKgCKgCCgCioAisD0IKMnZnrpSSRUBRUARUAQUAUVAEVAEFAFFYAEElOQsAJIGUQQUAUVAEVAEFAFFQBFQBBSB7UFgg0jOWaNSKNTaGezIf7d5lvFPeZw1dwuVxmJhU/HVTxFQBBQBRUARUAQUAUVAEVAEth2BzSE5xE8K9SzHmW4SyZlNomZ/XaSpUAq11iIhM2FOm5VCpXma8V+Wx2mzkqGa7bqsslnFP2tULkg+27XCZfkqQXFZGJcFl6ajCCgCioAioAgoAoqAInB1CGwMyWmRTpvU0ZMkh9TrCz6WPBgNeG7UkGmQ+m4I2Cw9fjqd/XWRSj5r14Nlq/xiZpa8BMkxa2J5Raz84ueVvG95/sRPTtu1DAtdlOQYzEFy8ksk+dJ0ysWhhpH7JImTKX4Gn0Xg1zCKgCKgCCgCioAioAgoAtcCgZWTnEDhTi3UGBiZRZi3mXotKbyZJQVXF69OM6bTKa0hBCTH6OjGJ5U+q+NLIDnI3ZO9kEW4UhI+Tonn3NnhQpm/IbDBp8yLKWZyMc0GNQEkrwjFS4FDMS8igxPKM1tZWPfV/PXZzSJOOfxIliJIVV8UAUVAEVAEFAFFQBFQBLYfgdWSHK+qTjE3H87WM3yG1YBXZO2agkQ4StrhFd/094V8Y5IzQ4cmmT27WErugYghi3CfpN7PuYOiQKf3ZDIui0si8ZfyymWPNjzVBSVOyc58mKddhuEEa2KysIHUabRJQmaAQXh9UQQUAUVAEVAEFAFFQBF4XRBYMclpteUhADkKqNGDrXrdrmWM1pZNcuYq6KS9+5UcQx7ca0qxZprxSis5BgTJGwwgnuT4XKZTqfezPztk06WQzDfkh4xbppn5mOfhxaMQWXBEzaa29OQla3ijW6rKFSybnV2F01WaXGD1gyKgCCgCioAioAgoAq8HAqslOTGGKZ3bMB+riGeXcUh3zj1dbSG6QsTBr2zEEqXeg9WPs1at4qOnFGvPLlJfUxnM8yMBoKl7FuFzWYjkUMTU49haKAIlTs9F6YEXj9KLi08V56Az8jjeEmaefQsCX4TkmLZUa8NALlV8+KVByMqhPoqAIqAIKAKKgCKgCCgC24nA1ZMcsy7BCin0YFKXZzxOSQ3YiME/1rNpbj84AWyRWpLJzpGE1klafKxZIvdF8ovCSFLnhb8EyXEEw6Uvy+X86C+JXWt5ZiW/WbdjQdG6kBfPpZOmSVL4ROqhl83LMSIiOblPkJ2JGPiECduWNs8kL4qkr4qAIqAIKAKKgCKgCCgCW4dALsmZTCbj8Xi55SGdOFfFhKp9oQyzWnuCZnhF3GvquUpz5oNTta1cifSXvCeHhPSZhsI7wzNe3MgjALvNpqN2gjJl4aJStetYwHEkh9J0GUW1QbIFn7x4FDIFTuhP4Wc/9bYL40DgwhphxZkQUXb0miu520Q0iwJFhd2e17F5tkdelVQReB0RWMWQ+jriqGVWBFaMgA6pKwZ4rcmnSc5kMhmaZzQaob4nk8krymVMiQIVWSZIX+OVB/k96c5q7ZHiS7FCRTyVTkZ3TwWCXyL9pZIco6nvVphLeOGlkIHenxaWI84mORwMZwlYDgDulK0OJwPFmvs4NovAbvEtI23EqSiLWju3gNkatwma1pVHcihWPv/JiLRVHuPxWHbVV++nW1V6FVYR2A4EVjGkbkfJVUpFYKsQ0CF1q6prvrAByZmYZzqdTiaTfr/f7XZ7vR4co9HoFfQnzLKL3fyRYE6phapaaZw5nTWlSjvteYEzvlx0oa+blN0qAcQgxTrajhIo0zOEIVbgVP/8pYyotLmvtKiyS4eDNemIMCKEnoRIMuDgChIKPTkiCW8RCwpl6V8IplzoSJATX1KbM+di3lMMkKSiZ1GS06pRyLAsophxEewnk0utgYUmUBpX9Xl/RZMQ6W+NE50RmlOv1+t2u+ing8HgFfrp1hRfBVUEtgKBlQ2pW1F6FVIR2BoEdEjdmqq6oKAByeEp4cFg0Ol0zs/Pe73eYDDA/5dVnqB0hrxCSmk4BnRRVrKFai6DRocQRCqvpVKRSh0q4iY1aN6s5loBnIR43W22T+3JcEIYqcc7t1f9nU8g8qIvlEu9zXnh1Qtv2YJZCgs4gAMh8PTsiBOM7v+hlD3DIcrDpx14iR0UFghfUgSJyhu9gqvY3T6LkhwkbMtCCS7w/PlPaE+RPMvbl8C4HESR93a+wuhlMBiMzNPr9c7PzzudTr/fx5TEaDTazpKp1IrAdUNgNUPqdUNJy6MIXCECOqReIfhryPoGVzCv2wzMg7lh6FKDwaDf719mi06kJS9cIKGaB3Hy/N3eknZzt1BptJu7uXZxnFy77pYXoLs3apZjxKs6kllJPd65vervfDiPCzjOmrvEsvIKSJyEnky5mNtIB3a2GBYnEmRdnxwhw8khOSS/YRqgQ76kpmDRa2ZPjkOY803BQWLnF0rGaNUK9RqF3q2kKVMsD0eeKQCH2mwHpoSHwyHIDHdP5jZQpwaDwXA43OyiqHSKwHVGYLVD6nVGTsumCKwPAR1S14f1leZ0A1pRv9/HZDB0Jl69AeHB6yUs1jLLBfPKSnoqnfgsVPMgSp6/W/FgmpG4bydICC9Qi93xaJR4yrBKZMrpJ/fZy6+J3BbxEnnJ4KSmV+o13qvD31zB2cQLIdt88IAPYNZqai1DWngVixNKruT4r8YVsAiTTrAWlFf8mRxjQZLTqhlWhqTO0iQ2EE+KPlMAGXDz3JPJZDQaoRsOh8PBYMCTEVhfRd8E+cFkhFqsbV41qkTXHAEQGznRsKIh9ZrjqMVTBFaMgA6pKwZ445K/AZ1pOBx2u11oUb1eD6998eDrBS3WZiqXpN3KtRSzUOGU5hxdP7nQIbV2oWfnqrxUB+Azdg1BhDT+zm7NVZYQRqSfWbhI7ckhBC50oILIy2Vvpa21hZy2CH/xE097DFuo7NrsHLeRAsysjkVIjiAklD5Xn5VUguOFj8zk5AdyizT9J/L0tSAqhYuQIrEhPj41y+6Ex/Y4x+MxbEe75gHbwbIq+inPSqCzwmLtgv10e+BQSRWBjUQAu+PQSVc5pG5k4VUoRWB7ENAhdXvqajmS0koOsxqQnH6/PxwO2b6ff74vbgZjNGxDXoL/sIxAiiyRHKHC+iIZzyCSf3FEiEKTXivPDIj0bBKA9/mY1J1IcikjUo5NmtKaSxAPpE9GcebxijgnHmRnkkrbVvmyBi6Rl/PnREI5iWb8yQ+EnCSbeKXooCIpUV3i/m8WK/+NXKa+KCmCjgwCg5JSiAh8jk4p54Iwh+SY+vI1LpMyn2bUI+e/bSQHy+ggKqPRCOxlPB7LaYjRaISVHHzF6g0C93o9JTm+8tWlCKwMAe6qcpRc5ZC6spJoworA9UWA++l0OtUh9frWc7pkN8Bn8Lvc7XY75gHtAc/hs5vG4/HalKeErm/kl/6LLSYY1R/LAswWIijCdQP70QSW6wnI3+z5sfvwXTJG2wbrEesP9DWpwbtoyb+ygBTAiGHpREByQkYBaaXGbxmO3e5isMpsfQkkoFJkeIsLYRiO+YrCRuzOBUv/pSh5JIfKm7cnR5bdphwnZaI7YQJ8LHS2WjxNSou4Ob5YTGdiM51OeUcc+iMs1rrd7vn5Oe/M6Zmn0+mg5+I3fXMKpZIoAtcMAXQx5jMwV8M0xGYOqdcMfy2OIrAgAjqkLgjUdQ12A+YufIoaHPixhhtbAnh/84ac3URae0JzDVV/rjSjo0d6tljlyFfuOYVLOXKEnJWWJDlGgw9kkzI7AgYWF7IIcJ4E4wqDBYLMJDnTdk0wqFAMyyPiP752YmYC5ubDi5StREnaSd8ySQVF2OIXnM2PCQVQF94CJ/fboEuC50DBwp66Xq83Go34WAIEW9uUxBbjrqIrAhdBgBWmXq/X6XS63S7O5uF7F9hqFH0Qsw/osEx+NnNIvQgMGlYR2HQEdEjd9Bpal3w38CsMVtPv91lnwvwxTx5Do9p45SmH5KwLzTCfywjjSI6hLp4nhAnzm19gYS+73ShidPZztNbhI6nrChDgzco80cDdbTgcMkXB8joM/aFUQWeCP3bpICL6L6d2meMQrwAGzVIR2HQE+MA0vj4OQ+FwOORexhZr12tI3fSqUfkUAUZAh1SGQh2MgD14gO3T5JnRkucMh0PMP22CxT9bWLIiyOVRhyKw4QjghxgLL6AruOiGLc0i+XmjJK+mspEMH6cm5yCQMqYtoqTW/8qGc9pV1w++5viKCGDdhge+Tqfz8uVLTDQwt5FZYOMc5iN0SJXIqFsRWB0COqSuDttrkDKZq8HKBevsmAzm5XWpo0DZ6vf7bEhzJeXHwIMzEq5Wkispvma67QhgBQaX7WILHPbSzKABo9EIpIVZDZ83gGljSfvH4zHCDwaDpCq2HgAhEhgXJrxnFHA9ImkuisCCCPCUMMzSMA2B3ipXWaPUJpMJOqYOqREy+qoIrA4BHVJXh+01SJlIDlZveOaJFS+s3uD3GnoYq1ZXpa9gFIGCeH5+/vLly16vd4Wa3DVoAVqE9SAAtUkeGACKjnPSut3uDMY+Ho9ZeQLPGY1G3E+xIQdhcHYIr/lc1Q46Nt05N8/Lly87nc4M7XA9VaC5KAKLIDCZTHBuO872AEWHiT9uk5sx4mC41CF1EZw1jCLwKgjokKpD6iLth46Qxun+5+fnUKRgbQw3/8+EB4YxV0JyWI3D6hP2cWKX9oxRZxEUNIwisAYEeBFyNBrxWYXQqNCMuVvxRDIHw9VV4DBY1UEU7qG8oQ6Js0nbGsqVzYKllXcNg8hlA6uPIrBpCGA5lFcg0THH4zEm++TcAZu0cRgdUjetNlWe64qADqnyt+i61vIrlsuSHD4nGjoTbm7GbmbQGxif8PkwrI29YvZ50dnWBQ6cXRONMWjffEniqkXKE1X9FYELIZBtqEzXoVrxXjgs0XDjZ1t/7Argrc/gM5g8Zk0Lizlr+AUEH5PLULzc2u/3pTxQEHU+4kKtRQNfCQI87sjc0bB5T050SBqaOs9Z6JAqoVO3IrA6BHRIXR221yBluieHF0Z4VhjW/JgbZr4BVQyKV7ZVLRcLmLvIrdigNFlrAdgVqNHacvHX1NaJwHg87vV6WErlU6QxxcArOZHFmjyHDcsmCAmjGqY9a2AUfMgbEyomOZL5wCoPRmvrxFbzUgSWhQBGJZwcjWPWMMUmx6npdKpD6rIA13QUgcshoEPq5XC7lrFu8HQUVBMQm36/D6UK08PD4RA7L+G/BiCwc/r8/JzZC0gOFEGpuiHk7C0NaxBYs1AELooApg/QsEFysHcFvSyaR8AMMc9H8GIOFlphwAYiga66Hmtd/GhwjkAAPx2dTkeSHMif7b8XBU3DKwLrR4C7KubUXpoHnS7qp7hSHYuxOqSuv6Y0x9cZAe6nPBTqkPo6tweU/QavmeDwND7jn1dIoKlgnjj7g74iBIfDIc7rZFVJruTwnDFyZ1El+VmRYJqsIrAsBHhxA7vzmSrk9TKsmYDVYCUHBmz9fh8rJLyYg9/6Zck5I53JZAJ6BvaCkLySMxgMuCywasMs+HA4nJGmflIENgoBjIw4MoQPRYQpJjdvKbAOqRINdSsCa0NAh9S1Qb1FGXmSAxUK6++Yo+LdONgVsNxSQekRafrL7DHpi8Ojzr+8Vy1Vm88m0+mU9+QEStJps1KsNB7T/dNs2yOSvYjT3K1ZcI+8T9Pd0WlSe+UrNSk18VQaZxeRMh22XS8U6m37jSQsXDBZwt+nkMkkSH/qKysTcEohC4XC3JtMszHZp1W7dPRQTk7x0o70ja6Xy8XUe609nfKRl7ztDSYueXPDkB7kAYur3E9xpDvWbQKVixoz5ZV+Zn8VcTC5MDlOpWa63sHjLroq36DF/Zf35CC9JPkRWV3YyXheOGYywjpbXQb/S5XFXBnMvT5ZqGnqWuFXKGk6E+N70SJQ+NSvxNzONTfADCHDTwYc/ikOhDE/cccTGGkf7ZfL+8cYEGELyq09THA6NYPI3tEQdt3Gqu3Jwa3y3qdd7HTl5c2gt8apXOY9M6T6RLhLgqTx7AOG1Kf3dovFPflbgVIvYUj1IqhLEVghAusYUpckvh1SJ6TTZp/JZILjheTFEtx/Vz2kZuW5Bj5krgabft5ygwORVrp0Axu5wWAgEPR6M2rUHB51cnB7p3Tr4Pl4DKKFWwv4N5qiG8rR+Joms8348ZCU9fipNE9NVmYEij/ye766EIzHuSTH8AQ3Upohn5MOHS4Min/WajPLofF77hNGN4l49KZQa6JE8osGGaaGt8wjObVaAUhydsbRIE7FjyWHp2dcKJfFon/PTpukU7dceMPZOH3pyBI5oQCZ6pChpXs+IMj9MiRHyOCKYP6Sv6k73jkjj2/CqdDychtuDEX3lEqlcrnM/5dKpeKtwxdm4cbmRC3c1FFGjQ5Emf3VBcWcNJnPpUjO5NlhtVi991UHhxx0Oh3umPST8vigWq4enlDPxcNbGqJfavc98ZcRkFVXsAR+ERU/kWae1xpbXVZyaqvZxpwnqvPPpuO++L/cVYVXq0Y/komfEaujR2jnvLofVZcwN2/nMedv8KPKYc1PtO/77C8clJHov+lfWvalsGoAACAASURBVBvAQJRTANtTRMrCaXAzJGcwGDyol4r1h/jKh3yORqMXB/TLx9JOJpPnB9XircPT4RATFmQZ8fi4sV8tFou143FmiXW2eKHcoshCTutMDak+VLteLJunVCrt7OzQ70axaPrRi17v6b1b5dJ+S5IuVhmZkvm01KUIbB4CCw6pEBzTARh8Mc+ILXawBkebl91hicX1Q+qYfg2ilNneIT2kmqlNaa90iSE1yvF1eKXT1fho/4F5stBfHohQPcUojgldTEWLCvODMUYRmgk7qpXLuwePaQ6MyMzu4bPBwJ7RdHLIinWxWMRvd7FYPTRrPoHAuZzEhWK90Hlk/wbjcZigHGKlmhJEyaZ4WZ90skJnbdf9oEuZLKA0GFkIf6k6RAJCsaDcaay1lWWFCQGJIl7u1WVkYqfTJ/2AAWe9hx1BvqkqppDhw8qKiBvkwv7pXCzlNupjguMZhSZfU8F16dGJajCV4btx4OBX0rFCVZUEg49oEgmx+SthGz4uQUw4wUpncH+vWMysC502q8Uquifvw8avx8M6dcm9T74+feot0zjBC2/tSzaApCcX9VKONbS66XRKuZhFNm5F2aboqiSDeVCuOS2KwnJFBxExN+S7j/8YhPe/yVZs1zYwtWRnjmzkBYTx2ZDL/noEnkEi0U9ZGqVUh2Jgg7T9S5CL9w5cQdllgpPJwz0z11AulwuF2kNDXEbmGQyeHdwqVQ+eZYdUI3y2NkkS/hELAckVIBDTvOQMqT6gHVIfN6rFauNxDwQM84aDJ41quXrwOLhuLrmtzienLkVgGxC4xJC6TO03AxGPgOfn5zwhGIXii7+jIZWPUpB2TJzghYfUKNdr/Uqnq43Ns4raPWvU/EBIw2eh0niBawT8DoRnnq5gaC/WHxh6fVwrFqsHz7DHevLMmGAdPMfxU76mYa72hMhPetpprjJEgsWzklGlB8NPpBcGo6wftIIoUXKv8JpMlsdg+hrIQyMlD6Izs6WQYdwguM3CgokBuG0XduYiHKR08Zd0+h7q6dTYyJmCG2UC7cjX6WzQjECBSiFEDHJhfwacfexS2KyGZBB22mvyr5tt3Xs4HvNkKm4kxOpHZJAZlytqmTIPo556sVmXDbHlBPHrycch9D5LkJzJs2a1RCs5WA3GKuupmdsu1ts4rYQPDgFQ+AW/6C+ya9VBXYiKFuVkLVxUzCWdITIukYwMF2x1aCemS7omZ34YM7aFprUEfdk08qCAJMyMPotFXcrLZiGAyjqR8iIhbVzfvww485u3y7P29/H8gk2KKtrbWJ616/LV1YDo7N4rdPl2Hvq7t7m40S+KXEwOG1vl8GQEFYSozdFeqbR3bE5HPP9kr1zeezA8PdyltVdX3vRfM6ViJEl/z/iGjcGVZcqGD35IzcwQY6/Cyb1qsd4mJnZ7p3rwjOcj3M9OibMs7jYxn5geUjlvdSgCG4wAdw3YRywypK6uNPGQmrrFns3S5JDKK0tLHFJXV8wNTJn25KxNrHa9WLrV+NqcmQaVqNvtusUcP6iABR3vlwr1h8zFKVhrv1Ao7N3vY7+1lXzFJCcc3oimNVvNSq4u60vB+uKF4DXDPI81OY5A0bEGe0Qm5ysoVpnIFConI+ON9Q3WG9r1QqVhzMnqNatgpdXBC5XbBc4UgXIX6bMYXoEzUdmfHS5FmjJO6oJhSFQc/Z//+InYIC6JZxoGTCJFxoHTBEstFtlQPCvz8uVLHEXw9IPdcrkMU7VcqURjIKn4lZD0AiMPLzZ/Fdjy5Hq7USkWyb4Fli3QgVhpY848PjmslqoHX3XxK9zaJ0uY4n4LTAx8BlMPjAO68wVJjuPSYg1EUAVbMqmScnaLOtbc6phO7DbPTKuoNM581Rihg6p0xch4phu2C26Xa2Y0OR9yloty4UrPDTiveWcjxr+QYVM04U0BuUm7JCKsnLf/Oy/ATNxMQYLuVm9HCWJ9FZ306/erO7cPnvZ6w+HwYb1Y3G2+eMUhlfumL1CuC1oRjiHNDKk+lhlSj/ZKlcNnk/F4/OSDaqlEMynTaXuvUKjeO3FDqh2/pLK1Tg3BS6wuReCVEcgOqZgxZ9rwyjlcIAFMNOAKb9gxhfs1KCks1/BZwYPBAGs+yx5SLyD2NQh6Y51leNGoFHcbJ+Z8at7a6OaK/M9rr9d7+kEV5jE4vol3Nrf2i8UiTZvxzdPQtBqPyfgZfIkGpPjhScfZWmwQTY7r4XhsRU1AJ8anhegKZ5gZyBOJG69QEvIyGdXaNPVYawZ7eUPtROgQ0ZhtEjbIxJOFvqRhFO9PcUXKJqnl/OfKFaQvxAhKx/7scIIxxMJh0A5ChhO3ogBBLuzv4hrQFqw7ozwlNU6e45FnN41Go7lLrGFjaDd3o4XTS5KcM3M0AvZJW8OVT2m6ui20N5L55LBarjaeDF6YgzT2juhERPx8w7gZxx7CNgZl4WXYC2hOrZrviQbDSuPMtA2xiLG8FrjaVmfYFNoAbLEoO9vpqC2hpNS6MgTVLlcGjc0o66JdW6frxUDJNrlciHwbtqhmE8z38e05v3lzr4kclJ0vji9+EMzVuPR0vc/5mTCxjCEI8df0u+wvJA+XDqK+mBBDYHN5Qy2eNsg+7bkZxTyScm3ZSWn/ikox4dOS5Ph6uGxq0sQ/M6T6MDQ6frZXPXhut7Y+Ptjd2am+/8QcOVAs7rdAkHqPDyqFyuHJmDfouinIqBD6qghsNAKXHlJXVyoszsByCgeiRntTITNvbeX9NssfUldXyI1Mea0k52G9UKy3wUoxWpyfn7sLPeygMhqNnt7bxc5IbLDe2dnhSWW7AXu/dVSzO7DlJmxjDhfPic5XwUnzYBaUrqVwPAavSI9D0bh46c33aTkShuwYKe3wHMgZlUtoObGWQJmZdJxm4HK3leLGbLNfOSq3m42OvOdC6rLI++uzljUoJA/oB/uzg9IVReZsGKIg5CVJDqe6gCOsDt77iA02OLqdD1uLzNLyUueyUACjQGdqQXjICWkKbNpMCBEniB3S+J/WZAzJMVO/Vhaa633S2N3ZPXxKbAhHTmENiq+E5/lgzBOD4ciTFfLKJfzRvEUprLNSqzM9SFe0SGRx52pb3efyWMWMwmqaqyle9pMpAbXY4JMhOXGf5cJa6NwvUtBfOBCajQvjvYUrJ6IIQc6weUcfk6/c2OyPT7aSvU+l+dvM5jH7tdYO27D7sZKnhUX5z8YNgX1LMF31YS088wPnf9B45GqEiiOPc+AuFmRusnZRgi/8ko7InwMHemjOkGpDmink4z1z2EBmSK3W6mTDhsOHcJbpgZkxXM+t30Fh9EUReAUEljKkvkL+c6LGQ6rhLnISAcMl5gRXOaTOkfP6fV4HyUHjO2tU5fQk81S309oMKseT1n6x+v4TaEV8lB5WcuyaDw1ptQejEd8Nf7xfKu7zUVx+e8aitbXA8CzG40VTvWgU0mAu+PgpbTfvawfa3HSEuVqsGxmVKOUJBUhSAojqFSOpZFxkhJ4BpTGKcwxRpC/EYN3L6A2pItfo2DcU2assXC9ZwE2JvHGUEY9zCYQVYgT+M16iqsFpGbAEY5t4MgkzhzhlZUuVL/Dzyx0QIlURXmz+Stjax84gGA2MpHWNgVZTP6PNBi1xHCLZN3/dqO5UG1/30RPRSV++fClpDH64e72nB7eolHysk8tz5t96G6AFRePGIM9B5uLMqIAFPq2h1RkpojZmJZMtxHcuITZVX6Afm5bvqkkEJCenxkmRTxCdg8kVDDDGmfVCH+NZIc5uTkwhrZWHKjQUICqJ2YSTbgMIyU0iEzHHYxZuLor/xYApP+ZTMQ3hrA9cWPprfj8lyUnPm1CwoCzYYjQHNV60tL91tqtmtv0Ui0WYmMr0ivutJ+9Xy+Vy9YOnfkj9Cocfjuh0eGNiR1zIdPOjbrdnrO9k8dStCGw4AnzTo1z6WHC6cHVFSwoAAyXMBnLW+J3BjXMLDKl0fAiM3yRT4tTUwQisiuTAHGUymeCcJdpaUH/AucIBI0Vzj+Hp4a79Wd67T4dBY7M1+A+f9BKdR3HWqBRvkQG0V91MutFrlGnilTSkeMyOgtnxWOpVUYjMa1KlyISa7zGrONAPhIbHmVKsfNUhlaYZpIUKYiTzI72IYofzym7F6k9SyRDCzC9bXghKpFDZdXq2SF+IkaYfQZI+oi9IAJEvrwtwetYMVMkgF4Oq1B/mutPaGy+mQ5lwtlvzdS9R/KCgiZdURfjo7iuOgW7SJmS6EuTkXrV0q/FiMjlr1WjTt5s6GNwnknPc65GohGqBN+1goRXshXUs3sADgCqNM8xjJeRc0MsJ7IOTGBZerlP/9RKutbQ6Sz98wyNBSX557IeRRJ5NjNJQ9QUsJb/BmDqye+dcJaYWNlMp+F6TA+LcAOl4YV6ujGGJ0jGdL3dSnrwwXy4sTyiJSz38i7zOmreKtfsDcJsZyoT5ZYishVPTbVTqeKzxvTKUgN8QgIdUDIi4L4vDwCGG1CGHh22MHVLNCSIPjdGdNYyhg398P8KQGiWrr4rAhiOQM6RegdTc79iUNFJcIRNfYY/wU2MijrNM0VUxV8iXQ2Z/fF51SL0CbK4my5WQHF53g40+/h/c3wsG8qk9Fub8k70SXfdpBpXjCSwXH9RpropVSCyyYxM2D4qs2USDRPRqcE1PnVrIUwNPUBs8HlvVhETNe1gvZPHm2hFxlMx2apKCiuMGIUglU6ZJQRJPKtNGvN1mO5q4FcFyIOL5Qi49Rnonhik+5V5nuzWTr1QyRC6cysUcdFZ4xVxmSscb0HqCT19qJ+SO5kSj0whERF8QRi8EwQcIayGZS6S+UNyMJHMKzT9t7AjztXPDUbKzGoOppfyWSTXli2yq6aHZV7Nb3j34ivbSdDqdJx/slt21VASUa1ejo1qptHfkjwmhLZK0J6dEN+Hg1/bFQYXuAun5A2rnQHChz4l25avMl+tCacrA62p1ok1S9qZC8xoPFZCrwAZenORQb/UQmbJmGir1LE9lLR7GM+/3zfnHmrrEMsfNudtezD2Rws/M1P1CuuL4HwSTVfRq/MzPVJ7FmvwZSQprAlBRqZiTycSYIbiiR3+pRs7addoOF5TI75b0WVB1BzVIn9AGolSjV3Mq2gCdlP/PKk8YeeUBtVD++F5v3Or70MxoRIcNWElC+u1FV5cisNkI8EjKjvXLi+6GaQVeNRXHa3mJcDCP/ERDqrm1Eos/GFV5zcefJ+zTUNdCCCyf5OCACBwMgIt3QE/pSCW6UtCPjmgQ9t6bMV3i+b/a+561NpZkz/M0CDFP0b0aIfd27t32pu+6EfQjzPfNE7QN1rY39wH62AZbm9nMG3TbPsbmFQ4gCQzzRUTGv/xTKiHA2A4tICsrMjLiF5GZkVlZWTSY4fMfF3CT+b9+/Wo/DCLDmB0kJicmkhMEaBT8RzsCzIYUvfzL3/CQVj968Vgr/FPC5Yt4xSTEFnNF8AaNr4pSFgbR5eTIfGrTxH/pLqzdpnGaIMX80fT07AxPACMy1bIzpRx0vkFic6wA8PIsywhj9eydpumowIKXepwdBx8wEkNa5gBsIJdpAkphqIEIgKAjuhKAqPrIzjNkNXxZWolnBJhm/f8gg2iExUnf/s5gtLCG4LSKjTlv+ZOdh+8X9FLNh+fjnT/Ba9RSe2qSJ5PhcO+1+dwndMGfpqOBykYhNb+EfT9nNjYcNVXK6hit1wcdSzya15E74ewdGp3xGWhE1iErmoC+LkRG91AfLovkyGQcoNVYGYhBbc7gWK8kcNRykbs3t1kkaPK0KvBaFWFFvVZ6J9D6ITBE3/hvOFZxzd9o8hccpGy92mmIMpRwKpQvTKKc1IKQPkeAmLAbZ7z1EnZD7B/Xh1T8TLaQ+iFVv8M7O9AVQ8IDN7ztTnGFggVwKgvPSAQCgUAfBOjRDc1tFos0pMqrFhkH+raVHDNAJ4KUD2eoRdf2x2b84rKJwD1PcuybNnSiAH2JlrYPXn3EQVW2T+DDHNp9eHX1ViY5PETpOpzY3g4q3DXnsxrJV6U5yNMcm4K7+Rhp76f9JBpetAYDl69idNXuimilsK48pVdSkM90Oh5NT4G4EpQk/ng3RTwpjUEMDWpOQZVNq7TFJRcyzSRnyvMKyYcj3WZWQZsWNv0T6Sgt4e9LSnCTB3YyFbEJe9i3MhQX8iAoga9SGLpsX5anlLlUWAQA6fGDsg0Z1nAGw8EagtMqNuTgKYX/eiFPY+DMj+e7O89efFous4fjN8eT7e0JbdbXdbIyMAW2cEytA+teLlgFx4wEOMqeZDqSXheP5nXJgc3cxsmHkxZ0FhMZKwWYj7sFzEX6qtelQsYfKMfB2CgurazLbbk/AYY9fjX3lpYIopW+VKogNJIgmuwSMuvNNrFsnCnPd+m/g86Jauiy/OwyFwNbh344jvmAWdu/9Knr/TeytdUNqVf6sV3iZ5d+talyXbLiJkMq3CEAN29HUkskAoGfDwHZLEo7zWh+Qt+as++pEjAyI5rTJvA2XK6ptsniTguBO05y6CwB+swzzTKpP5XHOHxmGtRL3e7FxcXi1V42naDH63BrAZ/+lKFdozEvuBlFUkBQeXQDXXb+8wvknmlj7LFEpl6YgnUM7KyCGWVdYGG5JlZcJLuVJm8MBVbqQhym9/xBVDszwfkbM+Eilf/Ivx0wIYfJJBG0IwAvTKWeXlmOv5RA1SYT9wQGb2qUk2BHSjPJUQJdlPWY1GvMwxQWxZcVGbLnMEzd8z/67WbOYLRgQ0BTxbb1Fs+kTnHPSZq0XP7rUJ7G3NzcfD6Ej358MNvSkuwn0Drp6HZdVTKoioqATPlwQG7fOcHqZAywus1gV44GPc1Mj+nuy+uUMWjUkBw9oeyyQFnXA2Af2G6ztWmz0bHlbzWzqtgSE3d/FcoVwIuiOtepNis1AiNigEBBTG7gO/3WTLJzSULFNvXKS1O+gnRlLOI0QlY2pzBfqgzyD2YdQ+rx/vbO/pv6kLpYZDMZM6Tmt6C+x2hHCmKkAoEfDwHbVO25AnRE4eXlpTRJmufQEn+2bihfxWl+xf7HA+4babT2JIemlTKZoUNjZXOw/QLgzc27CQ8AYP5/H46Hw9HRl6QpjliTE9jcj07wZo9D8/JJjoBjxgzcugCLT6PRis9+S+lGAiThhckGiam3Y2ZixkU7DDfGFazKFNGqIRN+GL7QECjEZegj4xYIyaUoOt864GcvRYShtaUUVtoOmIwYGQJmOtcYRFGwFQh7eZqwFJ9NBDf423/JPh8UZgxv9MCKKVvBCiCmBI38rzbB8NqxlB4NzkWXrhiI76/4X/fDtZxBcaPN9zPafP9qMhz+9dXvv9NXxkAMmOTA9rP5vw93zctvsGz87PC9HuzOIuMk54S/TZY6cYaXieg/Rt73Ps+pNyIHjheDJidPzuvQJ9HtpK1h25SFiUwLewlexz0q5iPUwseSprT6A9/UItgoajMBlsc3juxqLWCx8sK9pSXC7bovua4G6LFD24J39tYXgCHgvlF3CugdTTnonKhKoysmlFchU62BYbVzeIcdUXpi47+XQKDDFxT23+jiAlZGEVV1GZiHVPhKrxEWk+u3o5xDXAcCPyUCFPrKE5jf8adD6u0tvYozn88tPBQqm2+l6M3yDTq9F6n7Q2C9SY58z4jeWaTPotGHn+m9KJrkiEUljqSzmCav0sfRQX7obWErFO1NXC4pjEqa1YNIu+mZO2sYV9zBnWtjgxxWDJl+9HLjn6lP8x09i2ooJalF0qY4UMYJk0FBkLpwPPGfTY/4zGXG1j2IwMzqKIvSgCTmHRWRMCW8GEbsLDqpKQtlXXCWMy+uDX++J0ycJFD7H/78R/PytOrOJU3QZtV3fFpbxTDfliKmrizw52CR6lpP2SSnKEjXybHXc4aEG3TEb/a2tyfHcCoaHNw8evGbHFqIL1KPzCRnV7bQfDkabT87en9+Dm/Qme3+KEw6t12DLVBWfdWevwy6mDULtsQG/9GsFPOlByAKdd11Mzx71P3gXkcw5sH1Kb5fR+qwhq6Bs+iFRjpjYZLsf0UjpmiX9WZlevN/JYGhlWQhvJ8hNHmKCiAwtkQ090behRy6JoducpV65lqjdv28HZ5EbUmAA2tjkezr6+u3B9vbB287hlT4KNzktX2SQ2cx0U5vbY/MlIfUfNMp3F+/HTHX+B8I/LwI0NxGTpOn4xbtkHp7eysHplmYZCaTDam0xYl2uJVN2HKI9IYIrDfJodUjOi2NPt16fX29xPXdxWJB32hfLBb2dBeSTyY/paVhTwW+BWl3uVCQxCO+/4+DDRCYUaqLnku7ULXs6zuB9INZGmWZsfuP0YkMzMjU1+Wo8YICmjIIwMIytDv5SN+kEfD3QbYgg5GTBEz1GCsxXjHw1xEeT+HAZamu/iSnHU45neyFBzAdQJR0BEmkRqt7IvORBCKQ6G3a1panUWCxUy24IRkYEwY/8UnFnb/lVeBeRKkiJZQPcK7U28MZsCJYPeJPXlCLo+fmH57D5zK2t7dhnvDilB6jy7N16napOcMnyeDZqv7Ii+zMJ62+w7EQ8Mv1TW6vShUYrMwwhhCLYyH0ZFsjNUlbF5b1pVbV9229zkhHjsoxMbuZ2mJ1KimeNOrHARYL1v41EK7VqNYh8zmfSSrX6wffAwLTtDvpmYvWmJ7e8A3tMA3qPumcQQRWBpIy7RTImh9HlgKc+I//tcVHscsnpOhM0e3tbTqZXQjo6zcDc85H55AKS4f0Q6U2aUcelbgKBH5KBOiBDI2YdkilYwZoAYLCY7tdLR9SizfoaNPaT4no4yndnOTQQxs6I0JOryMr0vf+JDaSh+NiaToHRp6VywM+mh3ZXYwtRWGMrA2faRSBNTM4svMRfjJamxjOjX9GBs4/mTjhfSBu6PP1Qr3lhnA7VCuJphJ/HMloxE3xJYymRmwtUUuB8E7sGlGeB3J68UplUReZaOUc6teMJNxFwWwtDhxWkFQ2AQeUxOcJHgGDUr3qXrnsFSbqystRYNFBkBdoXjt9Pdq3sNuTvo68WCz0oNibG1proM8nE2fZrE9bXGgNib5HJm1ZXp20p76sFqzWVFMpsksHQZN78wZGnDkObG4G/Ef0uiYizRu2HTWJnsQNsBfbzgkkKsz4hUB3+/4vtLmpj8m4k1WX5WeXGfG3HVIzYXjjgOooBNi5VW0hJJEIBH5YBL7lkPrDgvotFatMcuRQCHvON01g6DNk2SRHzsJb4EuQMuWl02DocALa2EYHTcSzuW9p8Mevu5z2rJaBIxsMkVdNkGg6kY3WODXycx6pFkbxjcJuYO7nTsL7URM0b7FfR7bnutAGGFlrkC0uFxcXtNAgK080O6LJEpXCs0DcjrVSsdZko6T8Bjk/oNd9AxSjyntBIIbUe4ExmAQCD43Atx1SH1q7n5N/PsmR4yAuLi4o9KGNhvR+FT2TOfdb9qkIf+4Gvgwoxw/QnsXz83Oa8NBOmGxv8c+Je2gdCGyIgCwuzOdz+pDUfD6nyQntVOHD2fWQWVqkkFfm5JJeqzs/P6cHONR+ie2GQkbxQOAnR8AOiDGk/uTOEOo/ZQRiSH3K1rmzbL/IThViQXEPzXB4W++NvHVDsRRtTLQrxHI2/3K5pG2I9Mhvjj+a1cgEKSY5d7ZWFPxpETA77AEDiZxoKkJ3ZbMZPSxdLuET6fR8lXCjNii7RqWp0oPW5XJJBWkDakxyflpnC8U3QSCG1E3Qi7KBwOMgEEPq4+D8zWv5hWYscgY0bTajDS00UVksFpeXl7///rscLUBzHilCoRKR2RMt6TRxeVP569ev8iTnm6sdAgQC3wUCNJmhxkUzFpqH0FN1mcNQ46LtoPI6zdXVFT3MkTZoz+aXtQZpp7KocXV1JQ9mvwuUQshA4JsjQMvANJ7aV91iSP3mpgkBAgFBIIZUgeInSfxCW1wkMJLFYHmLhgIpmuHQGtX19XW2Y42Cp+VyKZGThY+iKFpXvsTvDGZrXZY40oFAIEAdsbypTE9E6R25+XxO8xw6lV+aJ9FQG6RZjbwdZ1slPcyRhzYWaprkyNTIlrJkkQ4EAgFBgHY30Nmy1AZjSBVwIhEIPBEEYkh9IoZ4fDF+kf1p8hKOrAdT/CSxjiz0fv36VU6RFonlrs2hZ0FXV1fynEe4CVkkAoFAIEOAWqUsNNBx7TT9kGcs9Lzl/PycjgqQIwfoySr9lZP77bJC2VQpUKODB+TFHvv8JxMvLgOBQICaGI1u9MiU2mAMqeEbgcBTQyCG1KdmkUeTBw4ekLNlaX2XNpXRgrHIke1pkT7dBk9CTAl6KETfhaUnP/Y1now4LgOBnxkBakc0/aDnorRH1H5QWY5Ho0w53sNuHKXmLKe0Ew09Pm3BK29b/v777zRlipWIFlaRHwhII6W2Rg9U5cAPwieG1PCTQODbIhBD6rfF/+nUniY519fXtEJMx79c4E/mJLTFZT6f00qVBFLdatBgQF8ItQNDd6m4Gwj8PAhQu5BTOmQ2QstO5aZQeRWHJjYUYNkX4ejlHDkLkeZLK5/JfDU/at0/jwlC00CgDwK0zCfb0mRlgYbOi4sL2kRKrGhvTAypfYANmkDgHhGIIfUewfwxWKUjpOV4NFrEpZ0wtA3GfjfD9uM99e941NOTQ5AFAj8eAhQG0RNRetlGTnCmJnN1dUVnr2dTFPq4DU1s5J1maaqydW3ddhfLED+ej4VG94KAnOpBhwrQdxHsegTt8Myef8aQei/gB5NAoCcCMaT2BOpnI6tMcmgpd7lcSgQ2n8/p4IGfDZ3QNxB4CARoVZhipgX+qLn9/vvvciQ0neN8eXl5daUfurm9vbWTHOrW6dUdmt4sFgt6gechxC54wmdYKx9F7f0hzif9OdFC28j4pgjgN383+obvHcWXF0oXi8VyuZSjDmlWIzvT7FntNIbSAErtl8hiSL2jdDPDowAAIABJREFUDaJYINCJwI8ypHYqGTfvhEDarkZnCdAnO4UP7aK5xt+6C8PCpHeCP3KfFTidjrZG09Ms11yuJDC0K5IQnOlvcqLkEI2Np2eUsXGNGNtpRZUwUWvum5odbG1JBAAS1qLPLmaAv3IoKB3/24axsBRQbm0pXAWrHhl1/s4KJZeTSYf8JXmZg5J3OltZpkcO9b+fD0cDdiGKeOxuNN7f8npvONx7c3V7e/Zy938evYfT223wlN6f+deL3eFwcnxDlVNZ2mjao502ZiZ1ReqGUFpoMjliK8ykhW9v0ZH6WM27n2PR7wIU6Wxos8nWZNaP1xOgOpuOBfZVNnLigvVtz+Zu9ryody8gRh9T9qykQob986bCl3xBHTC9bEizTzXlm1Gy1iCzmvl8/gXHhVM+q112OhAr2a4mda4cUqt+vk6Dkqpub2tt09y+12T3mNh9txSkTr+Wn5dMN865XzzZ6+4g1tr+UOJ5J13AOXkIa4mNY6jvSDfQtFULtK/jyWAwmn7SQdB+zpFWGWgraVooBJX3jvGDKHZI/XI42h4ffri4sJl2SKU2nmK/lkD98hEcCfwsSm5QXsO+gG0+rs0O8px+0j0W1Z18bxPh4GOg1PN+67MBql0Yrt51t6u8AeNYK46UEhwQAL7tn0wSCkSd2+U1CjVWzdJCkdaPaajk2clMmpBvBo3yvjgyseghaFnRtmosPQrfJgPBDiaTFNFKdZg4gpYmvxSFnJ6JUlxF///C3xVxVnB34OLsdIrWxb6jy9DsDBkH7C9WhVCIkqi6MnHwTva6HO9vD/aPps8GW1tbg8Fge3t7Z2eHGFDwjROYY5jkvFrAJGe8NRjsHv4bnvfImnE6bOBfL0aDgUxyMj1WXbr+9Pa25i06b6kbwlRxdlYsQFQ72a7m0IDR2gLdT+cgdW5t76XZVNck53Q2GfMQ3uU8LGulDYIPTsdMoBgCWt2ua/DslUT11Y0BnLo8FW5Z2QrFqqx6de2hqzAWtNAiU3DbGh39PwOj5nembMSwSoHsPpp+dPSF37c53tvelrq2t7eH+IMcdjB6mnpxcfH5cLQ1fvkZPgH36fBP/2M4HFLrlgZOOf2tk/k5SQpYte3buosIrwFLh0UEja1sIUD6zOaYiBp0383McXt7W6fv7ou675Z1VHKaCKDd625fYdMvK3mdDJLtkYW9Tvgai9sOx1iJkuwzheRYqmAr/FuJgk9JCJyzbvbsZApda+Y5VBT9p5C7nkHDAcWry+Xy4/Pd7e29E97mIDu3ZaGB5jn02upisbg92d/amry9vqYNFGlI/TTdHQx2n3+gs4WrS4QGbRS6OjpYqOviQ64d0Tx2Dre8RiHFqh28kJO18dnsAOIgR8YcwII9f6wRF13j/6O2ox5y/UI7jGn3v/WPHmXXJCkt5BjUOikowmP56XRkca83Dya2nOs9pqGwtZhsm3Ru5xlai1rHckUsr83SdbbG12cHvi0h7O3WJdJgJ9vu+KB5HMygdqBJxkrCeECE4waJmjP0ihRdZ1ERwImKfX2/Ns8AqmAWZ4YFKqQQ/+bmZnYwGBy8pfb1+++v/joc7v16QX3r50PooN/oy8oo9uGXq6uTyc7O3q+XdObH7GAwHE5e8aFnxArOcXp/OKr1mGUXxmJbJFZBZGnZ0C4PMGz82Dfy27bltoKYk0kZyZUaAeeal5J/OjndBbp3LhZdS6cBNLYJCwNgnqkA90r/EVZSNCWazTbTpcS2rBdpnGUxpyp5LgdeV2ehLUpbEWiR/0jlEgqgI5Fs68DHCzzJKVWrCVGFrr8KNZYuj1aFh8+O3p/Dj5rq5PWCjiikIGm5XL4zj8o/H46I/tMLeDz75eaG3qCj1+ou8EHr3j/P5ZNWaZbroavaq+rGVQRQB/Lqyay2otRwWqf7ehdmlKGC6A8YY4EH5s6vYuvdshlmIRoyVnorIJS13ij3UAxwtrNTmTPIzTskqhVVM+/A3BRxPV6dv/UHwVMShhfNDGv4cHgjpQgu74x0lVvQ8cehrdYNGqq64dpP7B29H5icsyE4x/CElR7OnJ+fv5oMh89efLhIQ6qcNWqDWDoxi2Y112/2YD5wczOfz+Uc0df7wx1kslgsvhyObJOso1TrsgRYA4RL9miJTnfP0HatuYGse9gqUficmIITHT0dwh0CWMZrpasuXc1ci+3axL/QJuPqxwHXZtZVIJnKulEiB0f3vzTwAxxKj2R6KXW5diK5JrGSgHsBUyZPOrfLBHZhivqKK5Lzu/t1la34Otx18ngMu6oFSl/WUacqEpjkqbP0YGclwo7TigusaJKeuB3McFXPu4deVZrxCu5OVDVWZylSlkhsGorDoKs80ckPZrQkfLw/3N4/pn38Vx+PRtujw39d4PvKn6fPBrvPP57/c29w8BZXj5Ik19dv4UkOzoVwIerd3vb2X/95Tt/qXeIPOvFP0GTK8V7cAGW1olr9emkNrOq/WlBi2IMHmrUlLxJXfXo243AZWjQACL/J0dkZzhzKZu75mPo4uYoA0CjZcmn+78IOzqzO9OQmJ+oC8EBSNlugL1uc+hLzzf8nH8uyEfayOYDWPX8FOKmsdbNcC5GW1TRSKeBQSjolpsxZmZIpyczPTmf8YAcURE3BWaan5Dml1iWveg5tPKOX2ejsUPz87skE2yBtX6GHNovF4t3BQLT4cgRbXN6fn398vjsYpGeze79e0Frh8vUE1piXSxtveX25IRRyVb3Il6Uy6Aa1ToBZJoIe1u8NINuOq+jwLj+PZVPK6ljikDNkxkrPOfAfqrPeCHnAoboAYQuumeZOwNqCvS6Dc0VnuE7FNe1oXsFtR9zACqOA1MGU7oJdDrCF9Qf/CgCS+Qgea3EKAiCeJlMwIZaqyLDKLpFzL8pUcO/Vgj62i0Pqp6Nx2g0xHA4H+KPNEdQeTWWj//O/d4fD4TY/nt2WIRX2hu8efUjtFPXNYAH9BPZMWblcSbASN1ovkx4YJVEN1MTZ+iA3E+C/6kfM+1AmTp2GFt27Et+mHVUk+kWOeK7cvMcs6oy64oy8kacGY2VAJs7kmdUtsaTZFSQjTwDbinMTWeEWo+lJZdWKeaoWK12fi7j/mX/XXTfzP1GQQa6XgtykZqFUuwSPK2IOXEOFjWGTA34HRgRwqtztgvpi5H8CT0VsrwrgcI9vphZQUV+0najc76+QVG0qA21mJupkLYh7r+av93eG+2/omQyK9/LjfH5+fn71ZgJ7zRaL8/PXe9vbk5Ob1McdfkmTnH+ey/5g+gCofBgnvS0AWhTjvR8RWVQQvv1zY1gNBqs7xZdcBGRI6dmBNB8cLNnN5LkWc84BN37IbL/tJIcFtf/R1iKe3jHCNwA+mFUfXDjnEX8mxs4/tS5OIbxZ8+d7KE9FTr7f+I++ZOel2RMq29+iG/Oridr35mbFmsBzaGSFUqIm9FEgZM6qlC6HwniycMtpSi4uh5qPbEq5+TTdxV2jOzs7FCqNjs5ubt7BHOXXy/l8Du/RPXv54eJiPp+/NZOcz7iP//35+Ye/7w6evfyCW74X0KKh5b49GAzGkGnr9voSYjJ5q/qPtKkMq4SDtYutiNOKP+es+r96+HCbjkAj7gGy3phqUpXVTCCVSk7O0F2v2NpPcrB2NzqsUq/nfTBNkhAEIytgu1NJqg7fk3965GJNjs1EkVHcfJcu+ZKwVWZjJd1ClLBPABNMZohh2pFhuhElMxzLzGoVpsT6LmcKSxJqOXgnjZTy6aOL9Bk3HFKxrsNT+nI9nbVDDVDOdrev5UDDfI1PcvDkHjz/A4bhvTfX9gW8ahdaRVuk7RN7dOIGirjfeAorgMY6ti4ZUPjh8PodvmNnl2izGxtePnw76i0gTHJ6E9+ZkBTubgNwV7q/soFR3RUv1A40iYc0zm24q+LHptnNxqVMrAs/dqI6UKjXxixUocG6zG75tOMOF2WTY6zgzempax6+LzZAAUTaZVMd2NhqmWQUX8QjYDgX8q6bQTKnSQ5E6gYZ0FQk9JWWsNQrdqU8PvUC2QqiKk6d4/VvL3e3YTWI3vsnHnQ8wBuc5OAB0FBqMJ6ewqnQ74+eDXePPtMp7W/2h4Px0ZebLy/HW6PDz8vlCTzJ+ee5PaBWNsxovw9aaGMRwbtsJESNWYTetylfEXsat6ODKb6Qc3Z2ZCJXeHFLZKOGLxwT4NJCpb3TlAzbad0oXrVKoABNSnyDmknZysocU0Sk9AlsFxLM+Xv2KpeQ7nGHYP1TKCWhfJhec0wK6DslQQINjk3RRhLtW/AUJ5dEKm61gCxqTWx9XweU1UmOQ36tSQ7h7xUHlDDAJQH8W2Hope6pHe3jx6c0V8slNFXaiia7X+BJKcRABN1sb2tr79UcX7nZHYynH+eQPt4fDjD2urm5ge2mz+Bl5fd/393GSQ5+qPft3s6OLBgbjUt9605OiwLWjQlShh1KFcbyqOuV4q95G6acc57NDkbafluGoN5b73qPcgyNcEpvMmWSg9a3o7Ml2jR9Oh1pn4C+l5Yq7ITKa7FJlaBL8jrpNtncwNd2EZIvCawZhTTexsnJDGDUNgiI8eJ6WshATYFbksFpgvkuhsbuhdnLfxmgnV1aEBkfRnphQwl5JrONP1k9pJfcxs8/8MgI/EdHX2ib6GIBm0vlwyfyCqt8NQ5mR7/uDQagDn6D7rcXz4aD/RMdUpPqCKY6AOR6tHnsy+T2IGQ3G5e2o/YdAiDjkBfDGH8wSFaE5BJqFKJvyFLPrsvArDv/P3I76pTlFzk0ppNso5vsJeSXrV2z2iqwddVRT7kHs3p7wyZt/ADFrveYRiPwA+tw5hYnWYV03SGh9PtZEea06f+CLTZLbhLubqaXwSGHCISqNG9+GoC3YV7Eu8isccbTM+xMbR6mV0DaAILcQJ3BkjmxjTq1nsiWM2lXyvcshsonrTCYxoMW5N1iWgamt5PlWflgfHS4Pxzuv4Zw6phiMnhB+ePz8fDZ0SmEWe/2hkMqO3lz+vLZYPfFp4sLPF3t1w/QBeM2mK3xy0/L5Ye/725vbwvzAmrIGB2dOXwkJvDKdD8ZN5yxg0PLOpcGT8Pu0o8EUPV4MoEjvwyqDm2wUvlaai6dpcHajUiSpPHbOZjXvRyZinpsAKEVOZ4pyOBq63EV65gEyC55uHINk2XJZIZspmcS+Y+YczOX3DIBFfn5XkmTcpLWHSOZ9XwolGvByiJQGXRaFkqBt2hOYsXAuv/iV4Z5pwpZvWkLkxiLZjj0Karf+Sdfteb3lT8cPdvePaKxCeTcewUHG/72YnfwDNYmLi8vcc3imGKpj893h8+OPi2XMMkZH37++hW/ugsteu9Xf+Y7G9RD12wIFZcoYW/CYW6gcaXlmhsbJFkXYJGcx5nOXdgFaTWl84Gmtyu9ldaXtXfuLU2tzOlBF7BtQQJZ78kbVG7dQLWzrmL9QfIlgVVrQZWELAV/5Vc2cyiIv/IWcIJafIcDwigIWhumEnTS7qzkSopuIzSajymak7zZ39nZf00t1X7VWk77gCH100sQ7hgOzaLtpvZhDh3Vc319vVwu4RVWPFHtAiY5e/CE6ObL0TM4TaRjSJ2cCDgCICVG09MccG+OTCe47MSN6K0npIEyq5gv2VjJuHxZbzJYtTdiLl+jYE623vUjt6MVwv0iG2NWEN75toIIztHybxkCV79RCgzZtChV1pyyy9WCg7sUI6UvttKPPTlcrVsExF7zB69aUkzDgPBli1FSswYRtmqJMJI+2p5tERJVR1A1cUeUViJUy0mstF5LZGXINkj0RduKauNpW02etsLM9geD/RM4bRY60H8djofj6W9f04rRq8lwH8IgjHi+Hu9v7+y/vr7+/JJO3ILhYUYTG+xeJ+++fp3P5+//vruzf/ji2c74+Qd4krO1NXmduuYvcHYTxFj0eQ1afgbpQAt5WqLikl2s7dFG/OpUIsz605TrsBWWDi4e9nQ5UOioXy68i8ZapWr2fVZmeWFdy8lDA1mz94I5Srzo4w+5yiVP6hnoSQUNKmaMN2iD4okbmkZVYASq8uQCpMBCwZDeEihN1aW+Pgfbcjd9oY7nQFfW8yEn10IRg3V9HxLlZaWHJ9Y5K8x1gDCSCkc9Ve+6ZY2Wvo5weXlJExuKiuglN3oYe3V1BXMVbrkk594baHQfn48H6fC0JbyjjLHX6314XENrzDv46IZWH3aPpntwTsjlYvEbPJilKZN1AC8/EkCL0I7UTrwJJvxbxcrcryXJvr7GyhU6CfBf95eNFOoJKoyKrXfRM11dOJRnXYrSK7fMf+yNMg2OtO5vPD0j0Jxq7MYgEkcddfFKKVbkAD5aF1fkW5m0iJZGoyPZ9WA6dvY6lCD3sSSW8RDpZ6zE6BWsMt4AGVq9CnNTVk4GZgyZWYOFIZV+Q171Ky8nJ/AEhjanwatutG6I55RSKWmS9GbODv3+dPgJX42DwfrXve3tvXc37yZbo6OPxZDKAqZeTu2S1n9NI1VLmUJdyS7cUjljuy5Ocg/o8ScGqnJAMqcLDeKr2gZbueV1XeUfvR0JKK0EHDyQfVK9RXqnfAs9OIe2AcdObOZ6fEdSXEgfCpYwhswui3JFRqXh5TSprqwvzqnctYjncte/6FKHel7Tm0il6J3SAPJaazzBOhZGLKPt2RRByq2t0Zi3K9hO3wiT19rnOhXXem0hIwNvleGoVxS39JW0FZWeSHS1V703wYkNvDOzvT2BiczXq49Hu/x0hZ7qDIfD8Z/Gu4efaTfwCU5ylq/hDRzaRkinMOHXM45hMoMLUVfwOz0aD3YPP9/czIAaJznL5ZImOXhA7dKuaXVNcrQhMIanZ1M3ONkmKQgxsWRQwlsTQOaR3gGetQsu5eyVcU6XZS+ciceCOcPl1i95O/HK25iTi5dVAVpgd8TqUJglCCSuXCpx40tcpR5NeStXVZ5cgExOFMA2ScRffbKaMoNxxk4vod5KY1cCTjH4fF0TQEKWzJRSFvJ5sq3d+10AAWyVAwglaLOE9J/WIGRWQ1vUaErDj25gfTetR/z2cnc43H22OxjTvAQlP/66WCze/x0yv2DJdweD7YO32FrTbjc66Im+3kvHhMAu/1fz5fLTy10e6dh5vL7i5Pnk0LpEDe2qzSVTbOHhaFxBXRzNVEm8zFUSzqwZQovrXfEKLCjg4On/GhsofQoxRcNeCe0DWbx1/zsBqLBZKmKx1+Xq6KEKGEPZBIqM4taY9Do++lhJnMovNWadc3laA0qi6zLMHd3PhRBthwHhtw6m/kG9asQs82cauF/UDKlXsJtU1vJo+9nFBbw8IwuL5+fnNmSl89Pog1R0zgc9a726ujrZH9D7ctAbfDjaTWcPgEayjc0eDSJCckLwzBTJLpm8/b+Nm5RJda1e4scSaBodXIiLdZvEFy2bjQgVMpFCmHd2C5688+oR2lFn/XQT3smRRa8e9OuReOuCc2hHJpygy8gfAkLB1o8NINYCYtOvZZdYj+mhpF5JJAHkukgAAf5SLaBI6ycuJeJhuNMih3wpQlFUBhFC4foayxmI8z4XxbO7BUghQ9aAyMGIhbQ9SxGoXfetoWDWlU0tBY79M7he7n+74EN/UEy6K7GirnqSQxtdvn59J7ulr65g2/3kzdXNyWQAu7PgYzX0WHw+n7/eH+7+/f2nw13au//2YDDcf33578Pp8VcRjx+v4ySHvzZ7Q+/kQIgFk5y9V3Oa0tAkh15rpn3GSTmExbhNyhYb4TVjCBeQZr+SvjuVsiv0ICdPY2w+kYoWwl9a7uhAv/WUqjuY5CGpVsip1d7CWjjD1aNbEI/7AS8qV+f/e7g8T0Q4IeaEBPRQa0qQY0JwmbixnEkALluVJxfAiwdXULwWuXItrgTKXHqFo0FPKAMaTyNXDD5n5FpkYjgBpCwAhVJBDv0mJ8VDIayiG5COu/R2jQxkNJOh6Qe1YnloQ3tX6A1m3KoNQ8Pus+Fw/8XRs+HW+OVZihrhVOjX6ZU5OEIAa9f3oSm6gj1sBye8SogrFHDUyGn9SQ6PXH7fJjoS+21VRw+7o2fL3OF/xie7BIZQb+Z+7M9YHxZhm/r/4LQqtvqJeAUysNysqyu91assW2satsSd0xUBQFnqEFSvO/MHHxuNxmligPMc1Q58gF2l6g8+UwqqhCYkkLsgKxq0HOVJDbKmQorELvCwgjnVT2eTg2lxMCYyZMdGehBmBLs7v0pTpSFVnsPIlmx6J0ee7UyOoYh83JNbHHDlIXVuXy+nIZWGg7cHA3iDDt/JeYfHgcDhIvz4yPstXBUDpcOQRre8my1nkgagJm5MAwT4S2yhLbR+YJGzI1xfts2nNliUFlQfaLGnfHY/FvCu/x+8HfUS7JdeVHcjst0WcEAXT/ueS47Ok3wzVmLbv0Aam5C4CE0YKmUJ6390uE7L5n/5G/RE+H0YNbwTVYVLo2PKEPFMj2NoU7Jklfc1pB03PBxr02G7zM34OhFjUyE+aQaF+fC+BH26kchaOmf51PCgSDrQWWak3IsBvNwbGmFYvjv8L2HRJb28f0H21jG66nOtDuQXYMtStN6zWMCnlSd4SP/V1Qm9WzwAZ4DvdU7eXNNessvLD4fj7b1f8ZBoeJg+mRwMtveP6StjZ0e7NG69O9iSDp1xHk0/fZmOB6PDz3yE9CVtIm0qBVrYuXGSPdmIr2RuBhnaC5daQ05C1XP2DPN1uPT2au0I1+Rg2mRABFCn70/GWl6eQMFS6fQamNCwwmaxo29ddgwW3wAfNo5RuDRoJ6qlUtwWzONBgJTLVk2ZwZvUsP+8OfQO5HOLk1yoK8dEbkIC9VpB4wrkzTDXQhDjUgYZKSveJTlA3TRQsgji2dNbxi9Pr64Wi4UsBNzc3NBOfQmGaH2XmuocDxLAzfqwr2xycvby2fbu8w/z+cfpeEDb8Wl7zMk+vggHMx+d5Hz9+vX6DTzQfQMv6gz5FPjUQWE7AuFTx1J3AEOQnkcla1ZdIod9paHZHJ3/EWHr/6Sj6ViSjZiGLkdHM/7+r9HCegKnVWzOyQNEBofk1GVspbcaOP9JnQ/LZununE76Fl5HfSOrY7S+Y03AYXIifOhStQMf4E7V+QPD5TI16hCG2u0gJTxgwZ/tHKA67cRqiiAarpMBbtLvVYoYAfBuzuFkMhiMjj4s6SEqrzvAkArrhmn6ATMZHlLhCzcXF29gF+hx2gROjde+SU6Tn+zxzs0NDKmDg3f0OYfLy8vF63TwAIqmaHs9rApkFw08EMN0Ql0aLrkw+cZ/81yF4O7197/+hkO5rVfNx+z5PztAus4u8wAbeMqqH7PAjrfLiKsJhFUrgXavaH/f7ahVf57/cJMchLiiKa2D5nJk3Z9vxkpMzpTeD+WYJiPOLqFw7g3KkO/a9u/v4pWtNxPVULuWo2J01e6KKCvz5VPkM53CK93YMdWDGz0dEpkgJc3NkgmcgiqbVpmKaAakVDwWgwZvyYcj3WZWQZv2vNa5Ev6mEIbpsPOqNrB5A5lSWdINn75nuYU3bSw5vel4fv56gp0srt3C6WfUI8Na0bPB3q+XcFoALgttbe29ubyEQ6KvoMuGj4Hun9CpsvhldHP2rgEWw6/Tw/H27vOP0KHv7Oy9XpiDp20plg604GkJ54G1HDg1DIE419rMf+A2MEmdYM7B3Eq1SneWdfopnvadaWaj7FL1sDaStCSILruETKdXk7lWk8HFT3LggHiPbQ+XBmSqG8C4bFUeby8jmSRBTS8M3qpyQ8xdMxc2HdNRQ1MmcwfI661YwU5KSRiwC7qH45azwsoNIM6amXElHkqTpXE6nJ1eOCY16JMa1I7s93Bo2kNvJM//fYRHacFqxe7zj25HKHABgeGHbiyx1GKxeAPv57y5uLiALTHYHeGngUVBI3zdAQyBR90goDdKrIDMN65EjQ5DUnf9hbItGbBLR3ZU7xS+Lg3ExfTYcLCewGkVm3PsgAI1MDiqKqWU3t4ReDkTyCqtg29v8L9DADh1ptXK+tWYDp4y6LlyzuvsHfENm5A5uWsjCVhi1ZQW+OCvutIH5vPBRtPrkpSFRh7G2cHWYHz0EYdI2ZYG64bmDIDBYCBH+NBTHXrHJo25n6ajwcC+CFd18gGsesiQekFnD6SPgSZRC1+qqCA0kiCi7BIyxSKJjf+3Crd88Gq2i6y9ZJeZGI3WgWatwmYyq32LV6rXlXcALoIAbt6OmN3K/w83ySmrBt2qzQlJneu0nEb7TV4xndDXVGzgi9Y1FoNku17qapsdAalh6jWDX1YHXnK0Zxp84YsGGqe1yYckgcBQAGV9YPP8yYlJDCiLPTIzyWqwl8jfwmhvJmEmk0TgxHbgeGE8j/5Xjj8WgxwwYkfT7dMyXaszNrq9pSUf2al/iwfqX1xcwNdsdnYmx7Crk560TF4vaRXqZH97/PyDrB/TJpn3z8d04NK7g63BwTtaYP7ijvZOLkQ2ohMtD/+0s/v3D/TUaJ+3sTlgLXgNELyVSwyJhdPahh3kOeTUIFthSuBvQQYCCYBMtIHiwXZz3+68OlY8joxJQGsjrAIqtZnkEDxCm1bo1h0tYL3SRRWpVIFDxo30gul3Gf1wWa97YuDtlXGFS7RIqVRmQS4IdZX9GBCrTZm2339rI5bHOkALMfe2DAiAru64VQExUnkdGUZ49QV2ih59uIRDzG5ubpAPTHIglsGTlKht0iSHVnzLDS1yUhPu1v4CH+c9PKUvYqsMiOfkQN6auOVS9BwHan9HywpEeSKvgBtNWXKvr9dOq6xHS74sUUMV1eUew6w7CRxawyLVyN/rIBfq9EPrCTZNImiOQWbzSU5qIKXPdyve464K7IgBlk1hF4YNHyi8jgsodKnf6OF1XJZWcFoOU/clVNYZPe//lTulco2ur0+Png3HL+BkHhpoRi9OcUiFz1vTixLZkEqrD35IPd7b2fnrqzltcsN+eGSzAAAgAElEQVThUp/Z5iLgNdJAKRxS06t3fjhTMD0HowL4AIxv9HEhGqyTnpUtCV1OuAq36iQnddrFP2MR7ltUBZNTmk+Ft324Fk4pavutQ5AL8s6Mx2hHnQLgzW83yQF7mMDIrG1LfF+KbwyAgRG810t7W2clcd8c7Cz8B4DzoqZeF6F6OtNyrHWN53n6FivsdLgzNZEQ5FeGJeaPbi0dGY5M8i4gtljbUKuSdIyaRoxMbNMvNMYtFKyrF6gKY6W13QRyM00dC3sDFfwkw9rFr2XSx20kTsIPX8Bz8/n8GJ7e4NOVtJ3sNfSbsDz8eiKrSnL2wM7O7uG/Lq+vrxGxd0RJb9eYjkNdRT7iAacZmPd/eJU6PclJ23BJkYY1oUb/sxgyBs5eyWewFLsWEeCXCv2k1/kAysBFTHCG+eRIxFxkMDYi59Q2S5SJm7ER5KMPb41H6yygAn+qFzmzt/iWrttjFNWal3L7YgDdf8Qc+CM49htBSMZlje5a3OGJ2bMDFjU1pUp7dxops+qMCHEml+gc2Awbm1QvpdxcC2MpWwzSektsQdxSJ5azystDKeMPOlLARpRnA/hU+b9hFz62rJe/LRY0q5nP57gvZbD3GnKWyyXt2qdXk+kxDsVJFxewsxT3hX7Bur7YVwXSsy+/UZke3v5lsivf+gQLgmf6WRwYnQW2DkCG4L/SdqzqpUtk/YASm4ammf1TWFzaJpdjh0FvMTbCfN8buEcHam5reuaqd8H6/mccnsmN80hWNuhoPiBWmdsrwV1SKrAt7cCxNyBtjZ7fq14bD9f7CWeDfIqA/zLRyXZ/r8ueRmI9yQRV91NBaissWG9tZ0Eqlmt0c3NzvL89fPbit8XiBvAZvfyNhlR46XSxgA0LNKTSp3jpMU5tSN3Z+xWGVDrRh9pptu3CSg5D6m8vd2GTOYypiZJbooBQOL+fbMjOEW3gtpI10qtw8/U2giioz6lQXKZel3qe5EillOBaK393GSzKqmpdAVChbK0l+xqbDfO+20kO2zvZbAOrIIdacGOg9Z0OjdbmdkpqvqNnUcsCdh0djJ/8zwkDLcSMLnApIyhxTPxnU3nfCXLU11N3hpntrg37PlNRJq0XQzXNB6Sasj0aeV6bfZ8EVXZjYZnjAM+Y2Us3euWdsuwGpq8m87Od48n29uTVfLFYLJcnk+Fwjyc58vWxBf5k8ZjO7LeIFeIh2qmvseY2wJI/mM8QaacMWnAUZbSzNWauZanqU2VDwa7oME9Lcehj5KgqD5elfOtjllJBQPlrPS1CoTYSAyW4yhq5ZvcfK51MT/WzJyyS7/q1maQQCkQqm0DNpbE+kiqhxOA7C4pYqrtk8aNak4EzJcXFOgZTOZk5E/6jMK4bRGVTTgKwop3lkadzXXIt1FJ5STMeoxiqVIIrZ5UzENNLr6gs0p6WZy8+zuencMx6muQs8QfnPg/2jrE1yiRH3sZZ8HSIjlxLT3JkQsVikAvRO77m6SUA8h//wbMvjirYu6gwQ+19yeur2nGF9B+xKjzQl7WPPamurJ16lo0rUTDdR7/iUSPl+XqTIYyyRgvyBNzqWWlEwJyc2XtUq2UpvZXelQXZGCjUxRjFFrpbOuugoCKBGm3kGhrUkeO5ul6DHhMLE0hoFVD1XbyuCuPpGXaLpE5qU8amLEpNI+jiVCql5FRFIxlSYWPnePr5+prGyiv8LkK/IfUYtou/gSMNuaLV/wVJJXXO5nxJacy6J/fnaO7q4rIp1pmsO4wv4qFzohrCLD+7NIStDS/JUbuMiJ7cSWDrWZFevx2tYHin2485yWkJKO1NO2vwsNYPDcAumHh20TMf15LBP/TnbtXELDsdLexTGIf5JuTr8uRwRaEbqFDxLe/9LBvpm8S2vk5exb1/5uuVls8MUycuBTU/peoIj6f5SzJWmFQUG3mbc1GVXbTDsrWFOpJHol5voBpLynPiEXM1iDyNsQtLdE7A5PUSoyZ4qkM5W3xIP+0hznYSJ6asdRLPtPm6ywGBhrZoL+CUEyMf0b2trdzxmlbcTCgx4fhL82T/BAxVSC0J+ZWpF8a7QN/XRgKCJKgOlEqtVU/RG2JODNuyEFLfzwAaqCMYCxMr8UF5LFtwWV2MACaZyTJiBW2dFDCxCCPgBgbVC7ia9/pSJasBrJnVSCgOaSqtFxF9UeYKTY0VcwX8wWMzDI0g6aMZ+L3O0WA8pSc5tN/seH+4PT78cHk5n89puxqdhCbnDdCrOyZmyutC2ZLMkBZ/8A5JKvhmaP3Hpq3seZrMysp7IyItyQCbx+CXg5mKc1eTcxcOXAH/Vz6oSKVe4FywJa3zfI9MksH6Z8Enl9M7Z830gKd+pTFjmIqrUjn/HtdqCLE4lSJFtEbqTl1dUDYrtaLGb+x1Rjp0VO5Ykn3ZS3r9T4onjSyHjiH1P/9TR86+Q2oDYVsjC2ysI36oFkwqM7H7j75HziYgddFzYVMjDQd8o2yzwpcT3hlEYOUgKdNOgYxfxpb7rcQf//yH1q12vu/cWNhV/zdpR6t43+X+U5jkVOSudq92Gnp2NOneYFZheqcsMZjpdrMGIHw5/2TixoDki0JmE1zE5vECIfueceuMjC4Tf+x5qRcwjcSIXS0smdiMtReQ/M4EDC1evFJZHH7WbC0Ei9GoKgWpiTJDN9foAXkRLsFpAPE9C1ZB8RCdFrBcwjkw8zmelYbfzYAz+3f00Tk9Pcdn7vDGTvYA3fpwp3j0VJetrSZA9fXSQHAXSE3xFcl2vSsKrri9AgTe8gFAJFPO+B2wFZztbQt7ygc/4REIoOM03MZ18X/YBovqszXa/73bu0mOPqa3o++aTcDqxB7S9HBP/GBXuQUtmOiTBi4L8h0EqrTNjMu7A3hHeQe2h8LrNDylme0NBmM4wyO9oiOl4FQ0/GXt1G27SlsprPDYMYpi1B6Tss4Hkq19g8Xhw5GJPP0T4kUdLkTjVAdB7+qsvhaH3gweipAF62gFZJcOgjvIZnsPU5yMwoCDbGZkMXTNpPVw6nMs2qwsOd638Lqm4M0bViMlqg2pc9qkvVgsaNconflBZeiED3pjp2iqynazFMDLtrOcRIWzKRyK/Qg/MbSxfhlEkSBZfnb5CMJuUkWvdrRJBc2yT3SS05Q3bnx3CHxfTRHPWKOPacD+ftzcQl3t9fX1JZ4MY3tkmuc8WF/83Rk7BA4EHgkBCp7glFnc35+OVjudjgajw/eL83N4uXmxWFhpypUIvMuRDYbIK0NVnE6YiARYUJBan8zkM0MrUK80Mvdzp17lfjCiRpD0JLQEz8lcYqVcT9zrVsq/BgG970qnuseQugZwQXofCMQk5z5QDB4/EAK0yGQ3t9DOFjlD1n507AfSO1QJBL4zBOhsaFkMpjdw6KQBeuXG7En7zlQLcQOBHwaBGFJ/GFN+j4rEJOd7tFrI/LAIyCLx+fn5fA7P1qk+6qzl8mGFCO6BQCCwCgE6t52e22SfCIx2ugq8uB8IPBICMaQ+EtBRTYFATHIKSCIjEMBNa7TRX5aHA5VAIBB4agjIIvF8DidKPzXxQp5AIBAgBOi5qxzsHrAEAo+DQExyHgfnqOX7Q6Cxg//7UyQkDgQCgUAgEAgEvi0CMaR+W/x/ztpjkvNz2j20DgQCgUAgEAgEAoFAIBAIBH5YBGKS88OaNhQLBAKBQCAQCAQCgUAgEAgEfk4EYpLzc9o9tA4EAoFAIBAIBAKBQCAQCAR+WARikvPDmjYUCwQCgUDgCSPQ+oRi61N9NVW+t89w1XSIvEAgEAgEAoEHQeAJTXL6fTRNxr+z6bj9+S38rFvti7Z9QOSvdPWhvWca+qicfF67reAa9QpiUAa/07wOW4ghqt8G7ilBJ5jlN9Tu9MU3+Dzf/X7luqdyLbJSL0vp784O1v1UtvBylpXcuye8YMxnrVrA3Hm7y9muxZCleIT/J5M7exF44Df7XCPgaX71T1KuhV9Lne4uGvuWdWpvNvZ1POTHneSsjedaNg7iQCAQCAR+AgSe0CQHR9bpdGzGa06ar1DL+EfzgUa8DnFVEWz1NWdnXN6XSQcdSc66+f9GU5iSzE7OmFEWyvhifOWLY1EbBCAsTJv+5yEp14f/UdRV8wcwXPFjtl1gQkHHHKtbP1gs+Dgd7naBEUahVZ7hQzrxujys9yK4u2dnR5OtLeXTrrd0dWkLt7dg5eaPbeHFKK+cYHLb1CJ5mvB3T2fTgxHIYY2Ys/VFlNU3Tp2dTsESJywGiF3/la0M+64ZlgTtmj+GpdpkslK+li62KjNIMJuJCqzKuv+NOq4oOKdrsO7ums2wo7HXPKRtjgw3vRxP/7vWNSlBLTX5R9PuNXLMa2PiACouWm6Apu/Ap2AUGYFAIBAIBAI1BB56klOOzRrPeXncwFYsYkms7MhwkKgxxBHRj/1QWzmolDS3t1KXFxCuKo+P+vG0rDr4W7J103W2IF4KrWYTE0wzGgV6neGyHeZr0JUy16UCOqgIAneJnNaJ711FoONd4wzHaK0LO3vEguq0eVgPt0XN2/wuQCRgKpkVxhWRJiAJS4pOnqMBlP5X2P32thCM2NZr4aeC8Bjq7FSm4lgEkZketeYIXhCO+5MOp9PR3YR3GNzxAsAXeRzmwtD5szQuSQgdJNjDXSZe1OmVztVCJdwETCkfJNUSDz28ZT6QWdFbKZcDB8t6xtmVNJCccdEMc4L7uYZW4Ked98MXuFQ9rZp5f3UGp0AgEAgEfgYEHmOS0xyfLMCuT+cx/mTCoybn3GYhV3bJHIGbBo6ci/GfBDE5K6GSuiQHE8iT4nJ7oxUQWBqfbvD3ROtfVdkKPnDXGcIFGaa2XkGDsDUFfbISD6WwhZ5IgDxoXBa7Di+S+agXObsYHUzgabwsD3OVAwWYNH4gLYhNQjpXz2VTMnvHFRHwTY2qPuNpi2eunkvOpK4WzszKUjZw6I15zlbklypSIvmM6kL5Tfq8/P1e52ITdwevtH1IpJ8+cKubEtkYei5X/Pch9aOAACpnP9fQOjS6RT/JCjcuJzNcSOI2my++ECvXWXVYtuXMHUXucAtqUcvegUFHEUAVRqXCtUr48qbRwTVuBQKBQCAQCNw+lUmOGz513JKhXQYAyek0Ho7W5TApQQkWJlbwt/2jMd7S5EOd59kpVbopuvQhFhootfLnAyMNrFcHVTJ8KvhSdZnoZwUo55XlWAHMTY+VwFKTGUVIBzPnBukNIhdm8QMElwnaifylsHfLAVFX/lQM1aixNKuqcfRcGAW4KZmdXXARVEXAl4TRsO75npJM3K1gYy0A1VwTbSc8PEGsPJSwwuSmrNEbje8haWtHm0PXYcQ2bdz5s+RLwgiDDVZhNHfokXLjFtK5WjDn4UEwfpvUIT8xghvnNLmUrDteQUYZCDj1z8Azh2IdZQshsyrFNMl1K22auvSuSoVJxvw+LmcTnj6hhNSlgDCmM++S7T5kCB6BQCAQCPyYCDzwJMcECp34QSfOcaob4GF0gaBHMvt1940R149VLVZSF4ssWkiC7+RBvOZ3pIB//58Z6jp4FtMJoMWKDmawbeYAXnZSVl4RF7usChpQiBZ0pYRAqfUC89H0/8KCMWWeHY0goe98s8xphpNPKZuTnBLQPFYuZdssxwF1NjsY6aTaw0vVKMiVu17rJLkB2RWRfElADa0YDnF2lLiNSqdnioKrRbK5LOhrTCn3TQLaF0dsJnt1UsCRhJapS6X37zeFMCI4pl7Tb4ClxJ8lXxIgDBSs/YxDIlA1GpMntaCCYIX+P3XFtdBhlZM6ycPROWt1OwlR6371oi5pYlM+xmlMg1GRlpMX0mm/IaYxrmWMyCq7uXfLgkU1kGHMuhbYifhkojBivbD/k7Z6ytxPhbxLDVEmEAgEAoGfFoGnMcnB+IlGCzMU6bg+OZFhiUIuM+7iGNNn8BsdncmAh/YmVqXppa7iVmWwaROnTfkyMEpY2VmkqLN3RsGWUE0jpbsLOJix2WC+4hV2UUaPXKNa7I2U1vVRHcWBeDT9hw3YBBZRVOxe3gIatLW7lakjjB42AbqwGCujovF01rFdzbAytjD+6RxP8iXBsBibou5idEd5x0lOXzShri3St+IVRZZEciSxoCTVOd0llxPO/dgcfHP9/wYoU6/pNwRS4C35koBcU1AEMGaVvLUSRrC1yq1FzJIndZJbOpWZX5EJxDq1YLLqfygrv9Q5ODvKTU6wY1dgTEKailgLyhLTmLJGeCU2CGtmZcYlDFNfxLIZCfonsbGwlub/aHJgHnA5efozD8pAIBAIBH52BB54kpMNXT6gYex5zIPRwnb6KWSBwUkfRJihyO3tYWb0H0YF/woK5sP45H+49KgbBpDKDIGeay18sQJD5E9HLEE5P+rPDuRWm39WXbrMqvAK1K9G01NG1Uxy6rSUK0N1GTRUpHJWoPsmhrAFPKXDBCSsLP0an9HZkWEJFVmcKdYU+Q3l3ZLIvwuqyr3MsWtBieKT33Xup2R2W5cUQceuCLA1gRf9CQS1oHha6ULojfoADaGSWhxw3oLuVt+L/nGhUZ+ZG38AxS3Uzp1uTRPjsmv+d8d5GzSM/AIpt6/CGJOj6SiF+wod6fX/eh7G4HhSv6GseumUgeYYti7oEStMVJK+yZFEZerTSB6TiQKBgn1+mfnWbLYN95CuFUUxhrMTUVPWCK/EBmHN7DnJaTpDFyS0Ozd7OipV27aZDNHL8kEUCAQCgUAgIAg88CRH6pFdHOWohj24hmipiBlyIEeGJZdvxi1bU9oxUgbQJlgxo9fp2dQ92ZC6PM/GGq0hoqEuLWc2ZVNdTNG7JB0UGQOo/WBm9BWloJSLFLOSvQbUsmrh79nJmE3ZwJyXe+0ornfNIyYoC79sqgOqPeQkxyugV22DKk1KZVpjrhb3d8FGW6MRz/eUrDrJKaqSDC2oFhSjeHsxAR2arPA6wdBPumK04p6NX0UsTBg/tC8deSK8Ui0qN3knGPchK4irHDoyAZat0ZhX0A0aRn6BtM1ICyrsVlSbBi5sjjZH01l1Em16kyVP+ibBjMoqqsnsWysUMT2Pm9v35JFDV0WPtSCeYjsoW/9Rj6TG8otZtYbArl6Rp6cmGZkCyzdAizR5u7damHf8DwQCgUDgJ0HgESc5PM/J5x6n0+lJGfqYIQdMIWOqy2/2/jBCVJ4SyICH1rWsIM3RntRV+IAfPovbSc40kMO4ZQd1IVf+IE/Xz6xQAjeeHiROILMJGixKt7MDIPb6pq1oo6OZfa/ALnYC43K4FcE1YaHDXCmVySn5VFYvHYcUf3DooPVACmMjozsSG2Tu+0kO1o6VenmwXm8CVUfkrJoTSqmvGi+CV5LG8ILSFL6WAx7rydiHTREFx2dqQZVKPM2h7UwMxKyUZ8gVlWWZnimy//w8BAqu+uWsVIuMqVyCkAwLCJ81AaFbMwFHV4/wVTH4Wg40K0XDOoNAavn7TC2o0Fm9IJ3/JjPSJctXDxRWKExGZi95Bmjl65tmyVO/kRzJaJdyXFfTlzlO2os+lpyEjx6xipi0DBk16AydJtWvpA80JjAascrFOznCQZBPigpDQEEen/ZGoU6owMp9rdfWKLcjEQgEAoFAILASgced5LhxzskmowV06Pkvbb7CAVK7/q4xBoYujoRMPX60cKwg8kvxgRkCTVlI6oiY3dBLqELiDBQDtbFBOfCnYdvLo0wgVQ57xE2YI5gaoabLydR8tMTwB2XTA5AkFYmE+ePp2elZ+tZJWa+XC688dDjN4PAFbnE6DwIwRoF6UTD58KvEE2nFWgGsVI08eY2T7jvMa0XulgdsjReh8BpS0+XoaHZ2SuyN21g/4bR4uHoRuZwAjpf+1R0WgJlgTVyRyzRQC8PG0kDmWjwnabl3Zmuo3U+tM3TFAbSg8UMz8fbyJxBXR43CH0sAE/rZJpaJtPKSniqIwHh5IrvOUOU0m2LwkSXb1GWqfbFJUktnSihm03DN9oJ8ndV4nsCKmkmW71TLObubPS7YIsleSTBTI4tqVp16sE0kajhqWWg2sZqAnzF0+bmCIA/+tFfM3Vh8z5Q1GrHK32SSY3BIeuC/1B+y5A6BDJ24DAQCgUAgEOhA4MlNcljWrGeXYcnlm3GLy9F/DH1k/U/u8bBBGY6V0HSN3zoiGnKfhCrsiAt3QfhsNnKXSQ5WlI4jgzTKf4QfT6TBXiOkJFPSF+8mNFKaRCrigxRy2RG3mVZ4ARYJVuwkRKyW5AF7ASVIbgBJd+UfiI0/mSzJrRQjmurSk6gcc1tik7Se/kTONj3YomMwCvmNstZPOK2+yjn0tE1i3ExKxApQUJyJgotrMI0f0NTZEZiYzCEieVdXAl+ncHbZvmzreawUASYksxS05kbHI2PVqlOUhGGeAG6FYyBbeSSVF1l1nU64EoE9PWoElsjbl8BrE6Opzo6UodVLLEtOjn/RXhYQm3bLK1KXFxKvbC2V2yuzuFLTb6Rv2hDghj+Lgf2JUaSRBOgUjZogrbutfJrM0BMw/JtbJ1WSdHFzSxbeAWsqYhyQhcmna/28cjFfrSnWK6/aJEkMeMarvWsvbkEUCAQCgUAggAg87iQHunK7bK9GMMMnZWZDiwxLLr8oxQxheCiiw/QAQY4GcKy4ZJqTFFEU3neDnymhSeBZK2vqMkxkAFYGkqoOe+kucWOeGGfUKjWr5lAQMOTxEsriZIyZ9KpXiGwpMU3aDkdhDshjNKWSYK9swEZLFeEjkaOQRexSMgEYH2qSA5KQm/EswsIogHi3sYrbNJFnOXVDYy0Hk/KTMurziQ9SmtPblKDfkxzVIRMs3bC2TllognpDNnM2Loj+iV6RduVB2u0HUxGM8JrpUsCtWjVX56jXuqhzQGUnExPaJqYKV2oCCRaZ5CiBi4ZzHY0DwC1weLK+9FT6tKdrCYYdNT2SXUt1ImaBoUHRj4Wh7kUf+qlr9a4GmDf6ZDBoHfzm1IhFFX9j6HJ5pI9F67Be7j+5kxFAmAMzyM9/3Cnlpswr731tfMCWIUNU+3ZLFulAIBAIBAKBKgIPO8k5O5pM02YeWngzq6EY+sgqdTFamCHHCe7ybamzo+xDJa0B1Q1YIoCpJIUsJoeTbvDDzNPp5EiCCgxNOIh3upvIzMosAzBXYP5Xhz0EjVf3DRSGv2EhkxwSjAGhaIPPgAJ5WGYoW63XMoV0VjVDymM/6QV//dzD6A4c4KcEKWfliJ4L3OudHERA68r1aVwn3EhIIzzms7JcFjKT8NZPbJpIs5wq4MmgBmcyzfhvf5FIEfmMxglDFs9qKiIx2mwoZ3FWoJyU4h0vAxNj+FWZbBijU0H4yzZFMdL0ZmsL3oHJObAWXA0E7s0+xN0qmgD6Sc5f+VZSVU2T/OTSXAg2j/3tv6Q3Q5zp3apT3S5lBbB62TQwdA6A5gMzucV7U7vYlGUx/3PO5tZaSVOdKQf+hr+12xEy8QaCKvDHPXAVfN/ViCyWlUGvKrZk1sHRxmgE0MyKAMJQlj9kABAB104YLUxZEAl+eVdjSCIZCAQCgUAg0EbgoSc5vGHejWcoDnTrHHZX1iC5f4eCNlIxQ5GU4tGXx8s0odJL1t+OTy5SZwL8D1VwWOZuVKJArhr1c6MRjKn6ExVcjOLl8XW5YY9DHxdeOCh4xbEWG51MZaoJNVL8ZAZyzGQJXb1eJL3KqtYbmgI+zDPlohb0cdL81u1teikIOMuvagUEtlDTIaNScKptU6Zw/9E5rX+WAQ3Z10hoLEvYwoo+/rIYJUOmArhI63CGGv/45z+Y8FetydIbr7PgOz4+quaSKdq2peiWKwv8WZ0CgfQ4iwmgIPyYHqQVM51MJgelh7gnHlS90QiY2Ubtb+WSu+qMlu2k0zQpzzIDN1YE+4E//PmPRhh0GCsb0pD+eWcCYgMO3KgTFfHPQUMxrGDGzQpNmHNxY80MpyyVxY4OFSSxc7RX1mDMAeqYhkNFWXFBwyQssMDHNIHMmdElis5BDNclpQHZ9I3lMGHBuS/AUQtVGMBBwNFPEJleKnSpF/cCgUAgEPgJEXjYSU5/QNNoQT079vbFKIjM3PCDIVGVGPnYoXGVJD7gkFBsVbG17/uIFgdsHduKFI3W1ZhAF4y9DBQrpBAkH49NjOijAVSfxlEM1wpJKhmd8FqZLbYu/vCSl1ekSwolUeCKGF1ZYsd1/MEjo1JZMCU3SZWFIN5LE7EF1tJ7l0iT1UQACAjOXgAERxTEOkgYordpkbaSQGQEw1qjIxmSLTTQJ16pOIe8eMlMnPCVqkFxLli5vWGWcem+nHKBsXkmj3Xge5MhmVeEYCEj2rTb+8RFhBsk0lTK8gRTqqFtaxK7mYRS9lW7pHPK0pNS44dAj6KyoUsG+AzZCIXJ7rafg89MTT4hmSko6HGBTDZEMheldZ3aGlXUIsryM3lEjNUJY0rbIdDinZsHAghuareaeVAEAoFAIBAI3D6xSU7LInbU0fGgHccgvUSHLa6Pnz+D19a12iyY0Bv5Jha9k6JqGmgVCiWwqcQf0aCIxAz5HGPZAu16PZWJPPwNuoJa7j721zhuloegdcdYrQoovCC4G4i1ivbMt1GaCXOptDM3TwnIiD7EJDm9hMbuPWWpkTECHQal5jme4scuRYaWkzRju1rtd827Sw9gBSatjc+QjhzgJvDJXh6ZmnVQZU+miqEDwIfC2L58i2T4y9/GAql/9Yvp5L+fDkn22glQAfsWcj/vacLNwiWZD5ZoGdQ2H628E3AlsymjDtRlMbdkLn1fgFumiLlxPL6HftVLKi4R/wOBQCAQ+NkReCqTnJ/dDqH/QyIgQdtDVnJX3hylYRBTCW4cXwq1s8kthtoPFYkC8+8wtGJUHXorLjjMRTztYkStHE3VMnvhtKQxmXnSTljT8PvIu4uhvw/NQspAIBAIBAKBDRGISc6GAEbxQCAQCAQCgUAgEAgEAoFAILV8SD8AAAG6SURBVBB4WgjEJOdp2SOkCQQCgUAgEAgEAoFAIBAIBAKBDRGISc6GAEbxQCAQCAQCgUAgEAgEAoFAIBB4WgjEJOdp2SOkCQQCgUAgEAgEAoFAIBAIBAKBDRGISc6GAEbxQCAQCAQCgUAgEAgEAoFAIBB4WgjEJOdp2SOkCQQCgUAgEAgEAoFAIBAIBAKBDRGISc6GAEbxQCAQCAQCgUAgEAgEAoFAIBB4WgjEJOdp2SOkCQQCgUAgEAgEAoFAIBAIBAKBDRGISc6GAEbxQCAQCAQCgUAgEAgEAoFAIBB4WgjEJOdp2SOkCQQCgUAgEAgEAoFAIBAIBAKBDRGISc6GAEbxQCAQCAQCgUAgEAgEAoFAIBB4WgjEJOdp2SOkCQQCgUAgEAgEAoFAIBAIBAKBDRGISc6GAEbxQCAQCAQCgUAgEAgEAoFAIBB4WgjEJOdp2SOkCQQCgUAgEAgEAoFAIBAIBAKBDRGISc6GAEbxQCAQCAQCgUAgEAgEAoFAIBB4WgjEJOdp2SOkCQQCgUAgEAgEAoFAIBAIBAKBDRGISc6GAEbxQCAQCAQCgUAgEAgEAoFAIBB4Wgj8f3gwyw3lexjzAAAAAElFTkSuQmCC;" vertex="1" parent="1">
          <mxGeometry x="470" y="360" width="721.63" height="370" as="geometry" />
        </mxCell>
        <mxCell id="FcAqTXAFGtNp5iq5CDFF-23" value="目的" style="text;html=1;align=center;verticalAlign=middle;whiteSpace=wrap;rounded=0;strokeWidth=1;fontStyle=1" vertex="1" parent="1">
          <mxGeometry x="18" y="441" width="90" height="30" as="geometry" />
        </mxCell>
        <mxCell id="FcAqTXAFGtNp5iq5CDFF-25" value="通过边界值法验证长按录像视频时长是否正确" style="text;html=1;align=center;verticalAlign=middle;whiteSpace=wrap;rounded=0;" vertex="1" parent="1">
          <mxGeometry x="50" y="441" width="312" height="30" as="geometry" />
        </mxCell>
        <mxCell id="FcAqTXAFGtNp5iq5CDFF-26" value="步骤" style="text;html=1;align=center;verticalAlign=middle;whiteSpace=wrap;rounded=0;strokeWidth=1;fontStyle=1" vertex="1" parent="1">
          <mxGeometry x="19" y="488" width="90" height="30" as="geometry" />
        </mxCell>
        <mxCell id="FcAqTXAFGtNp5iq5CDFF-27" value="1.打开相机默认拍照模式&lt;br&gt;2.长按快门时长小于1s，观查预览&lt;br&gt;3.长按快门录像7s，抬起手指，查看录制视频&lt;br&gt;4.长按快门录像14s，抬起手指，查看录制视频&lt;br&gt;5.长按快门时长超过15s，观查预览并查看录制视频" style="text;html=1;align=left;verticalAlign=middle;whiteSpace=wrap;rounded=0;" vertex="1" parent="1">
          <mxGeometry x="84" y="405.5" width="322" height="230" as="geometry" />
        </mxCell>
      </root>
    </mxGraphModel>
  </diagram>
</mxfile>
